<svg width="24" height="24" viewBox="0 0 24 24" fill="none" xmlns="http://www.w3.org/2000/svg">
<path d="M17.619 6H6.95231C5.47955 6 4.28564 7.19391 4.28564 8.66667V15.7778C4.28564 17.2505 5.47955 18.4444 6.95231 18.4444H17.619C19.0917 18.4444 20.2856 17.2505 20.2856 15.7778V8.66667C20.2856 7.19391 19.0917 6 17.619 6Z" fill="#0E1318"/>
<path d="M4.28564 10.4444H20.2856M7.8412 14.8889H7.85009M11.3968 14.8889H13.1745M6.95231 6H17.619C19.0917 6 20.2856 7.19391 20.2856 8.66667V15.7778C20.2856 17.2505 19.0917 18.4444 17.619 18.4444H6.95231C5.47955 18.4444 4.28564 17.2505 4.28564 15.7778V8.66667C4.28564 7.19391 5.47955 6 6.95231 6Z" stroke="#FAFAFA" stroke-linecap="round" stroke-linejoin="round"/>
</svg>
