<svg width="24" height="24" viewBox="0 0 24 24" fill="none" xmlns="http://www.w3.org/2000/svg">
<path d="M8.8 4.5L8.80011 4.5C9.35798 4.49988 9.90639 4.64411 10.392 4.91865C10.8777 5.1932 11.284 5.58873 11.5715 6.06678L11.9997 6.77861L12.4283 6.06706C12.9944 5.12735 14.0245 4.5 15.2 4.5C15.7746 4.5 16.3257 4.72827 16.7321 5.1346C17.1384 5.54093 17.3667 6.09203 17.3667 6.66667V6.97174C17.3667 7.34915 17.255 7.69906 17.0625 7.99237L16.5544 8.76667H17.4805H18.4C18.6918 8.76667 18.9715 8.88256 19.1778 9.08885C19.3841 9.29514 19.5 9.57493 19.5 9.86667V10.9333C19.5 11.2251 19.3841 11.5049 19.1778 11.7112C18.9715 11.9174 18.6918 12.0333 18.4 12.0333H13.0333V8.76667H15.5051C16.4959 8.76667 17.3 7.96255 17.3 6.97174V6.66667C17.3 6.10971 17.0788 5.57557 16.6849 5.18174L16.3314 5.5353L16.6849 5.18174C16.2911 4.78792 15.757 4.56667 15.2 4.56667C14.3602 4.56667 13.5547 4.9003 12.9608 5.49416L13.2822 5.81558L12.9608 5.49416C12.367 6.08803 12.0333 6.89348 12.0333 7.73334V7.76667H11.9667V7.73334C11.9667 7.31748 11.8848 6.9057 11.7256 6.5215C11.5665 6.13731 11.3332 5.78822 11.0392 5.49416C10.7451 5.20011 10.396 4.96686 10.0118 4.80772C9.62764 4.64858 9.21586 4.56667 8.8 4.56667C8.24305 4.56667 7.70891 4.78792 7.31508 5.18174C6.92125 5.57557 6.7 6.10971 6.7 6.66667V6.97174C6.7 7.96255 7.50413 8.76667 8.49494 8.76667H10.9667V12.0333H5.6C5.30826 12.0333 5.02847 11.9174 4.82218 11.7112C4.61589 11.5049 4.5 11.2251 4.5 10.9333V9.86667C4.5 9.57493 4.61589 9.29514 4.82218 9.08885C5.02847 8.88256 5.30826 8.76667 5.6 8.76667H6.51947H7.44558L6.93751 7.99237C6.74506 7.69907 6.63334 7.34916 6.63334 6.97174V6.66667C6.63334 6.09203 6.86161 5.54093 7.26794 5.1346C7.67427 4.72827 8.22537 4.5 8.8 4.5Z" fill="#0E1318" stroke="#0E1318"/>
<path d="M5.56665 17.3349V14.1016H10.9667V19.5016H7.73332C7.15868 19.5016 6.60758 19.2733 6.20125 18.867C5.79492 18.4606 5.56665 17.9095 5.56665 17.3349ZM16.2667 19.5016H13.0333V14.1016H18.4333V17.3349C18.4333 17.9095 18.2051 18.4606 17.7987 18.867C17.3924 19.2733 16.8413 19.5016 16.2667 19.5016Z" fill="#0E1318" stroke="#0E1318"/>
</svg>
