<svg width="24" height="24" viewBox="0 0 24 24" fill="none" xmlns="http://www.w3.org/2000/svg">
<path d="M17.6191 6H6.95243C5.47967 6 4.28577 7.19391 4.28577 8.66667V15.7778C4.28577 17.2505 5.47967 18.4444 6.95243 18.4444H17.6191C19.0919 18.4444 20.2858 17.2505 20.2858 15.7778V8.66667C20.2858 7.19391 19.0919 6 17.6191 6Z" fill="#9CA3AF"/>
<path d="M4.28577 10.4444H20.2858M7.84132 14.8889H7.85021M11.3969 14.8889H13.1747M6.95243 6H17.6191C19.0919 6 20.2858 7.19391 20.2858 8.66667V15.7778C20.2858 17.2505 19.0919 18.4444 17.6191 18.4444H6.95243C5.47967 18.4444 4.28577 17.2505 4.28577 15.7778V8.66667C4.28577 7.19391 5.47967 6 6.95243 6Z" stroke="#FAFAFA" stroke-linecap="round" stroke-linejoin="round"/>
</svg>
