<svg width="178" height="121" viewBox="0 0 178 121" fill="none" xmlns="http://www.w3.org/2000/svg">
<g clip-path="url(#clip0_2944_31647)">
<rect x="0.274414" y="0.767578" width="177.073" height="120" rx="17.561" fill="#353535"/>
<rect x="14.176" y="27.8411" width="149.268" height="102.439" rx="8.04878" fill="#2B2B2B" stroke="#353535" stroke-width="1.46341"/>
<path d="M41.249 25.6445L41.9807 119.303" stroke="#353535" stroke-width="1.46341"/>
<path d="M55.7246 46.3516H53.5804V40.0241H55.7678C56.396 40.0241 56.9357 40.1507 57.3868 40.4041C57.8399 40.6554 58.188 41.0169 58.4311 41.4885C58.6741 41.9602 58.7956 42.5246 58.7956 43.1816C58.7956 43.8408 58.6731 44.4072 58.428 44.8809C58.1849 45.3547 57.8337 45.7182 57.3744 45.9715C56.9172 46.2249 56.3672 46.3516 55.7246 46.3516ZM54.7266 45.3598H55.669C56.1097 45.3598 56.4774 45.2795 56.7719 45.1188C57.0665 44.9561 57.2879 44.7141 57.4362 44.3928C57.5845 44.0694 57.6587 43.6657 57.6587 43.1816C57.6587 42.6976 57.5845 42.296 57.4362 41.9767C57.2879 41.6554 57.0686 41.4154 56.7781 41.2568C56.4898 41.0962 56.1314 41.0158 55.7029 41.0158H54.7266V45.3598ZM61.2009 46.4473C60.9002 46.4473 60.6293 46.3938 60.3883 46.2867C60.1494 46.1775 59.9599 46.0169 59.8198 45.8047C59.6818 45.5926 59.6128 45.331 59.6128 45.0199C59.6128 44.7522 59.6623 44.5308 59.7611 44.3557C59.86 44.1806 59.9949 44.0405 60.1659 43.9355C60.3368 43.8305 60.5294 43.7512 60.7436 43.6976C60.9599 43.642 61.1834 43.6018 61.4141 43.5771C61.6921 43.5483 61.9177 43.5225 62.0907 43.4999C62.2637 43.4751 62.3893 43.4381 62.4676 43.3886C62.5479 43.3371 62.5881 43.2578 62.5881 43.1507V43.1322C62.5881 42.8995 62.5191 42.7192 62.3811 42.5915C62.2431 42.4638 62.0443 42.4 61.7848 42.4C61.5109 42.4 61.2936 42.4597 61.1329 42.5792C60.9743 42.6986 60.8672 42.8397 60.8116 43.0024L59.7673 42.8541C59.8497 42.5658 59.9856 42.3248 60.1751 42.1312C60.3646 41.9355 60.5964 41.7893 60.8703 41.6925C61.1442 41.5936 61.447 41.5442 61.7786 41.5442C62.0073 41.5442 62.2349 41.5709 62.4614 41.6245C62.688 41.678 62.895 41.7666 63.0824 41.8902C63.2699 42.0117 63.4202 42.1775 63.5335 42.3876C63.6489 42.5977 63.7065 42.8603 63.7065 43.1755V46.3516H62.6314V45.6997H62.5943C62.5263 45.8315 62.4305 45.9551 62.307 46.0704C62.1854 46.1837 62.032 46.2754 61.8466 46.3454C61.6633 46.4134 61.4481 46.4473 61.2009 46.4473ZM61.4913 45.6255C61.7158 45.6255 61.9105 45.5812 62.0752 45.4927C62.24 45.402 62.3667 45.2826 62.4553 45.1343C62.5459 44.986 62.5912 44.8243 62.5912 44.6492V44.09C62.5562 44.1188 62.4965 44.1456 62.412 44.1703C62.3296 44.195 62.2369 44.2167 62.1339 44.2352C62.031 44.2537 61.929 44.2702 61.8281 44.2846C61.7271 44.299 61.6396 44.3114 61.5655 44.3217C61.3986 44.3444 61.2493 44.3814 61.1175 44.4329C60.9856 44.4844 60.8816 44.5565 60.8054 44.6492C60.7292 44.7398 60.6911 44.8572 60.6911 45.0014C60.6911 45.2074 60.7663 45.3629 60.9166 45.4679C61.067 45.573 61.2586 45.6255 61.4913 45.6255ZM68.5819 42.8603L67.5624 42.9715C67.5335 42.8686 67.4831 42.7718 67.411 42.6811C67.3409 42.5905 67.2462 42.5174 67.1267 42.4618C67.0073 42.4061 66.861 42.3783 66.688 42.3783C66.4553 42.3783 66.2596 42.4288 66.101 42.5297C65.9444 42.6307 65.8672 42.7615 65.8693 42.9221C65.8672 43.0601 65.9177 43.1724 66.0207 43.2589C66.1257 43.3454 66.2987 43.4164 66.5397 43.4721L67.3492 43.6451C67.7982 43.7419 68.1319 43.8953 68.3502 44.1054C68.5706 44.3155 68.6818 44.5905 68.6839 44.9303C68.6818 45.229 68.5943 45.4927 68.4213 45.7213C68.2503 45.9479 68.0124 46.125 67.7076 46.2527C67.4027 46.3804 67.0526 46.4443 66.6571 46.4443C66.0763 46.4443 65.6087 46.3227 65.2544 46.0797C64.9002 45.8346 64.689 45.4937 64.6211 45.057L65.7117 44.952C65.7611 45.1662 65.8662 45.3279 66.0268 45.437C66.1875 45.5462 66.3966 45.6008 66.654 45.6008C66.9197 45.6008 67.1329 45.5462 67.2936 45.437C67.4563 45.3279 67.5376 45.193 67.5376 45.0323C67.5376 44.8964 67.4851 44.7841 67.3801 44.6955C67.2771 44.607 67.1164 44.539 66.8981 44.4916L66.0886 44.3217C65.6334 44.227 65.2967 44.0673 65.0783 43.8428C64.86 43.6162 64.7519 43.3299 64.7539 42.9839C64.7519 42.6914 64.8312 42.4381 64.9918 42.2239C65.1545 42.0076 65.3801 41.8408 65.6684 41.7233C65.9589 41.6039 66.2936 41.5442 66.6726 41.5442C67.2287 41.5442 67.6664 41.6626 67.9856 41.8995C68.307 42.1363 68.5057 42.4566 68.5819 42.8603ZM70.7246 43.5709V46.3516H69.6061V40.0241H70.6998V42.4123H70.7555C70.8667 42.1446 71.0387 41.9334 71.2714 41.779C71.5062 41.6224 71.8049 41.5442 72.1674 41.5442C72.497 41.5442 72.7843 41.6132 73.0294 41.7512C73.2745 41.8892 73.464 42.091 73.5979 42.3567C73.7338 42.6224 73.8018 42.9468 73.8018 43.3299V46.3516H72.6834V43.503C72.6834 43.1837 72.601 42.9355 72.4362 42.7584C72.2735 42.5792 72.0448 42.4896 71.7503 42.4896C71.5526 42.4896 71.3754 42.5328 71.2189 42.6193C71.0644 42.7038 70.9429 42.8263 70.8543 42.987C70.7678 43.1477 70.7246 43.3423 70.7246 43.5709ZM74.9913 46.3516V40.0241H76.1097V42.3907H76.1561C76.2137 42.2754 76.2951 42.1528 76.4001 42.023C76.5052 41.8912 76.6473 41.779 76.8265 41.6863C77.0057 41.5915 77.2343 41.5442 77.5124 41.5442C77.879 41.5442 78.2096 41.6379 78.5042 41.8253C78.8008 42.0107 79.0356 42.2857 79.2086 42.6502C79.3837 43.0127 79.4712 43.4576 79.4712 43.9849C79.4712 44.506 79.3857 44.9489 79.2148 45.3135C79.0438 45.678 78.8111 45.9561 78.5165 46.1476C78.222 46.3392 77.8883 46.435 77.5155 46.435C77.2436 46.435 77.0181 46.3897 76.8389 46.299C76.6597 46.2084 76.5155 46.0992 76.4063 45.9715C76.2992 45.8418 76.2158 45.7192 76.1561 45.6039H76.0912V46.3516H74.9913ZM76.0881 43.9788C76.0881 44.2857 76.1314 44.5544 76.2179 44.7851C76.3064 45.0158 76.4331 45.1961 76.5979 45.3258C76.7647 45.4535 76.9666 45.5174 77.2034 45.5174C77.4506 45.5174 77.6576 45.4515 77.8245 45.3196C77.9913 45.1858 78.1169 45.0035 78.2014 44.7728C78.2879 44.54 78.3311 44.2754 78.3311 43.9788C78.3311 43.6842 78.2889 43.4226 78.2045 43.194C78.12 42.9654 77.9944 42.7862 77.8275 42.6564C77.6607 42.5266 77.4527 42.4618 77.2034 42.4618C76.9645 42.4618 76.7616 42.5246 76.5948 42.6502C76.428 42.7759 76.3013 42.952 76.2148 43.1785C76.1303 43.4051 76.0881 43.6719 76.0881 43.9788ZM82.4921 46.4443C82.0286 46.4443 81.627 46.3423 81.2871 46.1384C80.9473 45.9345 80.6836 45.6492 80.4962 45.2826C80.3108 44.9159 80.2181 44.4875 80.2181 43.9973C80.2181 43.5071 80.3108 43.0776 80.4962 42.7089C80.6836 42.3402 80.9473 42.0539 81.2871 41.85C81.627 41.6461 82.0286 41.5442 82.4921 41.5442C82.9555 41.5442 83.3571 41.6461 83.697 41.85C84.0369 42.0539 84.2995 42.3402 84.4848 42.7089C84.6723 43.0776 84.766 43.5071 84.766 43.9973C84.766 44.4875 84.6723 44.9159 84.4848 45.2826C84.2995 45.6492 84.0369 45.9345 83.697 46.1384C83.3571 46.3423 82.9555 46.4443 82.4921 46.4443ZM82.4982 45.5483C82.7495 45.5483 82.9596 45.4793 83.1285 45.3413C83.2974 45.2012 83.4231 45.0138 83.5054 44.779C83.5899 44.5441 83.6321 44.2826 83.6321 43.9942C83.6321 43.7038 83.5899 43.4412 83.5054 43.2064C83.4231 42.9695 83.2974 42.781 83.1285 42.641C82.9596 42.5009 82.7495 42.4309 82.4982 42.4309C82.2408 42.4309 82.0266 42.5009 81.8556 42.641C81.6867 42.781 81.56 42.9695 81.4756 43.2064C81.3932 43.4412 81.352 43.7038 81.352 43.9942C81.352 44.2826 81.3932 44.5441 81.4756 44.779C81.56 45.0138 81.6867 45.2012 81.8556 45.3413C82.0266 45.4793 82.2408 45.5483 82.4982 45.5483ZM87.0809 46.4473C86.7802 46.4473 86.5093 46.3938 86.2683 46.2867C86.0294 46.1775 85.8399 46.0169 85.6998 45.8047C85.5618 45.5926 85.4928 45.331 85.4928 45.0199C85.4928 44.7522 85.5423 44.5308 85.6411 44.3557C85.74 44.1806 85.8749 44.0405 86.0459 43.9355C86.2168 43.8305 86.4094 43.7512 86.6236 43.6976C86.8399 43.642 87.0634 43.6018 87.2941 43.5771C87.5721 43.5483 87.7977 43.5225 87.9707 43.4999C88.1437 43.4751 88.2693 43.4381 88.3476 43.3886C88.4279 43.3371 88.4681 43.2578 88.4681 43.1507V43.1322C88.4681 42.8995 88.3991 42.7192 88.2611 42.5915C88.1231 42.4638 87.9243 42.4 87.6648 42.4C87.3909 42.4 87.1736 42.4597 87.0129 42.5792C86.8543 42.6986 86.7472 42.8397 86.6916 43.0024L85.6473 42.8541C85.7297 42.5658 85.8656 42.3248 86.0551 42.1312C86.2446 41.9355 86.4763 41.7893 86.7503 41.6925C87.0242 41.5936 87.327 41.5442 87.6586 41.5442C87.8873 41.5442 88.1149 41.5709 88.3414 41.6245C88.568 41.678 88.775 41.7666 88.9624 41.8902C89.1499 42.0117 89.3002 42.1775 89.4135 42.3876C89.5289 42.5977 89.5865 42.8603 89.5865 43.1755V46.3516H88.5114V45.6997H88.4743C88.4063 45.8315 88.3105 45.9551 88.187 46.0704C88.0654 46.1837 87.912 46.2754 87.7266 46.3454C87.5433 46.4134 87.328 46.4473 87.0809 46.4473ZM87.3713 45.6255C87.5958 45.6255 87.7905 45.5812 87.9552 45.4927C88.12 45.402 88.2467 45.2826 88.3353 45.1343C88.4259 44.986 88.4712 44.8243 88.4712 44.6492V44.09C88.4362 44.1188 88.3764 44.1456 88.292 44.1703C88.2096 44.195 88.1169 44.2167 88.0139 44.2352C87.911 44.2537 87.809 44.2702 87.7081 44.2846C87.6071 44.299 87.5196 44.3114 87.4455 44.3217C87.2786 44.3444 87.1293 44.3814 86.9975 44.4329C86.8656 44.4844 86.7616 44.5565 86.6854 44.6492C86.6092 44.7398 86.5711 44.8572 86.5711 45.0014C86.5711 45.2074 86.6463 45.3629 86.7966 45.4679C86.947 45.573 87.1386 45.6255 87.3713 45.6255ZM90.7112 46.3516V41.6059H91.7956V42.3969H91.845C91.9315 42.1229 92.0798 41.9118 92.2899 41.7635C92.5021 41.6132 92.7441 41.538 93.016 41.538C93.0778 41.538 93.1468 41.5411 93.223 41.5472C93.3013 41.5514 93.3661 41.5586 93.4176 41.5689V42.5977C93.3703 42.5812 93.2951 42.5668 93.1921 42.5544C93.0912 42.54 92.9933 42.5328 92.8986 42.5328C92.6947 42.5328 92.5114 42.5771 92.3486 42.6657C92.188 42.7522 92.0613 42.8727 91.9686 43.0272C91.8759 43.1816 91.8296 43.3598 91.8296 43.5617V46.3516H90.7112ZM95.7263 46.435C95.3535 46.435 95.0199 46.3392 94.7253 46.1476C94.4308 45.9561 94.198 45.678 94.0271 45.3135C93.8561 44.9489 93.7706 44.506 93.7706 43.9849C93.7706 43.4576 93.8571 43.0127 94.0302 42.6502C94.2052 42.2857 94.4411 42.0107 94.7377 41.8253C95.0343 41.6379 95.3649 41.5442 95.7294 41.5442C96.0075 41.5442 96.2361 41.5915 96.4153 41.6863C96.5945 41.779 96.7366 41.8912 96.8417 42.023C96.9467 42.1528 97.0281 42.2754 97.0858 42.3907H97.1321V40.0241H98.2536V46.3516H97.1537V45.6039H97.0858C97.0281 45.7192 96.9447 45.8418 96.8355 45.9715C96.7263 46.0992 96.5822 46.2084 96.403 46.299C96.2238 46.3897 95.9982 46.435 95.7263 46.435ZM96.0384 45.5174C96.2753 45.5174 96.4771 45.4535 96.6439 45.3258C96.8108 45.1961 96.9375 45.0158 97.024 44.7851C97.1105 44.5544 97.1537 44.2857 97.1537 43.9788C97.1537 43.6719 97.1105 43.4051 97.024 43.1785C96.9395 42.952 96.8139 42.7759 96.647 42.6502C96.4823 42.5246 96.2794 42.4618 96.0384 42.4618C95.7892 42.4618 95.5811 42.5266 95.4143 42.6564C95.2475 42.7862 95.1218 42.9654 95.0374 43.194C94.9529 43.4226 94.9107 43.6842 94.9107 43.9788C94.9107 44.2754 94.9529 44.54 95.0374 44.7728C95.1239 45.0035 95.2505 45.1858 95.4174 45.3196C95.5863 45.4515 95.7933 45.5174 96.0384 45.5174Z" fill="#525252"/>
<rect x="54.4202" y="51.9863" width="51.2195" height="2.92683" fill="#353535"/>
<rect x="17.8347" y="43.207" width="17.561" height="2.92683" fill="#353535"/>
<rect x="17.8347" y="49.0605" width="17.561" height="2.92683" fill="#353535"/>
<rect x="17.8347" y="54.9141" width="17.561" height="2.92683" fill="#353535"/>
<rect x="17.8347" y="60.7676" width="17.561" height="2.92683" fill="#353535"/>
<rect x="17.8347" y="66.6211" width="17.561" height="2.92683" fill="#353535"/>
<rect x="17.8347" y="72.4746" width="17.561" height="2.92683" fill="#353535"/>
<rect x="17.8347" y="78.3281" width="17.561" height="2.92683" fill="#353535"/>
<rect x="17.8347" y="84.1836" width="17.561" height="2.92683" fill="#353535"/>
<rect x="17.8347" y="90.0371" width="17.561" height="2.92683" fill="#353535"/>
<rect x="17.8347" y="95.8906" width="17.561" height="2.92683" fill="#353535"/>
<rect x="54.4202" y="60.7676" width="103.902" height="65.8537" rx="4.39024" fill="#353535"/>
<rect x="120.274" y="40.2812" width="17.561" height="7.31707" fill="#353535"/>
<rect x="140.762" y="40.2812" width="17.561" height="7.31707" fill="#353535"/>
</g>
<rect x="1.00612" y="1.49929" width="175.61" height="118.537" rx="16.8293" stroke="#353535" stroke-width="1.46341"/>
<defs>
<clipPath id="clip0_2944_31647">
<rect x="0.274414" y="0.767578" width="177.073" height="120" rx="17.561" fill="white"/>
</clipPath>
</defs>
</svg>
