<svg width="151" height="150" viewBox="0 0 151 150" fill="none" xmlns="http://www.w3.org/2000/svg">
<rect x="0.5" width="150" height="150" rx="75" fill="#F7A531" fill-opacity="0.05"/>
<g clip-path="url(#clip0_2055_33413)">
<path d="M120.453 66.2656C120.409 68.7751 120.322 71.2337 120.199 73.6271C120.199 74.1928 120.141 74.7513 120.105 75.3098C120.039 76.4339 119.967 77.5436 119.887 78.6243C119.747 80.5583 119.582 82.444 119.394 84.2814C119.263 85.5724 119.133 86.8416 118.98 88.0746C118.799 89.6049 118.611 91.099 118.408 92.5423C118.204 93.9855 117.98 95.5159 117.762 96.9301C117.544 98.3444 117.298 99.6862 117.037 100.999C116.776 102.312 116.565 103.588 116.311 104.814C115.92 106.796 115.531 108.629 115.144 110.311C114.904 111.399 114.665 112.422 114.419 113.372C113.019 119.094 111.931 122.315 111.931 122.315C108.648 123.404 105.291 124.257 101.886 124.868C100.16 125.201 98.3973 125.513 96.6494 125.789C87.8518 127.239 79.5329 127.965 79.5329 127.965C79.5329 127.965 78.8874 125.985 78.0824 122.677C77.8648 121.807 77.6255 120.835 77.3934 119.776C77.3426 119.544 77.2918 119.305 77.2338 119.051C76.8494 117.318 76.465 115.374 76.1096 113.249C75.9501 112.284 75.7905 111.291 75.6382 110.261C75.3263 108.085 75.0653 105.793 74.8767 103.421C74.7969 102.391 74.7244 101.34 74.6808 100.281C74.6808 99.8893 74.6446 99.4903 74.6301 99.0987C74.5576 97.1985 74.5503 95.3635 74.5938 93.6156C74.5938 92.564 74.6446 91.5341 74.6881 90.5405C74.8041 88.1471 75 85.9568 75.2248 83.9768C75.3118 83.1064 75.4206 82.2724 75.5294 81.4818C75.5294 81.3368 75.5802 81.1845 75.5947 81.0394C75.9632 78.3511 76.4912 75.6871 77.1758 73.0614L120.453 66.2656Z" fill="#004B2D"/>
<path d="M120.106 75.3114C120.04 76.4356 119.968 77.5453 119.888 78.6259C118.438 78.3721 117.451 77.2769 116.574 75.9279C116.285 75.36 115.855 74.8756 115.326 74.5209C115.226 74.4754 115.122 74.4413 115.014 74.4193C114.349 74.3603 113.684 74.5374 113.136 74.9198L112.599 75.2679C110.561 76.6387 108.936 78.7565 106.732 79.7138C105.924 80.0888 105.029 80.235 104.144 80.1365C103.259 80.0381 102.418 79.6987 101.713 79.1554C100.987 78.6404 100.327 77.9514 99.5949 77.4002C99.222 77.1122 98.8091 76.8801 98.3692 76.7112C97.013 76.2253 95.5914 77.2407 94.3222 78.3648C94.0103 78.6404 93.7057 78.9233 93.4229 79.1917C91.5807 80.896 89.5572 82.6004 87.3451 82.7672C86.8386 82.7934 86.3321 82.7155 85.8568 82.5384C85.3816 82.3612 84.9476 82.0886 84.5818 81.7373C84.1104 81.3239 83.7187 80.7872 83.2328 80.3883L83.1748 80.3448L82.9427 80.1708C81.9128 79.5035 80.5493 79.9677 79.6572 81.0483C79.2792 81.5065 79.0046 82.0409 78.8521 82.6149C78.7585 83.0707 78.5004 83.4761 78.1269 83.7536C77.9664 83.8727 77.7831 83.9574 77.5884 84.0023C77.3937 84.0472 77.1918 84.0515 76.9954 84.0147H76.9447C76.4152 83.8769 76.0453 83.3765 76.2702 82.5061C76.3525 82.1819 76.4592 81.8642 76.5893 81.556C76.6501 81.3831 76.7203 81.2136 76.7996 81.0483C76.8552 80.9215 76.9182 80.798 76.9882 80.6785C77.4279 79.7497 78.0654 78.9283 78.8559 78.2719C79.6465 77.6154 80.571 77.1397 81.5647 76.878C82.6423 76.6388 83.7707 76.8343 84.7051 77.422C85.5246 77.9587 86.0686 78.8725 86.8809 79.402C87.0449 79.515 87.2298 79.5939 87.4249 79.6341C87.9962 79.7378 88.5859 79.6323 89.0857 79.3367C90.2713 78.6138 91.3606 77.7438 92.3277 76.7475C94.1336 75.0721 96.1716 73.491 98.3257 73.4983C99.9938 73.4983 101.263 74.5571 102.431 75.5508C102.865 75.9464 103.325 76.3123 103.809 76.6459C104.127 76.8701 104.493 77.0186 104.877 77.0802C105.262 77.1418 105.656 77.1148 106.028 77.0013C106.713 76.746 107.347 76.3702 107.899 75.8916C108.298 75.5653 108.69 75.2244 109.067 74.8835C109.955 74.0441 110.902 73.2709 111.903 72.5699C113.883 71.2572 116.088 70.8365 117.625 72.1565C118.158 72.6579 118.615 73.2345 118.981 73.8682C119.047 73.9697 119.105 74.0712 119.177 74.1655C119.417 74.5988 119.732 74.9867 120.106 75.3114Z" fill="#0E1318"/>
<path d="M119.395 84.2815C119.264 85.5725 119.134 86.8417 118.981 88.0747C117.973 87.512 117.139 86.6811 116.574 85.674C116.175 85.0721 115.747 84.3105 115.014 84.1582C114.282 84.0059 113.346 84.5063 112.599 85.0068C110.561 86.3775 108.936 88.4953 106.732 89.4454C105.925 89.823 105.03 89.9713 104.145 89.8741C103.26 89.7769 102.418 89.4379 101.713 88.8942C100.589 88.1182 99.6747 86.9288 98.3692 86.4573C96.6793 85.8408 94.8807 87.5743 93.4229 88.9378C91.5807 90.6277 89.5572 92.3393 87.3451 92.4988C86.8395 92.5278 86.3334 92.4526 85.8581 92.2779C85.3828 92.1032 84.9483 91.8328 84.5818 91.4835C84.0959 91.0555 83.6825 90.4971 83.182 90.0837L82.9427 89.9096C81.4921 88.9668 79.3961 90.2723 78.8521 92.3465C78.7596 92.8047 78.5013 93.2127 78.1269 93.4925C77.8177 93.7191 77.4342 93.8202 77.0535 93.7753H77.0027C76.4442 93.6593 76.0526 93.1443 76.2774 92.2595C76.4101 91.7611 76.5873 91.2756 76.8069 90.809C76.8586 90.6863 76.9192 90.5675 76.9882 90.4536C77.4283 89.5222 78.0665 88.6982 78.8582 88.0393C79.65 87.3803 80.5761 86.9023 81.5719 86.6386C82.6495 86.3994 83.778 86.5949 84.7124 87.1826C85.5319 87.712 86.0759 88.6331 86.8882 89.1698C88.5418 90.2723 90.8336 87.8789 92.335 86.5081C94.1409 84.8327 96.1789 83.2444 98.333 83.2589C100.001 83.2589 101.27 84.3178 102.438 85.3186C103.41 86.1455 104.52 87.2479 106.064 86.7692C107.206 86.2688 108.239 85.5493 109.103 84.6514C109.993 83.8141 110.94 83.041 111.939 82.3378C113.919 81.0178 116.124 80.6044 117.661 81.9244C118.269 82.5223 118.791 83.2007 119.214 83.9406C119.228 84.0204 119.315 84.151 119.395 84.2815Z" fill="#0E1318"/>
<path d="M118.408 92.5402C118.205 94.0488 117.98 95.5139 117.763 96.9281C117.31 96.4672 116.911 95.9562 116.573 95.4051C116.174 94.8103 115.746 94.0488 115.014 93.8965C114.281 93.7442 113.346 94.2374 112.599 94.7451C110.561 96.1158 108.936 98.2409 106.731 99.191C105.924 99.5654 105.029 99.7119 104.145 99.6147C103.26 99.5176 102.419 99.1804 101.712 98.6398C100.588 97.8637 99.6742 96.6743 98.3688 96.1956C96.6789 95.5791 94.8802 97.3125 93.4224 98.6688C91.5802 100.373 89.5567 102.085 87.3446 102.237C86.8389 102.267 86.3324 102.193 85.8569 102.018C85.3814 101.843 84.9471 101.572 84.5813 101.222C84.0954 100.794 83.682 100.228 83.1743 99.822C83.0945 99.7639 83.022 99.6987 82.9422 99.6479C81.4917 98.7051 79.3956 100.003 78.8517 102.092C78.7461 102.562 78.4662 102.974 78.0684 103.245C77.874 103.382 77.6505 103.471 77.4156 103.506C77.2741 103.532 77.1292 103.532 76.9877 103.506C76.422 103.398 76.0086 102.89 76.2625 101.991C76.3951 101.492 76.5723 101.007 76.7919 100.54C76.9226 100.244 77.0753 99.9576 77.2488 99.6842C77.7019 98.8663 78.318 98.1502 79.0591 97.58C79.8001 97.0099 80.6503 96.598 81.5569 96.3697C82.0909 96.2503 82.6432 96.2375 83.1821 96.3321C83.721 96.4267 84.236 96.6268 84.6974 96.9209C85.5169 97.4503 86.0609 98.3714 86.8732 98.9009C88.5268 100.011 90.8187 97.6099 92.32 96.2319C94.1259 94.571 96.1639 92.9754 98.318 92.9972C99.9861 92.9972 101.255 94.0488 102.423 95.0497C103.395 95.8765 104.505 96.9789 106.049 96.5002C107.19 95.9971 108.222 95.2779 109.088 94.3824C109.96 93.5451 110.894 92.7742 111.881 92.0761C113.861 90.7561 116.065 90.3427 117.603 91.6627C117.905 91.9226 118.175 92.2172 118.408 92.5402Z" fill="#0E1318"/>
<path d="M117.066 100.998C116.834 102.326 116.594 103.587 116.341 104.813C116.207 104.539 116.021 104.293 115.792 104.092C115.562 103.89 115.295 103.736 115.006 103.638C114.245 103.479 113.338 103.979 112.591 104.487C110.553 105.858 108.928 107.983 106.723 108.933C105.916 109.307 105.022 109.454 104.137 109.356C103.253 109.259 102.411 108.922 101.705 108.382C100.58 107.598 99.6666 106.416 98.3611 105.945C96.6712 105.321 94.8725 107.054 93.4147 108.411C91.5726 110.115 89.549 111.827 87.337 111.986C86.8317 112.012 86.3265 111.935 85.8517 111.76C85.3769 111.586 84.9422 111.317 84.5737 110.971C84.0877 110.528 83.6743 109.97 83.1666 109.564L82.9345 109.39C81.484 108.454 79.388 109.745 78.844 111.834C78.7495 112.291 78.4917 112.699 78.1188 112.98H78.0825C77.771 113.2 77.3854 113.288 77.0091 113.226C76.4434 113.118 76.0372 112.61 76.2838 111.711C76.4176 111.213 76.5948 110.727 76.8132 110.26C77.072 109.693 77.3957 109.157 77.7779 108.664C78.6958 107.379 80.0442 106.466 81.5783 106.09C82.1123 105.97 82.6646 105.958 83.2035 106.052C83.7424 106.147 84.2573 106.347 84.7187 106.641C85.5383 107.17 86.0822 108.091 86.8945 108.614C88.5482 109.731 90.84 107.33 92.3413 105.959C94.1473 104.291 96.1853 102.703 98.3393 102.717C100.007 102.717 101.277 103.769 102.444 104.762C103.416 105.604 104.526 106.699 106.071 106.213C107.212 105.713 108.245 104.993 109.11 104.095C109.997 103.258 110.945 102.487 111.945 101.789C113.635 100.614 115.572 100.164 117.066 100.998Z" fill="#0E1318"/>
<path d="M115.18 110.312C114.941 111.4 114.702 112.423 114.455 113.373C113.776 113.518 113.137 113.81 112.584 114.229C110.546 115.6 108.921 117.725 106.716 118.675C105.91 119.052 105.015 119.201 104.13 119.104C103.244 119.006 102.403 118.667 101.698 118.124C100.573 117.348 99.6595 116.158 98.354 115.68C96.6641 115.07 94.8655 116.804 93.4077 118.16C91.5655 119.864 89.542 121.561 87.3299 121.728C86.8238 121.756 86.3175 121.679 85.8422 121.503C85.3669 121.327 84.9328 121.056 84.5666 120.706C84.0807 120.278 83.6672 119.712 83.1596 119.313C83.0858 119.25 83.0082 119.192 82.9275 119.139C81.4769 118.196 79.3809 119.494 78.8369 121.576C78.7334 122.018 78.4764 122.408 78.1117 122.678C77.9518 122.799 77.7687 122.885 77.574 122.931C77.3793 122.977 77.1771 122.982 76.9802 122.947C76.4218 122.831 76.0301 122.316 76.255 121.431C76.3876 120.933 76.5648 120.447 76.7844 119.98C76.9244 119.666 77.0893 119.362 77.2776 119.074C77.6088 118.525 78.0058 118.018 78.4598 117.565C79.2963 116.693 80.3706 116.085 81.5494 115.817C82.083 115.697 82.635 115.683 83.1739 115.776C83.7128 115.87 84.228 116.068 84.6899 116.361C85.5094 116.891 86.0534 117.812 86.8657 118.341C88.5193 119.444 90.8112 117.05 92.3125 115.68C94.1184 114.004 96.1564 112.423 98.3105 112.43C99.9786 112.43 101.248 113.496 102.416 114.49C103.387 115.317 104.497 116.427 106.042 115.941C107.184 115.44 108.216 114.721 109.081 113.823C109.97 112.986 110.918 112.212 111.917 111.509C112.88 110.829 114.006 110.416 115.18 110.312Z" fill="#0E1318"/>
<path d="M79.5842 127.99C73.1293 127.504 66.8919 126.881 60.9302 126.075C58.972 125.807 57.05 125.532 55.128 125.22C49.7804 124.378 44.7034 123.37 39.8973 122.195C39.5709 120.897 39.2663 119.599 38.9617 118.301C38.7151 117.278 38.483 116.255 38.2364 115.225C37.7094 112.861 37.2041 110.489 36.7206 108.11C36.387 106.5 36.0751 104.89 35.7705 103.273C35.3644 101.097 34.9727 98.9213 34.6101 96.7455C34.3417 95.1644 34.0806 93.576 33.8413 91.9732C33.4786 89.7031 33.116 87.404 32.8259 85.1049C32.6736 83.9734 32.5213 82.8347 32.3762 81.6961C32.0861 79.426 31.8105 77.1559 31.5639 74.864C31.5639 74.6537 31.5132 74.4361 31.4914 74.2258C31.4044 73.4207 31.3173 72.6229 31.2376 71.8251C31.0417 69.9829 30.8604 68.1262 30.6936 66.2695L77.2126 73.1233C77.082 75.64 77.0022 78.164 76.966 80.6734C76.966 80.7822 76.966 80.891 76.966 80.9998C76.966 81.1086 76.966 81.3624 76.966 81.5438C76.966 82.3706 76.966 83.1901 76.966 84.0097C76.966 86.1855 76.966 88.3105 76.966 90.4138C76.966 90.5226 76.966 90.6242 76.966 90.7257C76.966 91.7411 76.966 92.742 77.024 93.7428C77.0748 95.7518 77.1546 97.7173 77.2343 99.6321C77.2343 99.8714 77.2343 100.118 77.2343 100.357C77.2779 101.387 77.3359 102.395 77.3866 103.396C77.3906 103.423 77.3906 103.45 77.3866 103.476C77.4882 105.26 77.5897 106.979 77.7058 108.633C77.7348 109.053 77.7638 109.467 77.7928 109.873C77.8726 110.939 77.9451 111.969 78.0249 112.955C78.1554 114.602 78.2932 116.125 78.4165 117.546C78.4818 118.119 78.5326 118.678 78.5833 119.2C78.6631 120.041 78.7429 120.832 78.8154 121.564C78.8517 121.833 78.8734 122.101 78.9025 122.362C79.3086 125.93 79.5842 127.99 79.5842 127.99Z" fill="#00C878"/>
<path d="M76.9508 80.9939C76.9508 81.168 76.9508 81.3565 76.9508 81.5379C76.9508 82.3647 76.9508 83.1842 76.9508 84.0038C76.5075 84.0766 76.0573 84.0985 75.609 84.069L75.2899 84.0328C74.4582 83.9299 73.6581 83.6509 72.9427 83.2144C72.2274 82.778 71.6133 82.1941 71.1413 81.5016C70.7998 81.059 70.4849 80.5964 70.1985 80.1163C69.8317 79.3197 69.2358 78.6505 68.4869 78.1943C67.5976 77.9257 66.6399 78.0007 65.8033 78.4047C64.0699 79.0502 62.5904 80.2178 60.8787 80.8706C60.3776 81.0741 59.8542 81.2178 59.3194 81.2985C58.4971 81.4181 57.6593 81.3726 56.8548 81.1646C56.0504 80.9566 55.2954 80.5904 54.6341 80.0873C54.34 79.8823 54.0567 79.662 53.7856 79.4273C52.5381 78.3467 51.53 76.9251 50.0939 76.0983C48.2227 75.0394 46.2427 76.2941 44.6181 77.266C44.2555 77.4908 43.8929 77.7084 43.5085 77.9115C41.7896 78.8616 39.9184 79.5796 37.9166 79.2387C36.7378 78.9983 35.6674 78.3856 34.8632 77.4908C34.2948 76.7873 33.6871 76.1166 33.0428 75.4818C32.6308 75.1338 32.1271 74.9122 31.5922 74.8436C31.5922 74.6333 31.5415 74.4157 31.5197 74.2053C31.4327 73.4003 31.3456 72.6025 31.2659 71.8047H31.498C32.7664 71.8872 33.9768 72.3668 34.9575 73.1755C35.8713 73.9007 36.4661 74.9814 37.3654 75.7429C39.1931 77.2805 41.717 75.4891 43.3779 74.51C45.3797 73.3205 47.628 72.2689 50.0069 72.8491C51.8563 73.2988 53.2561 74.684 54.5471 75.9895C55.6205 77.0702 56.839 78.4699 58.5144 78.3829C59.7177 78.2056 60.8641 77.7539 61.8651 77.0629C62.8678 76.454 63.9209 75.9323 65.0128 75.5036C67.1886 74.7058 69.6328 74.8726 71.3227 76.5987C71.9722 77.3409 72.5366 78.1534 73.0053 79.0212C73.3709 79.783 73.9572 80.4172 74.6879 80.8416C74.9855 80.9708 75.301 81.0539 75.6235 81.0882C76.007 81.122 76.3933 81.0975 76.7695 81.0157L76.9508 80.9939Z" fill="#0E1318"/>
<path d="M77.017 93.7521C77.0102 93.7553 77.0027 93.757 76.9952 93.757C76.9877 93.757 76.9803 93.7553 76.9735 93.7521C76.5131 93.8248 76.0461 93.8467 75.5809 93.8174C75.2604 93.8036 74.9421 93.7574 74.6308 93.6796C72.5638 93.2227 71.2873 91.6996 70.1704 89.8574C69.7992 89.0656 69.2041 88.4 68.4588 87.9427C67.5695 87.674 66.6118 87.7491 65.7752 88.153C63.5342 88.9871 61.7282 90.6842 59.2913 91.0541C58.2871 91.1765 57.2681 91.0713 56.3101 90.7461C55.3521 90.4209 54.4797 89.8841 53.7575 89.1756C52.51 88.095 51.5019 86.6735 50.0658 85.8539C48.1946 84.7878 46.2147 86.0497 44.59 87.0216C42.5738 88.24 40.3255 89.4077 37.8885 88.9871C36.7086 88.7496 35.6374 88.1364 34.8351 87.2392C34.2686 86.5364 33.6607 85.868 33.0147 85.2374C32.9583 85.1812 32.8949 85.1324 32.8261 85.0924C32.6738 83.9609 32.5215 82.8223 32.3765 81.6836C33.3159 81.8905 34.1917 82.3209 34.9294 82.9383C35.8433 83.6636 36.438 84.737 37.3373 85.4913C39.165 87.0434 41.689 85.2519 43.3498 84.2728C45.3516 83.0761 47.5999 82.0245 49.9788 82.6047C51.8283 83.0544 53.228 84.4324 54.519 85.7451C55.5924 86.833 56.8109 88.2255 58.4863 88.1458C59.6879 87.962 60.8329 87.5109 61.837 86.8258C62.8395 86.2145 63.8926 85.6904 64.9847 85.2592C67.1605 84.4686 69.6047 84.6282 71.2946 86.3543C71.9552 87.0959 72.5317 87.9083 73.0135 88.7768C73.3792 89.5366 73.9656 90.1685 74.6961 90.5899C75.3456 90.8606 76.064 90.919 76.7486 90.7567L76.9372 90.7132C76.9735 91.7504 76.9952 92.7512 77.017 93.7521Z" fill="#0E1318"/>
<path d="M77.4084 103.429C77.2695 103.46 77.1291 103.485 76.9878 103.502C76.5201 103.575 76.0459 103.597 75.5735 103.567C75.3499 103.555 75.1271 103.531 74.9062 103.494C72.6796 103.103 71.3379 101.536 70.163 99.6143C69.7919 98.8205 69.1969 98.1525 68.4513 97.6923C67.5621 97.4236 66.6043 97.4987 65.7678 97.9026C63.5267 98.7367 61.7208 100.434 59.2839 100.804C57.1081 101.137 55.3384 100.303 53.75 98.9325C52.5026 97.8591 51.4945 96.423 50.0584 95.6107C48.1872 94.5518 46.2072 95.8066 44.5826 96.7784C42.5663 97.9896 40.318 99.1646 37.8811 98.7439C36.7012 98.5065 35.6299 97.8932 34.8277 96.996C34.7495 96.9216 34.6767 96.8416 34.6101 96.7567C34.3417 95.1756 34.0806 93.5872 33.8413 91.9844C34.2282 92.1876 34.5928 92.4307 34.9292 92.7096C35.8431 93.4349 36.4378 94.5083 37.3371 95.2626C39.1648 96.8075 41.6888 95.016 43.3496 94.0369C45.3514 92.8475 47.5997 91.7958 49.9786 92.376C51.8281 92.8329 53.2278 94.211 54.5188 95.5164C55.5922 96.6044 56.8107 97.9969 58.4861 97.9099C59.6908 97.7287 60.8374 97.272 61.8368 96.5754C62.8393 95.9641 63.8924 95.44 64.9845 95.0088C67.1603 94.2182 69.6045 94.385 71.2944 96.1112C71.9566 96.8489 72.5332 97.6591 73.0133 98.5263C73.3789 99.2881 73.9652 99.9224 74.6959 100.347C75.3479 100.618 76.0686 100.676 76.7557 100.514L77.2416 100.383C77.2996 101.42 77.3577 102.428 77.4084 103.429Z" fill="#0E1318"/>
<path d="M78.0537 112.989C77.7046 113.107 77.3452 113.192 76.9803 113.243C76.7053 113.295 76.4261 113.321 76.1463 113.323C75.9578 113.333 75.769 113.333 75.5805 113.323C72.9406 113.156 71.4537 111.466 70.17 109.363C69.7971 108.57 69.2026 107.902 68.4584 107.441C67.5687 107.175 66.6123 107.25 65.7748 107.651C63.5338 108.492 61.7278 110.175 59.2909 110.552C58.287 110.679 57.2674 110.577 56.3089 110.253C55.3503 109.928 54.4778 109.391 53.7571 108.681C52.5096 107.607 51.5015 106.179 50.0654 105.352C48.1942 104.3 46.2143 105.555 44.5896 106.534C42.5734 107.745 40.325 108.92 37.8881 108.499C37.487 108.427 37.0969 108.303 36.7277 108.13C36.3941 106.519 36.0822 104.909 35.7776 103.292C36.2528 103.902 36.7741 104.474 37.3369 105.004C39.1646 106.548 41.6886 104.75 43.3494 103.771C45.3512 102.581 47.5995 101.53 49.9784 102.117C51.8279 102.567 53.2276 103.945 54.5186 105.25C55.592 106.345 56.8105 107.738 58.4859 107.644C59.6901 107.47 60.8373 107.018 61.8366 106.324C62.8408 105.718 63.8937 105.196 64.9843 104.764C67.1601 103.974 69.6043 104.141 71.2942 105.859C71.9579 106.601 72.5346 107.416 73.0131 108.289C73.381 109.047 73.9669 109.679 74.6957 110.102C75.0052 110.241 75.3365 110.325 75.6748 110.349C76.0438 110.383 76.4159 110.358 76.7772 110.276C77.1393 110.195 77.4918 110.076 77.8289 109.921C77.9014 110.973 77.9739 112.003 78.0537 112.989Z" fill="#0E1318"/>
<path d="M78.9315 122.399C78.6645 122.517 78.3908 122.619 78.1119 122.704C77.7459 122.827 77.3697 122.916 76.9878 122.972C76.5274 123.045 76.0604 123.067 75.5952 123.038C72.9553 122.878 71.4685 121.188 70.1847 119.092C69.7423 118.367 69.2709 117.504 68.4731 117.17C67.5842 116.898 66.6251 116.973 65.7896 117.381C63.5485 118.215 61.7425 119.905 59.3056 120.282C58.3013 120.406 57.2819 120.301 56.3237 119.976C55.3654 119.651 54.4931 119.113 53.7718 118.403C52.5243 117.323 51.5162 115.901 50.0802 115.081C48.209 114.015 46.229 115.277 44.6043 116.249C42.9797 117.221 40.978 118.287 38.9762 118.302C38.7297 117.279 38.4976 116.256 38.251 115.227C39.9481 115.727 41.9716 114.327 43.3279 113.5C45.3296 112.304 47.578 111.252 49.9569 111.832C51.8063 112.282 53.2061 113.674 54.4971 114.973C55.5705 116.061 56.7889 117.453 58.4643 117.373C59.6668 117.193 60.8125 116.741 61.8151 116.053C62.8177 115.444 63.8708 114.923 64.9627 114.494C67.1386 113.696 69.5827 113.856 71.2726 115.582C71.935 116.325 72.5116 117.14 72.9915 118.012C73.3554 118.773 73.9422 119.405 74.6742 119.825C75.3303 120.109 76.0615 120.17 76.7557 119.999C76.979 119.955 77.1976 119.889 77.4084 119.803C77.8203 119.649 78.2182 119.459 78.5979 119.237C78.6776 120.079 78.7574 120.869 78.83 121.602C78.8807 121.87 78.9025 122.138 78.9315 122.399Z" fill="#0E1318"/>
<g style="mix-blend-mode:multiply">
<path d="M120.454 66.2639C120.41 68.7734 120.323 71.232 120.2 73.6254L118.952 73.8575L115.326 74.5175L113.15 74.9164L107.892 75.8738L103.816 76.5991L99.6384 77.3606L94.3657 78.3252L89.1002 79.2898L87.4466 79.5872L83.2835 80.3487H83.211L79.708 80.987L76.9954 81.4802H75.6101C74.1016 81.4802 72.6148 81.4801 71.157 81.4439C67.5306 81.3641 64.1146 81.1393 60.8944 80.8129C58.7186 80.5953 56.6298 80.3342 54.6498 80.0296C50.4867 79.4131 46.7588 78.6516 43.5241 77.8538C39.4531 76.8747 35.4487 75.6368 31.5354 74.1476C31.4483 73.3426 31.3613 72.5448 31.2815 71.747C31.0857 69.9048 30.9044 68.0481 30.7375 66.1914L77.2565 73.0452L120.454 66.2639Z" fill="#8BD8AA"/>
</g>
<path d="M125.095 55.6173L103.09 61.492L96.7008 63.1964L77.0677 68.4401L57.217 63.4575L50.6097 61.7894L26.0303 55.6173C34.1533 55.0589 42.0298 54.2466 49.5653 53.1006C52.0941 52.7187 54.5867 52.2932 57.0429 51.8241C63.5306 50.6185 69.9298 48.9782 76.1974 46.9141C76.1974 46.9141 82.2679 48.7998 95.7072 51.2657C98.0571 51.696 100.629 52.1384 103.424 52.5929C109.516 53.5721 116.718 54.602 125.095 55.6173Z" fill="#00C878"/>
<path d="M28.3364 71.0008C26.7327 66.0354 25.9465 60.8425 26.0083 55.625L76.1753 63.3129L77.0167 77.6805C77.0167 77.6805 44.0603 76.8465 28.3364 71.0008Z" fill="#00C878"/>
<path d="M76.1748 63.3129L125.087 55.625C125.087 55.625 125.812 64.952 123.883 69.7896L77.0161 77.6805L76.1748 63.3129Z" fill="#004B2D"/>
<path d="M103.409 52.5812L83.3264 55.9537L76.5161 57.0996L57.028 60.3778C56.0126 81.1642 57.5357 103.169 60.9445 126.08C58.9862 125.812 57.0642 125.536 55.1423 125.224C52.0316 103.41 50.4491 81.4048 50.4062 59.3697L69.14 56.0045L75.9213 54.7932L95.6778 51.2539C98.0373 51.6842 100.614 52.1267 103.409 52.5812Z" fill="#F76E0C"/>
<path d="M103.133 59.0697C103.133 59.0697 104.316 103.522 101.937 124.866C100.211 125.2 98.4481 125.512 96.7002 125.788C97.7991 103.9 97.7991 81.9721 96.7002 60.0851L76.5086 57.0969L69.1544 56.0018L49.572 53.1007C52.1008 52.7187 54.5933 52.2932 57.0496 51.8242L75.9574 54.7978L83.348 55.9583L103.133 59.0697Z" fill="#F76E0C"/>
<path d="M76.2047 53.3031C75.8783 52.5778 75.5157 51.8526 75.2836 51.2869C73.833 47.4792 72.6363 43.5627 70.8667 39.7913C69.7207 37.3399 68.3427 34.8884 66.2322 33.3146C65.0563 32.4328 63.6329 31.9431 62.1634 31.9148C61.0457 31.895 59.9568 32.2699 59.0882 32.9737C58.0592 33.8871 57.3947 35.1414 57.217 36.5058C57.3041 36.426 57.3984 36.339 57.4926 36.2664C58.3298 35.588 59.3742 35.2169 60.4517 35.2148C61.9477 35.2246 63.4014 35.7126 64.6003 36.6073C66.7036 38.1594 68.0889 40.5963 69.2348 43.0115C70.4533 45.5935 71.4106 48.248 72.3462 50.8807C72.7669 52.0629 73.1948 53.2306 73.6517 54.3983C73.7217 54.5908 73.8016 54.7796 73.891 54.964L73.9491 55.0075C74.319 55.2468 76.9589 57.3646 76.9444 55.8343C76.87 54.9495 76.6185 54.0887 76.2047 53.3031Z" fill="#FB7280"/>
<path d="M73.8903 54.9679C72.5268 54.0541 71.1053 53.2055 69.6983 52.3279C66.9402 50.7167 64.3502 48.8337 61.9668 46.7071C60.0956 44.9447 58.3405 42.8994 57.5137 40.3537C57.1222 39.1119 57.0205 37.7969 57.2163 36.5097C57.3034 36.43 57.3976 36.3429 57.4919 36.2704C58.3291 35.5919 59.3735 35.2208 60.451 35.2188C60.2202 36.5422 60.3047 37.9014 60.6976 39.186C61.5027 41.7389 63.2724 43.7915 65.129 45.5611C67.3498 47.5733 69.7674 49.3569 72.3455 50.8846C72.7662 52.0668 73.1941 53.2345 73.651 54.4022C73.721 54.5947 73.8009 54.7836 73.8903 54.9679Z" fill="#64000A"/>
<path d="M75.6165 56.1762C76.5811 57.6267 77.7125 53.9423 77.9083 53.4782V53.4056C77.9083 53.1663 77.8213 52.9342 77.7705 52.7166C77.4587 51.3241 77.1105 49.9461 76.7552 48.5536C75.9719 45.4566 75.1596 42.338 74.6591 39.125C74.1949 36.0934 73.9338 32.8877 74.9347 30.0664C75.486 28.4413 76.5467 27.0374 77.9591 26.0629C78.9801 25.3744 80.2063 25.057 81.4332 25.1635C81.5719 25.1757 81.7099 25.1951 81.8466 25.2215C80.8128 24.0286 79.3787 23.2548 77.8141 23.0457C76.5407 22.9293 75.2675 23.2714 74.2239 24.0103C72.8471 24.983 71.8137 26.3667 71.2721 27.9631C70.2857 30.8207 70.5468 34.0408 71.0473 37.1088C71.7725 41.823 73.1868 46.298 74.2457 50.8382C74.4125 51.5634 74.5141 52.4483 74.6664 53.3331C74.7883 54.3351 75.1115 55.3022 75.6165 56.1762Z" fill="#FB7280"/>
<path d="M77.9457 53.4051C78.6709 51.6645 79.4397 49.9529 80.2085 48.2267C81.7844 44.931 83.026 41.4857 83.9147 37.9423C84.5529 35.0775 84.93 31.9878 84.067 29.0432C83.6435 27.6131 82.8993 26.2985 81.8911 25.1993C81.7544 25.1729 81.6164 25.1535 81.4777 25.1413C80.2509 25.0347 79.0247 25.3522 78.0037 26.0406C79.0731 27.1525 79.8635 28.5022 80.3101 29.9788C81.1876 32.9307 80.8323 36.0131 80.2013 38.8925C79.3898 42.2206 78.2478 45.4592 76.7925 48.5603C77.1479 49.9529 77.5177 51.3309 77.8079 52.7234C77.8586 52.912 77.9094 53.1658 77.9457 53.4051Z" fill="#64000A"/>
<path d="M75.8772 55.7549C75.8772 57.5029 78.8653 55.0877 79.2932 54.8121L79.3513 54.7686C79.46 54.5437 79.5543 54.3334 79.6341 54.1231C80.1563 52.7958 80.6422 51.4613 81.1354 50.1123C82.2233 47.1024 83.3113 44.0708 84.711 41.1117C86.0238 38.3412 87.6121 35.5488 90.0273 33.7719C91.3988 32.7438 93.0637 32.1821 94.7778 32.1691C96.0096 32.1684 97.2036 32.5938 98.1576 33.373C98.2665 33.4616 98.3707 33.5561 98.4694 33.6559C98.2773 32.0907 97.525 30.6479 96.3516 29.5944C95.3633 28.7843 94.119 28.3524 92.8413 28.3759C91.1564 28.4099 89.5248 28.9732 88.1778 29.986C85.7554 31.7919 84.1743 34.6133 82.8543 37.4201C80.8163 41.7717 79.4528 46.2248 77.7774 50.5692C77.5163 51.2945 77.0957 52.0561 76.7258 52.8756C76.2474 53.7666 75.9585 54.7469 75.8772 55.7549Z" fill="#FB7280"/>
<path d="M79.3521 54.7686C80.9186 53.7242 82.5287 52.7596 84.1389 51.7587C87.2951 49.917 90.2593 47.7643 92.9872 45.3328C95.1267 43.3238 97.1792 40.9811 98.1148 38.08C98.5687 36.6566 98.6903 35.1481 98.4702 33.6704C98.3714 33.5706 98.2673 33.4761 98.1584 33.3875C97.2044 32.6083 96.0104 32.1829 94.7786 32.1836C95.041 33.7044 94.9365 35.2659 94.474 36.7383C93.5456 39.6394 91.5149 42.0183 89.3971 44.0418C86.8601 46.3393 84.1001 48.3778 81.158 50.1268C80.6648 51.4758 80.1789 52.8103 79.6567 54.1376C79.5551 54.3624 79.4608 54.5437 79.3521 54.7686Z" fill="#64000A"/>
</g>
<defs>
<clipPath id="clip0_2055_33413">
<rect width="99.21" height="104.983" fill="white" transform="translate(26.001 23)"/>
</clipPath>
</defs>
</svg>
