<svg width="151" height="150" viewBox="0 0 151 150" fill="none" xmlns="http://www.w3.org/2000/svg">
<rect x="0.5" width="150" height="150" rx="75" fill="#F7A531" fill-opacity="0.05"/>
<g clip-path="url(#clip0_2006_19519)">
<path d="M90.6577 99.4441L34.6145 116.853C32.1747 117.605 29.8999 115.331 30.6521 112.891L48.0612 56.8477L90.6577 99.4441Z" fill="#C35A11"/>
<path d="M92.3799 98.4546C96.4634 94.3712 90.0751 81.3622 78.1112 69.3984C66.1473 57.4345 53.1384 51.0462 49.0549 55.1297C44.9714 59.2131 51.3598 72.2221 63.3236 84.1859C75.2875 96.1498 88.2964 102.538 92.3799 98.4546Z" fill="#F9D4BA"/>
<path d="M82.6202 101.941L71.7785 105.316C69.3754 104.454 67.0089 103.427 64.6791 102.216C59.616 99.5929 54.7546 96.1624 50.2235 91.9982C49.4897 91.3194 48.6825 90.549 47.8203 89.7051C45.6006 87.4854 43.0507 84.6603 40.4824 81.2849L42.7021 74.0938C46.7747 80.2209 51.1774 84.7704 54.2593 87.5955C62.918 95.5387 72.4573 100.363 82.6202 101.941Z" fill="#F9D4BA"/>
<path d="M64.5166 107.556L55.9679 110.216C51.0699 107.629 46.3736 104.272 41.9709 100.236C41.2371 99.5574 40.43 98.7869 39.5677 97.943C38.5588 96.9341 37.4765 95.7967 36.3574 94.5309L38.4487 87.7617C41.2371 91.2105 43.9154 93.9072 46.0067 95.8334C51.822 101.153 58.0042 105.079 64.5166 107.556Z" fill="#F9D4BA"/>
<path d="M49.0315 112.379L41.5285 114.709C38.8501 112.874 36.2268 110.783 33.732 108.49C33.31 108.105 32.8698 107.701 32.4111 107.243L34.4107 100.785C35.6215 102.051 36.7772 103.152 37.7678 104.069C41.3817 107.389 45.1424 110.159 49.0315 112.379Z" fill="#F9D4BA"/>
<path d="M63.1219 63.9481L60.4619 61.2881C64.6812 57.0688 67.0844 51.6571 67.6164 45.1814C68.0199 40.265 67.1394 36.541 67.121 36.5044L70.7716 35.6055C70.8083 35.7706 71.799 39.8431 71.377 45.3465C70.8083 52.7027 67.9466 59.1234 63.1219 63.9481Z" fill="#E56A14"/>
<path d="M84.2176 87.704L81.5576 85.044C86.7492 79.8524 94.1054 77.2291 102.819 77.486C109.295 77.6694 114.211 79.3571 114.413 79.4305L113.184 82.971L113.789 81.1916L113.184 82.971C113.129 82.9527 108.524 81.3934 102.599 81.2283C94.9126 81.0265 88.7121 83.2095 84.2176 87.704Z" fill="#A04A0E"/>
<path d="M71.2324 60.1522C72.5899 57.8958 74.3877 57.3087 75.6902 56.8685C76.7909 56.5016 77.4696 56.2814 78.1117 55.2174C78.7538 54.1534 78.6437 53.4563 78.4419 52.3006C78.2034 50.9431 77.8916 49.0903 79.2491 46.8339C80.6066 44.5775 82.4044 43.9905 83.7068 43.5502C84.8075 43.1833 85.4863 42.9632 86.1283 41.8992C86.7704 40.8352 86.6603 40.1381 86.4585 38.9824C86.2201 37.6248 85.9082 35.772 87.2657 33.5156L90.476 35.4418C89.834 36.5058 89.944 37.2029 90.1458 38.3586C90.3843 39.7161 90.6962 41.569 89.3387 43.8254C87.9812 46.0818 86.1834 46.6688 84.8809 47.1091C83.7802 47.476 83.1015 47.6961 82.4594 48.7601C81.8173 49.8241 81.9274 50.5212 82.1292 51.6769C82.3677 53.0344 82.6795 54.8872 81.322 57.1436C79.9645 59.4 78.1667 59.9871 76.8643 60.4273C75.7636 60.7942 75.0848 61.0144 74.4427 62.0784L71.2324 60.1522Z" fill="#A04A0E"/>
<path d="M86.7134 70.2234L84.8789 66.958C87.2454 65.6189 89.1532 66.0041 90.5474 66.2976C91.7582 66.5361 92.4736 66.6829 93.6477 66.0408C94.8034 65.3987 95.0602 64.7016 95.4822 63.5276C95.9591 62.1884 96.6379 60.3723 99.0043 59.0331C101.371 57.6939 103.279 58.0792 104.673 58.3544C105.884 58.5928 106.599 58.7396 107.773 58.0975C108.929 57.4555 109.186 56.74 109.608 55.5843C110.085 54.2451 110.763 52.429 113.13 51.0898L114.964 54.3552C113.809 54.9973 113.552 55.7127 113.13 56.8684C112.653 58.2076 111.974 60.0237 109.608 61.3629C107.241 62.7021 105.333 62.3168 103.939 62.0416C102.728 61.8032 102.013 61.6564 100.839 62.2985C99.6831 62.9405 99.4263 63.6376 99.0043 64.8117C98.5274 66.1509 97.8486 67.967 95.4822 69.3062C93.1157 70.6453 91.2078 70.2601 89.8136 69.9666C88.6029 69.7097 87.8691 69.563 86.7134 70.2234Z" fill="#E56A14"/>
<path d="M110.508 70.4611C111.541 70.4611 112.379 69.6233 112.379 68.5899C112.379 67.5565 111.541 66.7188 110.508 66.7188C109.474 66.7188 108.637 67.5565 108.637 68.5899C108.637 69.6233 109.474 70.4611 110.508 70.4611Z" fill="#F9D4BA"/>
<path d="M102.143 92.3634C103.176 92.3634 104.014 91.5257 104.014 90.4923C104.014 89.4588 103.176 88.6211 102.143 88.6211C101.109 88.6211 100.271 89.4588 100.271 90.4923C100.271 91.5257 101.109 92.3634 102.143 92.3634Z" fill="#E56A14"/>
<path d="M119.403 76.4415C120.437 76.4415 121.275 75.6038 121.275 74.5704C121.275 73.537 120.437 72.6992 119.403 72.6992C118.37 72.6992 117.532 73.537 117.532 74.5704C117.532 75.6038 118.37 76.4415 119.403 76.4415Z" fill="#C35A11"/>
<path d="M104.126 50.5548C105.159 50.5548 105.997 49.7171 105.997 48.6837C105.997 47.6502 105.159 46.8125 104.126 46.8125C103.093 46.8125 102.255 47.6502 102.255 48.6837C102.255 49.7171 103.093 50.5548 104.126 50.5548Z" fill="#F9D4BA"/>
<path d="M76.5333 36.7423C77.5667 36.7423 78.4044 35.9046 78.4044 34.8712C78.4044 33.8377 77.5667 33 76.5333 33C75.4999 33 74.6621 33.8377 74.6621 34.8712C74.6621 35.9046 75.4999 36.7423 76.5333 36.7423Z" fill="#E56A14"/>
<path d="M89.5372 52.9415C90.5706 52.9415 91.4083 52.1038 91.4083 51.0704C91.4083 50.037 90.5706 49.1992 89.5372 49.1992C88.5038 49.1992 87.666 50.037 87.666 51.0704C87.666 52.1038 88.5038 52.9415 89.5372 52.9415Z" fill="#A04A0E"/>
<path d="M75.3184 76.1642C76.3518 76.1642 77.1896 75.3265 77.1896 74.293C77.1896 73.2596 76.3518 72.4219 75.3184 72.4219C74.285 72.4219 73.4473 73.2596 73.4473 74.293C73.4473 75.3265 74.285 76.1642 75.3184 76.1642Z" fill="#C35A11"/>
<path d="M55.6915 45.6408C56.7249 45.6408 57.5626 44.803 57.5626 43.7696C57.5626 42.7362 56.7249 41.8984 55.6915 41.8984C54.6581 41.8984 53.8203 42.7362 53.8203 43.7696C53.8203 44.803 54.6581 45.6408 55.6915 45.6408Z" fill="#C35A11"/>
</g>
<defs>
<clipPath id="clip0_2006_19519">
<rect width="90.7697" height="84.0005" fill="white" transform="translate(30.5 33)"/>
</clipPath>
</defs>
</svg>
