<svg width="84" height="84" viewBox="0 0 84 84" fill="none" xmlns="http://www.w3.org/2000/svg">
<path d="M28 35V28C28 18.3365 32.3365 10.5 42 10.5C51.6635 10.5 56 18.3365 56 28V35M12.25 62.3V46.2C12.25 42.28 12.25 40.32 13.013 38.8255C13.6835 37.5071 14.7544 36.435 16.072 35.763C17.57 35.0035 19.53 35.0035 23.45 35.0035H60.55C64.47 35.0035 66.43 35.0035 67.928 35.763C69.2451 36.4341 70.3159 37.5049 70.987 38.822C71.75 40.32 71.75 42.28 71.75 46.2V62.3C71.75 66.22 71.75 68.18 70.987 69.678C70.3159 70.9951 69.2451 72.0659 67.928 72.737C66.43 73.5 64.47 73.5 60.55 73.5H23.45C19.53 73.5 17.57 73.5 16.072 72.737C14.7549 72.0659 13.6841 70.9951 13.013 69.678C12.25 68.1835 12.25 66.2235 12.25 62.3Z" stroke="#0E1318" stroke-width="3" stroke-linecap="round" stroke-linejoin="round"/>
</svg>
