<svg width="37" height="28" viewBox="0 0 37 28" fill="none" xmlns="http://www.w3.org/2000/svg">
<path d="M13.127 5.37891H22.8566V22.8615H13.127V5.37891Z" fill="#FF5F00"/>
<path d="M13.7452 14.1197C13.7452 10.5676 15.4131 7.41696 17.9767 5.37831C16.0927 3.89572 13.7144 3 11.1198 3C4.97288 3 0 7.97288 0 14.1197C0 20.2664 4.97288 25.2393 11.1197 25.2393C13.7142 25.2393 16.0925 24.3436 17.9767 22.8609C15.4131 20.8532 13.7452 17.6717 13.7452 14.1197Z" fill="#EB001B"/>
<path d="M35.9845 14.1197C35.9845 20.2663 31.0116 25.2393 24.8649 25.2393C22.2703 25.2393 19.892 24.3436 18.0078 22.8609C20.6024 20.8224 22.2395 17.6717 22.2395 14.1197C22.2395 10.5676 20.5714 7.41696 18.0078 5.37831C19.8918 3.89572 22.2703 3 24.8649 3C31.0116 3 35.9845 8.00384 35.9845 14.1197Z" fill="#F79E1B"/>
</svg>
