<svg width="41" height="41" viewBox="0 0 41 41" fill="none" xmlns="http://www.w3.org/2000/svg">
<rect x="0.140625" y="0.503906" width="40.096" height="40.066" rx="20" fill="#D3F1CC" fill-opacity="0.2"/>
<path d="M20.1647 21.5259C20.717 21.5259 21.1647 21.0782 21.1647 20.5259C21.1647 19.9736 20.717 19.5259 20.1647 19.5259C19.6124 19.5259 19.1647 19.9736 19.1647 20.5259C19.1647 21.0782 19.6124 21.5259 20.1647 21.5259Z" fill="#9CA3AF"/>
<path d="M24.1647 21.5259C24.717 21.5259 25.1647 21.0782 25.1647 20.5259C25.1647 19.9736 24.717 19.5259 24.1647 19.5259C23.6124 19.5259 23.1647 19.9736 23.1647 20.5259C23.1647 21.0782 23.6124 21.5259 24.1647 21.5259Z" fill="#9CA3AF"/>
<path d="M16.1647 21.5259C16.717 21.5259 17.1647 21.0782 17.1647 20.5259C17.1647 19.9736 16.717 19.5259 16.1647 19.5259C15.6124 19.5259 15.1647 19.9736 15.1647 20.5259C15.1647 21.0782 15.6124 21.5259 16.1647 21.5259Z" fill="#9CA3AF"/>
<path d="M27.2347 13.4559C25.5939 11.8044 23.4283 10.7771 21.1113 10.5511C18.7943 10.3252 16.471 10.9147 14.5421 12.218C12.6131 13.5214 11.1993 15.4569 10.5444 17.6909C9.88956 19.9249 10.0346 22.3174 10.9547 24.4559C11.0506 24.6547 11.082 24.8784 11.0447 25.0959L10.1647 29.3259C10.1308 29.4881 10.1377 29.6561 10.1848 29.815C10.2319 29.9738 10.3178 30.1185 10.4347 30.2359C10.5305 30.331 10.6445 30.4057 10.77 30.4556C10.8955 30.5054 11.0297 30.5293 11.1647 30.5259H11.3647L15.6447 29.6659C15.8622 29.6397 16.0828 29.6708 16.2847 29.7559C18.4232 30.6759 20.8157 30.821 23.0497 30.1661C25.2837 29.5113 27.2192 28.0975 28.5225 26.1685C29.8259 24.2396 30.4154 21.9163 30.1894 19.5993C29.9635 17.2823 28.9362 15.1167 27.2847 13.4759L27.2347 13.4559ZM28.0647 21.8159C27.8692 23.0099 27.4054 24.144 26.7082 25.1328C26.0111 26.1216 25.0987 26.9395 24.0398 27.5248C22.9809 28.11 21.8031 28.4475 20.5949 28.5118C19.3867 28.5761 18.1797 28.3655 17.0647 27.8959C16.6689 27.7287 16.2443 27.6404 15.8147 27.6359C15.6269 27.6371 15.4396 27.6538 15.2547 27.6859L12.4347 28.2559L13.0047 25.4359C13.1176 24.8252 13.0444 24.1946 12.7947 23.6259C12.3251 22.5109 12.1145 21.3039 12.1788 20.0957C12.243 18.8875 12.5805 17.7096 13.1658 16.6508C13.7511 15.5919 14.5689 14.6795 15.5578 13.9824C16.5466 13.2852 17.6807 12.8214 18.8747 12.6259C20.1279 12.4202 21.4122 12.5159 22.6211 12.905C23.8301 13.294 24.9291 13.9654 25.8271 14.8634C26.7252 15.7615 27.3965 16.8605 27.7856 18.0694C28.1747 19.2784 28.2704 20.5626 28.0647 21.8159Z" fill="#9CA3AF"/>
</svg>
