<svg width="44" height="46" viewBox="0 0 44 46" fill="none" xmlns="http://www.w3.org/2000/svg">
<rect x="0.236572" y="0.570312" width="42.9166" height="45" rx="20" fill="#D3F1CC" fill-opacity="0.2"/>
<path d="M20.6532 35.5703C18.5002 35.5703 16.7469 33.8182 16.7469 31.6641C16.7469 31.2328 17.0969 30.8828 17.5282 30.8828C17.9594 30.8828 18.3094 31.2328 18.3094 31.6641C18.3094 32.9569 19.3615 34.0078 20.6532 34.0078C21.9448 34.0078 22.9969 32.9569 22.9969 31.6641C22.9969 31.2328 23.3469 30.8828 23.7782 30.8828C24.2094 30.8828 24.5594 31.2328 24.5594 31.6641C24.5594 33.8182 22.8064 35.5703 20.6532 35.5703Z" fill="#C03744"/>
<path d="M29.2469 32.4453H12.0594C11.0543 32.4453 10.2366 31.6276 10.2366 30.6225C10.2366 30.089 10.4689 29.5839 10.874 29.237C10.9001 29.2141 10.9282 29.1933 10.9574 29.1744C12.4865 27.84 13.3616 25.9203 13.3616 23.8931V20.9869C13.3616 16.9662 16.6334 13.6953 20.6532 13.6953C20.8199 13.6953 21.0001 13.6984 21.1668 13.7266C21.5927 13.7974 21.8804 14.2006 21.8094 14.6255C21.7386 15.0505 21.3282 15.3381 20.9105 15.2672C20.8271 15.2536 20.7356 15.2578 20.6532 15.2578C17.495 15.2578 14.9241 17.8276 14.9241 20.9869V23.8931C14.9241 26.4099 13.8209 28.7912 11.9002 30.4254C11.8845 30.438 11.871 30.4495 11.8542 30.4609C11.8262 30.4964 11.7991 30.5506 11.7991 30.6225C11.7991 30.764 11.9179 30.8828 12.0594 30.8828H29.2469C29.3886 30.8828 29.5075 30.764 29.5075 30.6225C29.5075 30.5494 29.4804 30.4964 29.4512 30.4609C29.4356 30.4495 29.422 30.438 29.4064 30.4254C27.4845 28.7901 26.3825 26.4099 26.3825 23.8931V22.7579C26.3825 22.3266 26.7325 21.9766 27.1637 21.9766C27.595 21.9766 27.945 22.3266 27.945 22.7579V23.8931C27.945 25.9214 28.821 27.8421 30.3522 29.1776C30.3803 29.1963 30.4074 29.2162 30.4323 29.2381C30.8377 29.5839 31.07 30.089 31.07 30.6225C31.07 31.6276 30.2523 32.4453 29.2469 32.4453Z" fill="#C03744"/>
<path d="M27.945 20.9869C25.0731 20.9869 22.7366 18.6506 22.7366 15.7787C22.7366 12.9068 25.0731 10.5703 27.945 10.5703C30.8169 10.5703 33.1532 12.9068 33.1532 15.7787C33.1532 18.6506 30.8169 20.9869 27.945 20.9869ZM27.945 12.1328C25.9344 12.1328 24.2991 13.7682 24.2991 15.7787C24.2991 17.7891 25.9344 19.4244 27.945 19.4244C29.9553 19.4244 31.5907 17.7891 31.5907 15.7787C31.5907 13.7682 29.9553 12.1328 27.945 12.1328Z" fill="#C03744"/>
</svg>
