<svg width="150" height="150" viewBox="0 0 150 150" fill="none" xmlns="http://www.w3.org/2000/svg">
<rect width="150" height="150" rx="75" fill="#F7A531" fill-opacity="0.05"/>
<g clip-path="url(#clip0_2006_19244)">
<path d="M78.5369 101.491C78.9256 99.8235 78.8766 97.7421 80.1361 96.445C81.3462 95.199 83.33 94.7483 84.8958 94.164C88.7805 92.7159 92.6938 90.8856 95.7966 88.0808C101.731 82.7099 103.435 74.4633 98.2798 67.9199C96.0816 65.1297 93.2347 63.2407 90.069 61.9668H90.0657C88.4918 61.7541 86.8934 61.7092 85.3077 61.7492C85.1293 61.7537 84.9505 61.7619 84.7717 61.7684C82.433 61.8539 80.104 62.1141 77.8041 62.5466L77.4697 62.6107C76.6887 62.7593 75.9068 62.9075 75.1152 62.9185C75.0895 62.9185 75.0638 62.9185 75.038 62.9185C74.9233 62.9185 74.8086 62.9157 74.6943 62.91C74.6645 62.91 74.6347 62.9055 74.6049 62.9038C73.9684 62.865 73.3364 62.7503 72.706 62.6311C72.5721 62.6054 72.4382 62.5797 72.3046 62.5548C71.7437 62.4502 71.1815 62.3562 70.6181 62.2726C68.7446 61.9907 66.8563 61.8181 64.9627 61.7558L64.6663 61.748C62.9736 61.7043 61.2678 61.7586 59.5935 62.0126C59.403 62.0414 59.2138 62.0729 59.026 62.1069C57.9661 62.2934 56.9258 62.5781 55.9186 62.9573C55.2544 63.2119 54.6101 63.5159 53.9912 63.8665C51.9788 65.0028 50.2049 66.6603 49.0544 68.8034C48.9939 68.9156 48.9319 69.0263 48.8755 69.141C47.8581 71.1987 47.4731 73.4932 47.3825 75.8538C47.3008 77.936 47.4507 80.0713 47.5968 82.1412C48.0798 88.9818 48.5289 96.2442 52.1058 101.822C52.2915 102.112 52.4867 102.394 52.6868 102.669C52.7051 102.694 52.7243 102.719 52.7423 102.744C52.9181 102.984 53.0991 103.219 53.2853 103.449C53.3261 103.501 53.3694 103.551 53.4118 103.602C53.5768 103.803 53.7455 103.998 53.9181 104.19C53.9725 104.252 54.027 104.312 54.0814 104.372C54.2492 104.555 54.4203 104.732 54.5942 104.907C54.635 104.948 54.6759 104.993 54.7167 105.034L54.7755 105.089C54.8665 105.178 54.9596 105.264 55.0523 105.352C55.145 105.439 55.2336 105.522 55.3254 105.605C55.4479 105.717 55.5741 105.827 55.7002 105.936C55.7243 105.956 55.748 105.977 55.7721 105.999C55.7962 106.021 55.8149 106.034 55.8362 106.052C56.0183 106.206 56.2025 106.357 56.389 106.505C56.4445 106.549 56.4996 106.592 56.5555 106.636C56.7276 106.769 56.9012 106.899 57.0765 107.027C57.1455 107.077 57.2145 107.127 57.2839 107.177C57.4501 107.295 57.6183 107.41 57.7873 107.523C57.8653 107.575 57.9433 107.628 58.0221 107.679C58.1878 107.788 58.3556 107.893 58.5242 107.996C58.6059 108.046 58.6875 108.097 58.7692 108.146C58.9431 108.251 59.1191 108.35 59.2955 108.45C59.3718 108.494 59.4473 108.538 59.5241 108.58C59.7246 108.69 59.9266 108.796 60.1296 108.9C60.1814 108.927 60.2333 108.955 60.2855 108.981C60.8076 109.245 61.3364 109.489 61.8721 109.713C68.4089 110.251 76.8957 108.543 78.5369 101.491Z" fill="#F7A531"/>
<path d="M102.64 76.8982C102.637 76.5006 102.631 76.1037 102.613 75.7093C102.506 73.3414 102.095 71.0473 101.049 68.9949C100.421 67.7714 99.5839 66.6675 98.5749 65.7332C97.2775 64.521 95.7428 63.5984 94.1395 62.9802C93.6495 62.7924 93.155 62.6291 92.6558 62.4903L92.6329 62.4838C92.4786 62.4429 92.3239 62.4021 92.1683 62.3613L92.1161 62.3478C91.9658 62.3113 91.8153 62.2768 91.6645 62.2441L91.5963 62.229C91.4469 62.1972 91.2972 62.1672 91.1472 62.1392L91.0762 62.1253C90.9232 62.0981 90.7701 62.0717 90.6169 62.0461L90.5626 62.0371L90.4107 62.0134V57.9883H84.7708V61.7685C84.9497 61.7619 85.1285 61.7538 85.3069 61.7493C86.8894 61.7085 88.4849 61.7542 90.0559 61.9657L90.1458 61.9987C93.2796 63.2709 96.0988 65.1531 98.2773 67.9187C103.433 74.4621 101.729 82.7088 95.7942 88.0796C92.6889 90.8848 88.7776 92.7151 84.8933 94.1628C83.3276 94.7471 81.3438 95.1978 80.1337 96.4439C78.8742 97.7409 78.9232 99.8223 78.5345 101.49C76.8953 108.542 68.4093 110.25 61.8721 109.713L61.8794 109.716C62.1391 109.826 62.3987 109.932 62.6584 110.03C62.9703 110.15 63.2835 110.263 63.5974 110.374C63.6819 110.404 63.7665 110.433 63.8514 110.461C64.0879 110.543 64.3247 110.622 64.5618 110.697C64.652 110.726 64.7418 110.755 64.8316 110.783C65.1403 110.88 65.4496 110.972 65.7596 111.06C65.8005 111.071 65.8442 111.082 65.8862 111.094C66.1562 111.169 66.4266 111.24 66.6974 111.308C66.804 111.335 66.911 111.361 67.0175 111.387C67.2374 111.44 67.4576 111.491 67.6781 111.539C67.7806 111.562 67.8822 111.585 67.9847 111.607C68.2901 111.671 68.5959 111.732 68.9021 111.789C68.9719 111.801 69.0417 111.812 69.1111 111.825C69.3591 111.869 69.6072 111.909 69.8554 111.947C69.9657 111.964 70.0759 111.98 70.1861 111.996C70.4109 112.029 70.6363 112.059 70.8622 112.087C70.9586 112.099 71.0549 112.111 71.1513 112.123C71.4624 112.158 71.7739 112.191 72.0854 112.217C72.154 112.224 72.2226 112.228 72.2895 112.233C72.544 112.254 72.7985 112.272 73.053 112.287C73.1522 112.293 73.2514 112.297 73.3506 112.302C73.6024 112.315 73.8543 112.325 74.1064 112.331C74.177 112.331 74.2476 112.336 74.3187 112.338C74.6431 112.344 74.9675 112.346 75.292 112.344C75.3422 112.344 75.3924 112.342 75.4422 112.341C75.7228 112.337 76.0032 112.33 76.2833 112.319C76.358 112.317 76.4327 112.313 76.5074 112.31C76.8087 112.297 77.11 112.28 77.4113 112.258L77.4799 112.254C77.8248 112.228 78.1696 112.197 78.5145 112.161L78.5663 112.155C78.8889 112.121 79.211 112.082 79.5327 112.038L79.5927 112.031L79.6413 112.023C80.3697 111.922 81.0954 111.798 81.8186 111.649L82.0183 111.608C82.7385 111.456 83.4559 111.279 84.1707 111.077L84.2213 111.064C85.8981 109.878 87.2866 108.334 88.195 106.355C88.9124 104.793 89.2676 103.089 89.5831 101.408C89.9138 99.6317 90.6581 98.6477 92.2839 97.8724C95.1871 96.4912 97.8433 95.3628 100.082 92.9572C100.594 92.4072 101.07 91.8249 101.508 91.2139C101.512 91.1861 101.516 91.1584 101.52 91.1322C101.554 90.9171 101.584 90.7003 101.615 90.4843C101.642 90.2949 101.669 90.1058 101.697 89.916C101.72 89.7355 101.743 89.5551 101.765 89.3742C101.792 89.1546 101.819 88.9347 101.844 88.7145C101.864 88.5403 101.883 88.3658 101.902 88.191C101.925 87.9768 101.947 87.7624 101.968 87.5476C101.988 87.3511 102.007 87.1547 102.026 86.9585C102.041 86.7911 102.056 86.6234 102.071 86.4555C102.094 86.1983 102.117 85.9411 102.138 85.6838C102.142 85.643 102.145 85.6022 102.149 85.5585C102.238 84.4701 102.315 83.3845 102.394 82.3087C102.522 80.5306 102.65 78.702 102.64 76.8982Z" fill="#E56A14"/>
<path d="M100.083 92.9604C97.8443 95.366 95.188 96.4944 92.2852 97.8756C90.6595 98.6513 89.9172 99.6349 89.5845 101.412C89.2689 103.091 88.9137 104.797 88.1964 106.358C87.288 108.337 85.8994 109.881 84.2227 111.067L84.3092 111.042C84.517 110.983 84.7248 110.919 84.9318 110.858C85.0431 110.825 85.1546 110.79 85.2662 110.755C85.4099 110.71 85.552 110.663 85.6973 110.615C85.8427 110.568 85.986 110.521 86.1301 110.471C86.2461 110.43 86.362 110.389 86.478 110.348C86.6355 110.292 86.7931 110.237 86.9503 110.179C87.1447 110.106 87.3386 110.031 87.5321 109.954C87.6011 109.927 87.6701 109.903 87.7387 109.875C90.1863 108.899 92.5453 107.527 94.5695 105.719C95.8126 104.615 96.9036 103.351 97.8136 101.959C98.0464 101.601 98.2663 101.236 98.4734 100.865C98.4873 100.84 98.4999 100.815 98.5142 100.791C98.602 100.632 98.6886 100.473 98.7719 100.312C98.7988 100.26 98.8241 100.207 98.8506 100.155C98.9188 100.021 98.9866 99.8864 99.0519 99.7504C99.0858 99.6802 99.1181 99.6087 99.1511 99.5377C99.2063 99.4197 99.2614 99.3017 99.3144 99.1829C99.3528 99.0968 99.3896 99.0094 99.4267 98.9228C99.4716 98.8179 99.5174 98.7134 99.5606 98.6081C99.6015 98.5093 99.6423 98.4092 99.6803 98.3096C99.7182 98.21 99.7554 98.1214 99.7917 98.0263C99.8325 97.9165 99.8734 97.8058 99.9142 97.6948C99.9456 97.6098 99.9771 97.5245 100.007 97.4388C100.048 97.3192 100.089 97.1987 100.13 97.0783C100.156 97.0003 100.183 96.9227 100.209 96.8443C100.25 96.717 100.291 96.589 100.331 96.4606C100.354 96.3882 100.376 96.3156 100.398 96.2429C100.439 96.109 100.478 95.9748 100.517 95.8404C100.536 95.7721 100.556 95.704 100.575 95.6363C100.614 95.4974 100.652 95.3582 100.688 95.2186C100.706 95.1527 100.723 95.087 100.74 95.0214C100.777 94.8807 100.812 94.7391 100.846 94.5968C100.863 94.5298 100.879 94.4627 100.895 94.3955C100.928 94.2564 100.96 94.1165 100.992 93.9758C101.008 93.9037 101.024 93.8311 101.04 93.7582C101.069 93.6248 101.097 93.4909 101.125 93.3565C101.143 93.2721 101.16 93.1874 101.177 93.1025C101.201 92.9822 101.224 92.8618 101.248 92.7412C101.268 92.6348 101.288 92.5282 101.307 92.4215C101.318 92.3611 101.33 92.299 101.341 92.2402C101.345 92.2166 101.348 92.1925 101.353 92.1688C101.408 91.8528 101.462 91.5368 101.51 91.2188C101.072 91.8292 100.596 92.411 100.083 92.9604Z" fill="#C35A11"/>
<path d="M70.3585 67.7088C69.9657 66.3521 68.7813 65.3196 67.4499 64.8472C66.1186 64.3749 64.6569 64.3981 63.2623 64.6264C62.7347 64.7122 62.2121 64.8267 61.697 64.9693C58.4022 65.8798 55.4206 67.9191 53.409 70.6851C51.0819 73.8831 50.073 78.0136 50.6687 81.9245C50.832 82.9962 51.1227 84.0781 51.7629 84.953C52.4031 85.828 53.4482 86.4636 54.5289 86.382C55.5088 86.3085 56.3727 85.6638 56.9377 84.8624C57.5028 84.0609 57.8159 83.1113 58.1005 82.1723C58.6762 80.2705 59.1918 78.301 60.3366 76.6769C61.3765 75.2014 62.8601 74.1379 64.4467 73.316C66.7599 72.1186 71.4526 71.4907 70.3585 67.7088Z" fill="#FCEADD"/>
<path d="M78.8556 93.1203C78.8536 93.0736 78.8489 93.0271 78.8413 92.9811L77.5148 84.6617L77.5401 84.636C77.5699 84.6074 77.5985 84.578 77.6275 84.5482C77.6757 84.4984 77.7224 84.4471 77.7676 84.3943C77.7937 84.3637 77.8198 84.3334 77.8451 84.302C77.8929 84.2432 77.9374 84.182 77.9815 84.1199C78.0007 84.093 78.0223 84.0668 78.0395 84.0383C78.0995 83.948 78.1566 83.855 78.2089 83.7594L78.226 83.7243C78.2712 83.6394 78.3131 83.5524 78.3518 83.4634C78.3665 83.4299 78.3787 83.3952 78.3926 83.3609C78.42 83.2919 78.4461 83.2225 78.4694 83.1519C78.482 83.1111 78.4939 83.0727 78.5053 83.0327C78.5254 82.9638 78.5434 82.894 78.5592 82.8232C78.5686 82.7824 78.5776 82.7416 78.5853 82.7008C78.6 82.6252 78.611 82.5481 78.6208 82.4709C78.6253 82.4346 78.6311 82.3986 78.6347 82.3619C78.6453 82.2476 78.6523 82.132 78.6523 82.0153C78.6503 81.4245 78.506 80.843 78.2318 80.3197C78.1447 80.1543 78.0452 79.9957 77.9341 79.8453C77.879 79.7702 77.8206 79.6975 77.7598 79.6273C77.1358 78.9026 76.2515 78.4529 75.2983 78.3755C75.1998 78.3674 75.1004 78.3633 75.0003 78.3633C74.8851 78.3633 74.7716 78.3702 74.6594 78.3804C74.6247 78.3837 74.5904 78.389 74.5557 78.3931C74.4773 78.4026 74.3997 78.4145 74.323 78.4286C74.2854 78.4355 74.2482 78.4429 74.2111 78.4511C74.1335 78.4682 74.0572 78.4882 73.9816 78.5103C73.951 78.5192 73.92 78.527 73.8898 78.5364C73.7865 78.5695 73.6856 78.6062 73.5852 78.6478L73.5444 78.6679C73.4595 78.705 73.3766 78.7446 73.2957 78.7879C73.2639 78.8046 73.2333 78.8226 73.2023 78.8401C73.1382 78.8765 73.0757 78.9144 73.014 78.9545C72.983 78.9749 72.9516 78.9953 72.921 79.0165L72.8642 79.0545H72.8732C73.414 78.9111 73.9805 78.8937 74.529 79.0039C75.0775 79.114 75.5934 79.3487 76.0369 79.6898C76.4804 80.0308 76.8396 80.4692 77.0869 80.9711C77.3341 81.473 77.4628 82.0249 77.463 82.5844C77.463 83.8023 76.9731 84.8503 76.054 85.5134L77.0249 91.6191C77.053 91.7952 77.0425 91.9753 76.9942 92.147C76.9459 92.3186 76.8609 92.4778 76.7451 92.6134C76.6293 92.7491 76.4855 92.858 76.3235 92.9327C76.1616 93.0074 75.9854 93.046 75.807 93.046H71.1515V93.0835C71.1515 93.1064 71.1486 93.1285 71.1478 93.1509C71.147 93.1734 71.1478 93.1966 71.1478 93.2191C71.1478 93.2415 71.1478 93.2632 71.1515 93.2852C71.1552 93.3073 71.1564 93.3297 71.1597 93.3514C71.1629 93.373 71.1658 93.3946 71.1703 93.4159C71.1748 93.4371 71.1797 93.4567 71.185 93.48C71.1903 93.5032 71.196 93.5208 71.2021 93.542C71.2082 93.5633 71.2164 93.5829 71.2238 93.6037C71.2311 93.6245 71.2389 93.6445 71.247 93.6633C71.2552 93.6821 71.2654 93.7041 71.2752 93.7221L71.3042 93.778L71.3385 93.8339L71.3724 93.8862L71.4132 93.9385L71.454 93.9866L71.4998 94.0344L71.543 94.0781L71.5941 94.1218L71.641 94.1626L71.6978 94.2014L71.7476 94.2345C71.7676 94.2467 71.7884 94.2569 71.8096 94.2679L71.8619 94.2953C71.8839 94.3055 71.9068 94.3141 71.9297 94.3231L71.9832 94.3443C72.0072 94.3525 72.0326 94.3586 72.0575 94.3655L72.1105 94.3802C72.1387 94.3863 72.1673 94.3904 72.1959 94.3945L72.244 94.4023C72.287 94.407 72.3302 94.4094 72.3735 94.4096H77.6279C77.7947 94.4104 77.9599 94.3772 78.1134 94.3121C78.2669 94.2469 78.4055 94.1512 78.5208 94.0307C78.636 93.9102 78.7255 93.7675 78.7838 93.6112C78.8421 93.455 78.8679 93.2885 78.8597 93.1219L78.8556 93.1203Z" fill="#DB5F12"/>
<path d="M64.6637 52.4972C64.6637 47.3779 69.1731 43.2131 74.7162 43.2131C80.2593 43.2131 84.7691 47.3775 84.7691 52.4972V57.986H90.4094V52.4972C90.4094 44.4595 83.3695 37.9219 74.7162 37.9219C66.0629 37.9219 59.0234 44.4583 59.0234 52.4972V57.986H64.6637V52.4972Z" fill="#F7A531"/>
<path d="M64.6637 61.7493V57.9883H59.0234V62.1082C59.211 62.0741 59.4 62.0427 59.5905 62.0138C61.2644 61.7599 62.971 61.7056 64.6637 61.7493Z" fill="#E56A14"/>
<path d="M76.0516 85.5145C76.9686 84.8515 77.4606 83.8035 77.4606 82.5856C77.4606 82.106 77.3662 81.6311 77.1827 81.1881C76.9992 80.745 76.7303 80.3424 76.3912 80.0033C76.0521 79.6641 75.6495 79.3951 75.2065 79.2116C74.7634 79.0281 74.2885 78.9336 73.809 78.9336C73.4893 78.9337 73.171 78.9749 72.8618 79.0561C72.4268 79.3699 72.0663 79.7758 71.8061 80.2448C71.5459 80.7139 71.3924 81.2346 71.3564 81.7698C71.3205 82.305 71.403 82.8415 71.5981 83.3412C71.7933 83.8408 72.0962 84.2913 72.4854 84.6604L71.1593 92.9818C71.1556 93.0035 71.1548 93.0251 71.1523 93.0468H75.8066C75.985 93.0468 76.1612 93.0081 76.3232 92.9335C76.4851 92.8588 76.6289 92.7499 76.7447 92.6142C76.8605 92.4786 76.9455 92.3194 76.9938 92.1477C77.0421 91.9761 77.0526 91.796 77.0245 91.6198L76.0516 85.5145Z" fill="#E56A14"/>
</g>
<defs>
<clipPath id="clip0_2006_19244">
<rect width="55.2809" height="74.4244" fill="white" transform="translate(47.3594 37.9219)"/>
</clipPath>
</defs>
</svg>
