<svg width="98" height="98" viewBox="0 0 98 98" fill="none" xmlns="http://www.w3.org/2000/svg">
<rect width="97.9986" height="97.9986" rx="48.9993" fill="#D8F5FF"/>
<g clip-path="url(#clip0_2944_24554)">
<mask id="mask0_2944_24554" style="mask-type:luminance" maskUnits="userSpaceOnUse" x="22" y="23" width="54" height="52">
<path d="M22.9987 23H75.8625V75H22.9987V23Z" fill="white"/>
</mask>
<g mask="url(#mask0_2944_24554)">
<path d="M70.3702 23H25.7449C24.2345 23 22.9987 24.2381 22.9987 25.7513V30.7037C22.9987 32.217 24.2345 33.455 25.7449 33.455H70.2329C71.7433 33.455 72.979 32.217 72.979 30.7037V25.7513C73.1163 24.2381 71.8805 23 70.3702 23ZM70.3702 50.6508H25.7449C24.2345 50.6508 22.9987 51.8889 22.9987 53.4021V58.3545C22.9987 59.8677 24.2345 61.1058 25.7449 61.1058H70.2329C71.7433 61.1058 72.979 59.8677 72.979 58.3545V53.4021C73.1163 51.8889 71.8805 50.6508 70.3702 50.6508ZM50.8724 64.545H25.7449C24.2345 64.545 22.9987 65.783 22.9987 67.2963V72.2487C22.9987 73.7619 24.2345 75 25.7449 75H50.8724C52.3828 75 53.6185 73.7619 53.6185 72.2487V67.2963C53.6185 65.783 52.3828 64.545 50.8724 64.545ZM73.1163 36.8942H25.7449C24.2345 36.8942 22.9987 38.1323 22.9987 39.6454V44.5979C22.9987 46.1111 24.2345 47.3492 25.7449 47.3492H73.1163C74.6268 47.3492 75.8625 46.1111 75.8625 44.5979V39.6454C75.8625 38.1323 74.6268 36.8942 73.1163 36.8942Z" fill="#0BA4DB"/>
</g>
</g>
<defs>
<clipPath id="clip0_2944_24554">
<rect width="52.8638" height="52" fill="white" transform="translate(23 23)"/>
</clipPath>
</defs>
</svg>
