<svg width="64" height="64" viewBox="0 0 64 64" fill="none" xmlns="http://www.w3.org/2000/svg">
<rect width="64" height="64" rx="32" fill="#9CA3AF" fill-opacity="0.4"/>
<path d="M43.9568 27.5859L42.5282 30.0574L25.1997 20.0574L26.6282 17.5859L30.9711 20.0859L32.9139 19.5574L39.0996 23.1288L39.6282 25.0859L43.9568 27.5859ZM23.4282 42.0002V24.8574H30.6711L40.5711 30.5717V42.0002C40.5711 42.758 40.2701 43.4847 39.7342 44.0205C39.1984 44.5563 38.4717 44.8574 37.7139 44.8574H26.2854C25.5276 44.8574 24.8009 44.5563 24.2651 44.0205C23.7292 43.4847 23.4282 42.758 23.4282 42.0002ZM26.2854 42.0002H37.7139V32.2859L29.7997 27.7145H26.2854V42.0002Z" fill="white"/>
</svg>
