<svg width="64" height="64" viewBox="0 0 64 64" fill="none" xmlns="http://www.w3.org/2000/svg">
<rect width="64" height="64" rx="32" fill="white"/>
<path d="M32 51.7852C20.954 51.7852 12 42.8312 12 31.7852C12 20.7392 20.954 11.7852 32 11.7852C43.046 11.7852 52 20.7412 52 31.7852C52 42.8292 43.046 51.7852 32 51.7852ZM32 21.7852C31.4696 21.7852 30.9609 21.9959 30.5858 22.3709C30.2107 22.746 30 23.2547 30 23.7852V33.7852C30 34.3156 30.2107 34.8243 30.5858 35.1994C30.9609 35.5744 31.4696 35.7852 32 35.7852C32.5304 35.7852 33.0391 35.5744 33.4142 35.1994C33.7893 34.8243 34 34.3156 34 33.7852V23.7852C34 23.2547 33.7893 22.746 33.4142 22.3709C33.0391 21.9959 32.5304 21.7852 32 21.7852ZM32 41.7852C32.5304 41.7852 33.0391 41.5744 33.4142 41.1994C33.7893 40.8243 34 40.3156 34 39.7852C34 39.2547 33.7893 38.746 33.4142 38.3709C33.0391 37.9959 32.5304 37.7852 32 37.7852C31.4696 37.7852 30.9609 37.9959 30.5858 38.3709C30.2107 38.746 30 39.2547 30 39.7852C30 40.3156 30.2107 40.8243 30.5858 41.1994C30.9609 41.5744 31.4696 41.7852 32 41.7852Z" fill="#E56A14"/>
</svg>
