<svg width="40" height="40" viewBox="0 0 40 40" fill="none" xmlns="http://www.w3.org/2000/svg">
<path d="M28.9062 28.2109L24.3047 23.6094C25.4453 22.2188 26.1328 20.4375 26.1328 18.4961C26.1328 14.043 22.5195 10.4297 18.0664 10.4297C13.6094 10.4297 10 14.043 10 18.4961C10 22.9492 13.6094 26.5625 18.0664 26.5625C20.0078 26.5625 21.7852 25.8789 23.1758 24.7383L27.7773 29.3359C28.0898 29.6484 28.5938 29.6484 28.9062 29.3359C29.2188 29.0273 29.2188 28.5195 28.9062 28.2109ZM18.0664 24.957C14.5 24.957 11.6016 22.0586 11.6016 18.4961C11.6016 14.9336 14.5 12.0312 18.0664 12.0312C21.6289 12.0312 24.5312 14.9336 24.5312 18.4961C24.5312 22.0586 21.6289 24.957 18.0664 24.957Z" fill="#9CA3AF"/>
</svg>
