<svg width="64" height="64" viewBox="0 0 64 64" fill="none" xmlns="http://www.w3.org/2000/svg">
<rect width="64" height="64" rx="32" fill="#D3F1CC"/>
<path d="M34.9998 29.0013L30.4998 33.5013M44.4318 18.5478C44.5741 18.4987 44.7274 18.4906 44.8741 18.5245C45.0208 18.5584 45.1551 18.6328 45.2615 18.7394C45.3678 18.8459 45.4421 18.9802 45.4758 19.127C45.5094 19.2738 45.5011 19.427 45.4518 19.5693L36.5658 44.9643C36.5126 45.1161 36.4151 45.2484 36.2858 45.3441C36.1565 45.4398 36.0014 45.4944 35.8407 45.5009C35.68 45.5073 35.521 45.4654 35.3844 45.3804C35.2479 45.2954 35.14 45.1713 35.0748 45.0243L30.2463 34.1613C30.1651 33.9807 30.0204 33.836 29.8398 33.7548L18.9768 28.9248C18.8302 28.8594 18.7067 28.7515 18.622 28.6151C18.5374 28.4787 18.4957 28.3201 18.5021 28.1597C18.5086 27.9994 18.563 27.8446 18.6583 27.7155C18.7536 27.5863 18.8854 27.4887 19.0368 27.4353L44.4318 18.5478Z" stroke="#0E1318" stroke-width="2" stroke-linecap="round" stroke-linejoin="round"/>
</svg>
