<svg width="180" height="122" viewBox="0 0 180 122" fill="none" xmlns="http://www.w3.org/2000/svg">
<g clip-path="url(#clip0_2944_31582)">
<mask id="path-1-inside-1_2944_31582" fill="white">
<path d="M0 18.4749C0 8.69542 7.92784 0.767578 17.7073 0.767578H87V121.768H17.7073C7.92784 121.768 0 113.84 0 104.06V18.4749Z"/>
</mask>
<path d="M0 18.4749C0 8.69542 7.92784 0.767578 17.7073 0.767578H87V121.768H17.7073C7.92784 121.768 0 113.84 0 104.06V18.4749Z" fill="#F6F6F6"/>
<rect x="14.0181" y="28.0679" width="150.512" height="103.293" rx="8.11585" fill="#FEFEFE" stroke="#E2E2E2" stroke-width="1.47561"/>
<path d="M41.3174 25.8535L42.0552 120.293" stroke="#F6F6F6" stroke-width="1.47561"/>
<path d="M55.9134 46.6582H53.7514V40.278H55.957C56.5905 40.278 57.1346 40.4057 57.5895 40.6612C58.0464 40.9146 58.3974 41.279 58.6425 41.7547C58.8875 42.2303 59.0101 42.7993 59.0101 43.4619C59.0101 44.1265 58.8865 44.6976 58.6393 45.1753C58.3943 45.653 58.0402 46.0196 57.577 46.275C57.1159 46.5305 56.5614 46.6582 55.9134 46.6582ZM54.9072 45.6582H55.8573C56.3018 45.6582 56.6725 45.5772 56.9695 45.4152C57.2665 45.2511 57.4898 45.0071 57.6393 44.6831C57.7889 44.357 57.8636 43.9499 57.8636 43.4619C57.8636 42.9738 57.7889 42.5688 57.6393 42.2469C57.4898 41.9229 57.2686 41.6809 56.9757 41.521C56.685 41.359 56.3236 41.278 55.8916 41.278H54.9072V45.6582ZM61.4354 46.7548C61.1321 46.7548 60.859 46.7008 60.616 46.5928C60.3751 46.4827 60.184 46.3207 60.0428 46.1068C59.9037 45.8929 59.8341 45.6291 59.8341 45.3155C59.8341 45.0455 59.8839 44.8222 59.9836 44.6457C60.0833 44.4692 60.2193 44.3279 60.3917 44.222C60.5641 44.1161 60.7583 44.0361 60.9743 43.9821C61.1924 43.926 61.4177 43.8855 61.6503 43.8606C61.9307 43.8315 62.1581 43.8056 62.3326 43.7827C62.507 43.7578 62.6337 43.7204 62.7127 43.6706C62.7936 43.6187 62.8341 43.5387 62.8341 43.4307V43.412C62.8341 43.1773 62.7646 42.9956 62.6254 42.8668C62.4863 42.7381 62.2858 42.6737 62.0242 42.6737C61.7479 42.6737 61.5288 42.7339 61.3668 42.8544C61.2069 42.9748 61.0989 43.1171 61.0428 43.2812L59.9898 43.1316C60.0729 42.8409 60.21 42.5979 60.4011 42.4026C60.5921 42.2053 60.8258 42.0579 61.102 41.9603C61.3782 41.8606 61.6835 41.8107 62.0179 41.8107C62.2485 41.8107 62.478 41.8377 62.7064 41.8917C62.9349 41.9457 63.1436 42.035 63.3326 42.1596C63.5216 42.2822 63.6732 42.4494 63.7874 42.6612C63.9038 42.8731 63.9619 43.1379 63.9619 43.4556V46.6582H62.8778V46.0009H62.8404C62.7718 46.1338 62.6753 46.2584 62.5507 46.3747C62.4281 46.4889 62.2734 46.5814 62.0865 46.652C61.9016 46.7205 61.6846 46.7548 61.4354 46.7548ZM61.7282 45.9261C61.9546 45.9261 62.1509 45.8814 62.317 45.7921C62.4832 45.7008 62.6109 45.5803 62.7002 45.4308C62.7916 45.2812 62.8373 45.1182 62.8373 44.9416V44.3778C62.802 44.4068 62.7417 44.4338 62.6566 44.4588C62.5735 44.4837 62.48 44.5055 62.3762 44.5242C62.2723 44.5429 62.1695 44.5595 62.0678 44.574C61.966 44.5886 61.8777 44.601 61.803 44.6114C61.6347 44.6343 61.4842 44.6717 61.3512 44.7236C61.2183 44.7755 61.1134 44.8482 61.0366 44.9416C60.9598 45.033 60.9213 45.1514 60.9213 45.2968C60.9213 45.5045 60.9971 45.6613 61.1487 45.7672C61.3004 45.8731 61.4935 45.9261 61.7282 45.9261ZM68.8779 43.1379L67.8498 43.25C67.8208 43.1462 67.7699 43.0486 67.6972 42.9572C67.6266 42.8658 67.531 42.7921 67.4106 42.736C67.2901 42.6799 67.1427 42.6519 66.9682 42.6519C66.7335 42.6519 66.5362 42.7028 66.3763 42.8045C66.2184 42.9063 66.1406 43.0382 66.1426 43.2002C66.1406 43.3393 66.1914 43.4525 66.2953 43.5397C66.4012 43.627 66.5757 43.6986 66.8187 43.7547L67.6349 43.9292C68.0877 44.0268 68.4241 44.1815 68.6443 44.3933C68.8665 44.6052 68.9786 44.8825 68.9807 45.2251C68.9786 45.5263 68.8904 45.7921 68.7159 46.0227C68.5435 46.2511 68.3037 46.4297 67.9963 46.5585C67.6889 46.6873 67.3358 46.7517 66.9371 46.7517C66.3514 46.7517 65.8799 46.6291 65.5227 46.3841C65.1655 46.1369 64.9526 45.7932 64.884 45.3529L65.9838 45.247C66.0336 45.463 66.1395 45.626 66.3015 45.7361C66.4635 45.8461 66.6743 45.9012 66.9339 45.9012C67.2019 45.9012 67.4168 45.8461 67.5788 45.7361C67.7429 45.626 67.8249 45.4899 67.8249 45.328C67.8249 45.1909 67.772 45.0777 67.666 44.9884C67.5622 44.8991 67.4002 44.8305 67.1801 44.7828L66.3638 44.6114C65.9048 44.5159 65.5653 44.3549 65.3451 44.1285C65.125 43.9001 65.0159 43.6114 65.018 43.2625C65.0159 42.9676 65.0959 42.7121 65.2579 42.4961C65.422 42.278 65.6494 42.1098 65.9401 41.9914C66.233 41.871 66.5705 41.8107 66.9526 41.8107C67.5134 41.8107 67.9547 41.9302 68.2767 42.169C68.6006 42.4078 68.8011 42.7308 68.8779 43.1379ZM71.0384 43.8544V46.6582H69.9106V40.278H71.0135V42.6861H71.0696C71.1817 42.4161 71.3551 42.2033 71.5898 42.0475C71.8266 41.8897 72.1277 41.8107 72.4933 41.8107C72.8256 41.8107 73.1153 41.8803 73.3624 42.0195C73.6096 42.1586 73.8007 42.3621 73.9357 42.6301C74.0727 42.898 74.1413 43.2251 74.1413 43.6114V46.6582H73.0135V43.7859C73.0135 43.4639 72.9305 43.2137 72.7643 43.0351C72.6002 42.8544 72.3697 42.764 72.0727 42.764C71.8733 42.764 71.6947 42.8076 71.5369 42.8949C71.3811 42.98 71.2586 43.1036 71.1692 43.2656C71.082 43.4276 71.0384 43.6239 71.0384 43.8544ZM75.3407 46.6582V40.278H76.4684V42.6643H76.5152C76.5733 42.548 76.6554 42.4245 76.7613 42.2936C76.8672 42.1607 77.0105 42.0475 77.1912 41.954C77.3719 41.8585 77.6024 41.8107 77.8828 41.8107C78.2525 41.8107 78.5858 41.9052 78.8828 42.0942C79.1819 42.2811 79.4187 42.5584 79.5931 42.926C79.7697 43.2916 79.8579 43.7402 79.8579 44.2719C79.8579 44.7973 79.7717 45.2438 79.5994 45.6114C79.427 45.9791 79.1923 46.2594 78.8953 46.4526C78.5983 46.6457 78.2618 46.7423 77.8859 46.7423C77.6118 46.7423 77.3844 46.6966 77.2037 46.6052C77.023 46.5139 76.8776 46.4038 76.7675 46.275C76.6595 46.1442 76.5754 46.0206 76.5152 45.9043H76.4498V46.6582H75.3407ZM76.4466 44.2656C76.4466 44.5751 76.4903 44.8461 76.5775 45.0787C76.6668 45.3113 76.7945 45.4931 76.9607 45.6239C77.1289 45.7527 77.3324 45.8171 77.5713 45.8171C77.8205 45.8171 78.0292 45.7506 78.1975 45.6177C78.3657 45.4827 78.4924 45.2989 78.5775 45.0663C78.6648 44.8316 78.7084 44.5647 78.7084 44.2656C78.7084 43.9686 78.6658 43.7049 78.5806 43.4743C78.4955 43.2438 78.3688 43.0631 78.2006 42.9323C78.0323 42.8014 77.8226 42.736 77.5713 42.736C77.3304 42.736 77.1258 42.7993 76.9576 42.926C76.7893 43.0527 76.6616 43.2303 76.5744 43.4587C76.4892 43.6872 76.4466 43.9562 76.4466 44.2656ZM82.904 46.7517C82.4367 46.7517 82.0317 46.6489 81.689 46.4432C81.3463 46.2376 81.0804 45.95 80.8915 45.5803C80.7045 45.2106 80.6111 44.7786 80.6111 44.2843C80.6111 43.79 80.7045 43.357 80.8915 42.9852C81.0804 42.6135 81.3463 42.3248 81.689 42.1191C82.0317 41.9135 82.4367 41.8107 82.904 41.8107C83.3713 41.8107 83.7763 41.9135 84.1189 42.1191C84.4616 42.3248 84.7264 42.6135 84.9134 42.9852C85.1024 43.357 85.1969 43.79 85.1969 44.2843C85.1969 44.7786 85.1024 45.2106 84.9134 45.5803C84.7264 45.95 84.4616 46.2376 84.1189 46.4432C83.7763 46.6489 83.3713 46.7517 82.904 46.7517ZM82.9102 45.8482C83.1636 45.8482 83.3754 45.7786 83.5457 45.6395C83.716 45.4983 83.8427 45.3093 83.9258 45.0725C84.0109 44.8357 84.0535 44.572 84.0535 44.2812C84.0535 43.9884 84.0109 43.7236 83.9258 43.4868C83.8427 43.2479 83.716 43.0579 83.5457 42.9167C83.3754 42.7754 83.1636 42.7048 82.9102 42.7048C82.6506 42.7048 82.4346 42.7754 82.2622 42.9167C82.0919 43.0579 81.9642 43.2479 81.879 43.4868C81.7959 43.7236 81.7544 43.9884 81.7544 44.2812C81.7544 44.572 81.7959 44.8357 81.879 45.0725C81.9642 45.3093 82.0919 45.4983 82.2622 45.6395C82.4346 45.7786 82.6506 45.8482 82.9102 45.8482ZM87.531 46.7548C87.2278 46.7548 86.9547 46.7008 86.7117 46.5928C86.4708 46.4827 86.2797 46.3207 86.1385 46.1068C85.9993 45.8929 85.9297 45.6291 85.9297 45.3155C85.9297 45.0455 85.9796 44.8222 86.0793 44.6457C86.179 44.4692 86.315 44.3279 86.4874 44.222C86.6598 44.1161 86.854 44.0361 87.07 43.9821C87.288 43.926 87.5134 43.8855 87.746 43.8606C88.0264 43.8315 88.2538 43.8056 88.4282 43.7827C88.6027 43.7578 88.7294 43.7204 88.8083 43.6706C88.8893 43.6187 88.9298 43.5387 88.9298 43.4307V43.412C88.9298 43.1773 88.8602 42.9956 88.7211 42.8668C88.5819 42.7381 88.3815 42.6737 88.1198 42.6737C87.8436 42.6737 87.6245 42.7339 87.4625 42.8544C87.3026 42.9748 87.1946 43.1171 87.1385 43.2812L86.0855 43.1316C86.1686 42.8409 86.3057 42.5979 86.4967 42.4026C86.6878 42.2053 86.9215 42.0579 87.1977 41.9603C87.4739 41.8606 87.7792 41.8107 88.1136 41.8107C88.3441 41.8107 88.5736 41.8377 88.8021 41.8917C89.0305 41.9457 89.2393 42.035 89.4283 42.1596C89.6173 42.2822 89.7689 42.4494 89.8831 42.6612C89.9994 42.8731 90.0576 43.1379 90.0576 43.4556V46.6582H88.9734V46.0009H88.936C88.8675 46.1338 88.7709 46.2584 88.6463 46.3747C88.5238 46.4889 88.3691 46.5814 88.1821 46.652C87.9973 46.7205 87.7803 46.7548 87.531 46.7548ZM87.8239 45.9261C88.0502 45.9261 88.2465 45.8814 88.4127 45.7921C88.5788 45.7008 88.7065 45.5803 88.7959 45.4308C88.8872 45.2812 88.9329 45.1182 88.9329 44.9416V44.3778C88.8976 44.4068 88.8374 44.4338 88.7522 44.4588C88.6692 44.4837 88.5757 44.5055 88.4719 44.5242C88.368 44.5429 88.2652 44.5595 88.1634 44.574C88.0617 44.5886 87.9734 44.601 87.8986 44.6114C87.7304 44.6343 87.5798 44.6717 87.4469 44.7236C87.314 44.7755 87.2091 44.8482 87.1323 44.9416C87.0554 45.033 87.017 45.1514 87.017 45.2968C87.017 45.5045 87.0928 45.6613 87.2444 45.7672C87.396 45.8731 87.5892 45.9261 87.8239 45.9261ZM91.1915 46.6582V41.873H92.285V42.6706H92.3349C92.4221 42.3943 92.5716 42.1815 92.7835 42.0319C92.9974 41.8803 93.2414 41.8045 93.5156 41.8045C93.5779 41.8045 93.6475 41.8076 93.7243 41.8138C93.8032 41.818 93.8687 41.8253 93.9206 41.8357V42.8731C93.8728 42.8564 93.797 42.8419 93.6932 42.8294C93.5914 42.8149 93.4927 42.8076 93.3972 42.8076C93.1916 42.8076 93.0068 42.8523 92.8427 42.9416C92.6807 43.0288 92.553 43.1503 92.4595 43.3061C92.366 43.4619 92.3193 43.6415 92.3193 43.845V46.6582H91.1915ZM96.2485 46.7423C95.8726 46.7423 95.5362 46.6457 95.2392 46.4526C94.9422 46.2594 94.7075 45.9791 94.5351 45.6114C94.3627 45.2438 94.2765 44.7973 94.2765 44.2719C94.2765 43.7402 94.3637 43.2916 94.5382 42.926C94.7147 42.5584 94.9525 42.2811 95.2516 42.0942C95.5507 41.9052 95.884 41.8107 96.2516 41.8107C96.532 41.8107 96.7626 41.8585 96.9432 41.954C97.1239 42.0475 97.2672 42.1607 97.3732 42.2936C97.4791 42.4245 97.5611 42.548 97.6193 42.6643H97.666V40.278H98.7969V46.6582H97.6878V45.9043H97.6193C97.5611 46.0206 97.477 46.1442 97.3669 46.275C97.2569 46.4038 97.1115 46.5139 96.9308 46.6052C96.7501 46.6966 96.5227 46.7423 96.2485 46.7423ZM96.5632 45.8171C96.802 45.8171 97.0056 45.7527 97.1738 45.6239C97.342 45.4931 97.4697 45.3113 97.557 45.0787C97.6442 44.8461 97.6878 44.5751 97.6878 44.2656C97.6878 43.9562 97.6442 43.6872 97.557 43.4587C97.4718 43.2303 97.3451 43.0527 97.1769 42.926C97.0107 42.7993 96.8062 42.736 96.5632 42.736C96.3119 42.736 96.1021 42.8014 95.9339 42.9323C95.7657 43.0631 95.639 43.2438 95.5538 43.4743C95.4687 43.7049 95.4261 43.9686 95.4261 44.2656C95.4261 44.5647 95.4687 44.8316 95.5538 45.0663C95.641 45.2989 95.7688 45.4827 95.937 45.6177C96.1073 45.7506 96.316 45.8171 96.5632 45.8171Z" fill="#313131"/>
<rect x="54.5977" y="52.4121" width="51.6463" height="2.95122" fill="#F6F6F6"/>
<rect x="17.707" y="43.5605" width="17.7073" height="2.95122" fill="#F6F6F6"/>
<rect x="17.707" y="49.4629" width="17.7073" height="2.95122" fill="#F6F6F6"/>
<rect x="17.707" y="55.3652" width="17.7073" height="2.95122" fill="#F6F6F6"/>
<rect x="17.707" y="61.2676" width="17.7073" height="2.95122" fill="#F6F6F6"/>
<rect x="17.707" y="67.1699" width="17.7073" height="2.95122" fill="#F6F6F6"/>
<rect x="17.707" y="73.0723" width="17.7073" height="2.95122" fill="#F6F6F6"/>
<rect x="17.707" y="78.9746" width="17.7073" height="2.95122" fill="#F6F6F6"/>
<rect x="17.707" y="84.877" width="17.7073" height="2.95122" fill="#F6F6F6"/>
<rect x="17.707" y="90.7793" width="17.7073" height="2.95122" fill="#F6F6F6"/>
<rect x="17.707" y="96.6816" width="17.7073" height="2.95122" fill="#F6F6F6"/>
<rect x="54.5977" y="61.2676" width="104.768" height="66.4024" rx="4.42683" fill="#F6F6F6"/>
</g>
<path d="M-1.47561 18.4749C-1.47561 7.88046 7.11288 -0.708032 17.7073 -0.708032H87V2.24319H17.7073C8.74279 2.24319 1.47561 9.51037 1.47561 18.4749H-1.47561ZM87 123.243H17.7073C7.11288 123.243 -1.47561 114.655 -1.47561 104.06L1.47561 104.06C1.47561 113.025 8.74279 120.292 17.7073 120.292H87V123.243ZM17.7073 123.243C7.11288 123.243 -1.47561 114.655 -1.47561 104.06V18.4749C-1.47561 7.88046 7.11288 -0.708032 17.7073 -0.708032V2.24319C8.74279 2.24319 1.47561 9.51037 1.47561 18.4749V104.06C1.47561 113.025 8.74279 120.292 17.7073 120.292V123.243ZM87 0.767578V121.768V0.767578Z" fill="#EBEBEB" mask="url(#path-1-inside-1_2944_31582)"/>
<g clip-path="url(#clip1_2944_31582)">
<mask id="path-18-inside-2_2944_31582" fill="white">
<path d="M87 0.767578H162.439C172.138 0.767578 180 8.62989 180 18.3286V103.207C180 112.905 172.138 120.768 162.439 120.768H87V0.767578Z"/>
</mask>
<path d="M87 0.767578H162.439C172.138 0.767578 180 8.62989 180 18.3286V103.207C180 112.905 172.138 120.768 162.439 120.768H87V0.767578Z" fill="#353535"/>
<rect x="16.9016" y="27.843" width="149.268" height="102.439" rx="8.04878" fill="#2B2B2B" stroke="#353535" stroke-width="1.46341"/>
<path d="M58.4499 46.3496H56.3057V40.0221H58.4932C59.1214 40.0221 59.661 40.1488 60.1121 40.4021C60.5653 40.6534 60.9134 41.0149 61.1564 41.4866C61.3995 41.9583 61.521 42.5226 61.521 43.1797C61.521 43.8388 61.3984 44.4052 61.1533 44.879C60.9103 45.3527 60.5591 45.7162 60.0998 45.9696C59.6425 46.2229 59.0926 46.3496 58.4499 46.3496ZM57.452 45.3578H58.3943C58.8351 45.3578 59.2027 45.2775 59.4973 45.1169C59.7918 44.9541 60.0133 44.7121 60.1616 44.3908C60.3099 44.0674 60.384 43.6637 60.384 43.1797C60.384 42.6956 60.3099 42.294 60.1616 41.9747C60.0133 41.6534 59.7939 41.4135 59.5035 41.2549C59.2151 41.0942 58.8567 41.0139 58.4283 41.0139H57.452V45.3578ZM63.9262 46.4454C63.6255 46.4454 63.3547 46.3918 63.1137 46.2847C62.8747 46.1756 62.6852 46.0149 62.5452 45.8028C62.4072 45.5906 62.3382 45.329 62.3382 45.018C62.3382 44.7502 62.3876 44.5288 62.4865 44.3537C62.5853 44.1787 62.7203 44.0386 62.8912 43.9335C63.0622 43.8285 63.2548 43.7492 63.469 43.6956C63.6852 43.64 63.9087 43.5999 64.1394 43.5752C64.4175 43.5463 64.643 43.5206 64.816 43.4979C64.989 43.4732 65.1147 43.4361 65.193 43.3867C65.2733 43.3352 65.3135 43.2559 65.3135 43.1488V43.1303C65.3135 42.8975 65.2445 42.7173 65.1065 42.5896C64.9684 42.4619 64.7697 42.398 64.5102 42.398C64.2362 42.398 64.0189 42.4577 63.8583 42.5772C63.6997 42.6967 63.5925 42.8378 63.5369 43.0005L62.4927 42.8522C62.575 42.5638 62.711 42.3228 62.9005 42.1292C63.09 41.9335 63.3217 41.7873 63.5956 41.6905C63.8696 41.5916 64.1724 41.5422 64.504 41.5422C64.7326 41.5422 64.9602 41.569 65.1868 41.6225C65.4134 41.6761 65.6204 41.7646 65.8078 41.8882C65.9952 42.0098 66.1456 42.1756 66.2589 42.3857C66.3742 42.5958 66.4319 42.8584 66.4319 43.1735V46.3496H65.3567V45.6977H65.3196C65.2517 45.8295 65.1559 45.9531 65.0323 46.0685C64.9108 46.1817 64.7573 46.2734 64.572 46.3434C64.3886 46.4114 64.1734 46.4454 63.9262 46.4454ZM64.2166 45.6236C64.4412 45.6236 64.6358 45.5793 64.8006 45.4907C64.9654 45.4001 65.092 45.2806 65.1806 45.1323C65.2712 44.984 65.3165 44.8223 65.3165 44.6472V44.088C65.2815 44.1169 65.2218 44.1436 65.1373 44.1684C65.055 44.1931 64.9623 44.2147 64.8593 44.2332C64.7563 44.2518 64.6543 44.2683 64.5534 44.2827C64.4525 44.2971 64.3649 44.3094 64.2908 44.3197C64.124 44.3424 63.9746 44.3795 63.8428 44.431C63.711 44.4825 63.607 44.5546 63.5308 44.6472C63.4545 44.7379 63.4164 44.8553 63.4164 44.9995C63.4164 45.2054 63.4916 45.3609 63.642 45.466C63.7923 45.571 63.9839 45.6236 64.2166 45.6236ZM71.3073 42.8584L70.2877 42.9696C70.2589 42.8666 70.2084 42.7698 70.1363 42.6792C70.0663 42.5885 69.9715 42.5154 69.8521 42.4598C69.7326 42.4042 69.5864 42.3764 69.4133 42.3764C69.1806 42.3764 68.9849 42.4269 68.8263 42.5278C68.6698 42.6287 68.5925 42.7595 68.5946 42.9202C68.5925 43.0582 68.643 43.1704 68.746 43.2569C68.851 43.3434 69.0241 43.4145 69.265 43.4701L70.0745 43.6431C70.5235 43.7399 70.8572 43.8934 71.0755 44.1035C71.2959 44.3136 71.4072 44.5885 71.4092 44.9284C71.4072 45.2271 71.3196 45.4907 71.1466 45.7193C70.9757 45.9459 70.7378 46.123 70.4329 46.2507C70.1281 46.3784 69.7779 46.4423 69.3825 46.4423C68.8016 46.4423 68.334 46.3208 67.9798 46.0777C67.6255 45.8326 67.4144 45.4917 67.3464 45.0551L68.437 44.95C68.4865 45.1642 68.5915 45.3259 68.7522 45.4351C68.9128 45.5443 69.1219 45.5988 69.3794 45.5988C69.6451 45.5988 69.8582 45.5443 70.0189 45.4351C70.1816 45.3259 70.263 45.191 70.263 45.0304C70.263 44.8944 70.2105 44.7822 70.1054 44.6936C70.0024 44.605 69.8418 44.537 69.6234 44.4897L68.814 44.3197C68.3588 44.225 68.022 44.0654 67.8037 43.8409C67.5853 43.6143 67.4772 43.328 67.4793 42.982C67.4772 42.6895 67.5565 42.4361 67.7172 42.2219C67.8799 42.0056 68.1054 41.8388 68.3938 41.7214C68.6842 41.6019 69.0189 41.5422 69.3979 41.5422C69.954 41.5422 70.3917 41.6606 70.711 41.8975C71.0323 42.1344 71.2311 42.4547 71.3073 42.8584ZM73.4499 43.569V46.3496H72.3315V40.0221H73.4252V42.4104H73.4808C73.592 42.1426 73.764 41.9315 73.9968 41.777C74.2316 41.6205 74.5302 41.5422 74.8927 41.5422C75.2223 41.5422 75.5096 41.6112 75.7547 41.7492C75.9998 41.8872 76.1893 42.0891 76.3232 42.3548C76.4592 42.6205 76.5271 42.9449 76.5271 43.328V46.3496H75.4087V43.501C75.4087 43.1817 75.3263 42.9335 75.1615 42.7564C74.9988 42.5772 74.7702 42.4876 74.4756 42.4876C74.2779 42.4876 74.1008 42.5309 73.9442 42.6174C73.7898 42.7018 73.6682 42.8244 73.5797 42.985C73.4932 43.1457 73.4499 43.3403 73.4499 43.569ZM77.7166 46.3496V40.0221H78.8351V42.3887H78.8814C78.9391 42.2734 79.0204 42.1508 79.1255 42.0211C79.2305 41.8893 79.3727 41.777 79.5519 41.6843C79.731 41.5896 79.9597 41.5422 80.2377 41.5422C80.6044 41.5422 80.935 41.6359 81.2295 41.8234C81.5261 42.0087 81.7609 42.2837 81.9339 42.6483C82.109 43.0108 82.1965 43.4557 82.1965 43.983C82.1965 44.5041 82.1111 44.9469 81.9401 45.3115C81.7692 45.6761 81.5364 45.9541 81.2419 46.1457C80.9473 46.3373 80.6136 46.433 80.2408 46.433C79.9689 46.433 79.7434 46.3877 79.5642 46.2971C79.385 46.2065 79.2408 46.0973 79.1317 45.9696C79.0246 45.8398 78.9411 45.7173 78.8814 45.6019H78.8165V46.3496H77.7166ZM78.8134 43.9768C78.8134 44.2837 78.8567 44.5525 78.9432 44.7832C79.0318 45.0139 79.1584 45.1941 79.3232 45.3239C79.4901 45.4516 79.6919 45.5154 79.9288 45.5154C80.176 45.5154 80.383 45.4495 80.5498 45.3177C80.7166 45.1838 80.8423 45.0015 80.9267 44.7708C81.0132 44.5381 81.0565 44.2734 81.0565 43.9768C81.0565 43.6823 81.0143 43.4207 80.9298 43.192C80.8454 42.9634 80.7197 42.7842 80.5529 42.6545C80.386 42.5247 80.178 42.4598 79.9288 42.4598C79.6899 42.4598 79.487 42.5226 79.3201 42.6483C79.1533 42.7739 79.0266 42.95 78.9401 43.1766C78.8557 43.4032 78.8134 43.6699 78.8134 43.9768ZM85.2174 46.4423C84.754 46.4423 84.3523 46.3403 84.0125 46.1364C83.6726 45.9325 83.409 45.6472 83.2215 45.2806C83.0361 44.914 82.9435 44.4856 82.9435 43.9953C82.9435 43.5051 83.0361 43.0757 83.2215 42.707C83.409 42.3383 83.6726 42.052 84.0125 41.8481C84.3523 41.6442 84.754 41.5422 85.2174 41.5422C85.6808 41.5422 86.0825 41.6442 86.4223 41.8481C86.7622 42.052 87.0248 42.3383 87.2102 42.707C87.3976 43.0757 87.4913 43.5051 87.4913 43.9953C87.4913 44.4856 87.3976 44.914 87.2102 45.2806C87.0248 45.6472 86.7622 45.9325 86.4223 46.1364C86.0825 46.3403 85.6808 46.4423 85.2174 46.4423ZM85.2236 45.5463C85.4749 45.5463 85.685 45.4773 85.8539 45.3393C86.0228 45.1993 86.1484 45.0118 86.2308 44.777C86.3152 44.5422 86.3575 44.2806 86.3575 43.9922C86.3575 43.7018 86.3152 43.4392 86.2308 43.2044C86.1484 42.9675 86.0228 42.7791 85.8539 42.639C85.685 42.4989 85.4749 42.4289 85.2236 42.4289C84.9661 42.4289 84.7519 42.4989 84.5809 42.639C84.412 42.7791 84.2854 42.9675 84.2009 43.2044C84.1185 43.4392 84.0773 43.7018 84.0773 43.9922C84.0773 44.2806 84.1185 44.5422 84.2009 44.777C84.2854 45.0118 84.412 45.1993 84.5809 45.3393C84.7519 45.4773 84.9661 45.5463 85.2236 45.5463ZM89.8062 46.4454C89.5055 46.4454 89.2346 46.3918 88.9937 46.2847C88.7547 46.1756 88.5652 46.0149 88.4252 45.8028C88.2872 45.5906 88.2182 45.329 88.2182 45.018C88.2182 44.7502 88.2676 44.5288 88.3665 44.3537C88.4653 44.1787 88.6002 44.0386 88.7712 43.9335C88.9422 43.8285 89.1347 43.7492 89.349 43.6956C89.5652 43.64 89.7887 43.5999 90.0194 43.5752C90.2975 43.5463 90.523 43.5206 90.696 43.4979C90.869 43.4732 90.9947 43.4361 91.073 43.3867C91.1533 43.3352 91.1934 43.2559 91.1934 43.1488V43.1303C91.1934 42.8975 91.1244 42.7173 90.9864 42.5896C90.8484 42.4619 90.6497 42.398 90.3902 42.398C90.1162 42.398 89.8989 42.4577 89.7383 42.5772C89.5797 42.6967 89.4725 42.8378 89.4169 43.0005L88.3726 42.8522C88.455 42.5638 88.591 42.3228 88.7805 42.1292C88.97 41.9335 89.2017 41.7873 89.4756 41.6905C89.7496 41.5916 90.0524 41.5422 90.384 41.5422C90.6126 41.5422 90.8402 41.569 91.0668 41.6225C91.2933 41.6761 91.5003 41.7646 91.6878 41.8882C91.8752 42.0098 92.0256 42.1756 92.1389 42.3857C92.2542 42.5958 92.3119 42.8584 92.3119 43.1735V46.3496H91.2367V45.6977H91.1996C91.1317 45.8295 91.0359 45.9531 90.9123 46.0685C90.7908 46.1817 90.6373 46.2734 90.4519 46.3434C90.2686 46.4114 90.0534 46.4454 89.8062 46.4454ZM90.0966 45.6236C90.3212 45.6236 90.5158 45.5793 90.6806 45.4907C90.8454 45.4001 90.972 45.2806 91.0606 45.1323C91.1512 44.984 91.1965 44.8223 91.1965 44.6472V44.088C91.1615 44.1169 91.1018 44.1436 91.0173 44.1684C90.935 44.1931 90.8423 44.2147 90.7393 44.2332C90.6363 44.2518 90.5343 44.2683 90.4334 44.2827C90.3325 44.2971 90.2449 44.3094 90.1708 44.3197C90.004 44.3424 89.8546 44.3795 89.7228 44.431C89.591 44.4825 89.487 44.5546 89.4108 44.6472C89.3345 44.7379 89.2964 44.8553 89.2964 44.9995C89.2964 45.2054 89.3716 45.3609 89.522 45.466C89.6723 45.571 89.8639 45.6236 90.0966 45.6236ZM93.4365 46.3496V41.604H94.5209V42.3949H94.5704C94.6569 42.121 94.8052 41.9099 95.0153 41.7616C95.2274 41.6112 95.4695 41.536 95.7413 41.536C95.8031 41.536 95.8721 41.5391 95.9483 41.5453C96.0266 41.5494 96.0915 41.5566 96.143 41.5669V42.5958C96.0956 42.5793 96.0204 42.5649 95.9174 42.5525C95.8165 42.5381 95.7187 42.5309 95.6239 42.5309C95.42 42.5309 95.2367 42.5752 95.074 42.6637C94.9133 42.7502 94.7866 42.8707 94.694 43.0252C94.6013 43.1797 94.5549 43.3579 94.5549 43.5597V46.3496H93.4365ZM98.4517 46.433C98.0789 46.433 97.7452 46.3373 97.4507 46.1457C97.1561 45.9541 96.9234 45.6761 96.7524 45.3115C96.5814 44.9469 96.496 44.5041 96.496 43.983C96.496 43.4557 96.5825 43.0108 96.7555 42.6483C96.9306 42.2837 97.1664 42.0087 97.463 41.8234C97.7596 41.6359 98.0902 41.5422 98.4548 41.5422C98.7328 41.5422 98.9615 41.5896 99.1407 41.6843C99.3199 41.777 99.462 41.8893 99.567 42.0211C99.6721 42.1508 99.7534 42.2734 99.8111 42.3887H99.8574V40.0221H100.979V46.3496H99.8791V45.6019H99.8111C99.7534 45.7173 99.67 45.8398 99.5608 45.9696C99.4517 46.0973 99.3075 46.2065 99.1283 46.2971C98.9491 46.3877 98.7236 46.433 98.4517 46.433ZM98.7637 45.5154C99.0006 45.5154 99.2025 45.4516 99.3693 45.3239C99.5361 45.1941 99.6628 45.0139 99.7493 44.7832C99.8358 44.5525 99.8791 44.2837 99.8791 43.9768C99.8791 43.6699 99.8358 43.4032 99.7493 43.1766C99.6649 42.95 99.5392 42.7739 99.3724 42.6483C99.2076 42.5226 99.0047 42.4598 98.7637 42.4598C98.5145 42.4598 98.3065 42.5247 98.1396 42.6545C97.9728 42.7842 97.8472 42.9634 97.7627 43.192C97.6783 43.4207 97.636 43.6823 97.636 43.9768C97.636 44.2734 97.6783 44.5381 97.7627 44.7708C97.8492 45.0015 97.9759 45.1838 98.1427 45.3177C98.3116 45.4495 98.5186 45.5154 98.7637 45.5154Z" fill="#525252"/>
<rect x="57.1455" y="51.9863" width="51.2195" height="2.92683" fill="#353535"/>
<rect x="57.1455" y="60.7676" width="103.902" height="65.8537" rx="4.39024" fill="#353535"/>
<rect x="123" y="40.2793" width="17.561" height="7.31707" fill="#353535"/>
<rect x="143.488" y="40.2793" width="17.561" height="7.31707" fill="#353535"/>
</g>
<path d="M87 -0.695836H162.439C172.946 -0.695836 181.463 7.82167 181.463 18.3286H178.537C178.537 9.43812 171.329 2.23099 162.439 2.23099H87V-0.695836ZM181.463 103.207C181.463 113.713 172.946 122.231 162.439 122.231H87V119.304H162.439C171.329 119.304 178.537 112.097 178.537 103.207H181.463ZM87 120.768V0.767578V120.768ZM162.439 -0.695836C172.946 -0.695836 181.463 7.82167 181.463 18.3286V103.207C181.463 113.713 172.946 122.231 162.439 122.231V119.304C171.329 119.304 178.537 112.097 178.537 103.207V18.3286C178.537 9.43812 171.329 2.23099 162.439 2.23099V-0.695836Z" fill="#353535" mask="url(#path-18-inside-2_2944_31582)"/>
<defs>
<clipPath id="clip0_2944_31582">
<path d="M0 18.4749C0 8.69542 7.92784 0.767578 17.7073 0.767578H87V121.768H17.7073C7.92784 121.768 0 113.84 0 104.06V18.4749Z" fill="white"/>
</clipPath>
<clipPath id="clip1_2944_31582">
<path d="M87 0.767578H162.439C172.138 0.767578 180 8.62989 180 18.3286V103.207C180 112.905 172.138 120.768 162.439 120.768H87V0.767578Z" fill="white"/>
</clipPath>
</defs>
</svg>
