<svg width="64" height="64" viewBox="0 0 64 64" fill="none" xmlns="http://www.w3.org/2000/svg">
<rect width="64" height="64" rx="32" fill="#EDF9EB"/>
<path d="M37.6997 37.2502C39.0801 36.483 38.9012 33.5265 37.3014 30.642C36.6152 29.4 35.7714 28.3942 34.9277 27.6911C33.9187 28.4398 32.6966 28.8459 31.4402 28.8499C30.1819 28.8471 28.9576 28.441 27.9471 27.6911C27.1033 28.3942 26.2618 29.4011 25.5733 30.642C23.9724 33.5254 23.7958 36.483 25.1796 37.2502C25.7961 37.6012 26.4463 37.338 27.1168 36.6922C26.9912 37.388 26.9284 38.0935 26.9289 38.8005C26.9289 42.1057 28.2114 44.7765 29.7898 44.7765C30.7416 44.7765 31.2129 43.8034 31.4391 42.315C31.6641 43.7932 32.1366 44.7765 33.0816 44.7765C34.6532 44.7765 35.9458 42.1046 35.9458 38.8005C35.9458 38.058 35.8761 37.3492 35.7568 36.6934C36.4318 37.3402 37.0798 37.608 37.6986 37.2525L37.6997 37.2502ZM31.4379 27.7249C32.0762 27.7344 32.71 27.6169 33.3025 27.3792C33.8949 27.1414 34.4342 26.7883 34.8888 26.3402C35.3435 25.8921 35.7045 25.3581 35.9508 24.7691C36.1972 24.1802 36.3239 23.5482 36.3237 22.9098C36.3235 22.2715 36.1963 21.6395 35.9495 21.0508C35.7028 20.4621 35.3414 19.9283 34.8864 19.4805C34.4315 19.0327 33.892 18.6799 33.2993 18.4426C32.7067 18.2053 32.0728 18.0883 31.4346 18.0982C30.1707 18.118 28.9654 18.634 28.0788 19.5349C27.1922 20.4358 26.6955 21.6492 26.6959 22.9132C26.6964 24.1772 27.1939 25.3903 28.0812 26.2905C28.9684 27.1908 30.1741 27.706 31.4379 27.7249ZM41.1062 30.7781C42.1342 30.7481 43.1101 30.3186 43.8266 29.5808C44.5431 28.843 44.9439 27.855 44.9439 26.8266C44.9439 25.7981 44.5431 24.8101 43.8266 24.0723C43.1101 23.3345 42.1342 22.905 41.1062 22.875C40.0579 22.8751 39.0525 23.2917 38.3114 24.0331C37.5702 24.7745 37.1539 25.7799 37.1541 26.8282C37.1542 27.8766 37.5708 28.8819 38.3122 29.6231C39.0536 30.3642 40.059 30.7805 41.1073 30.7804L41.1062 30.7781ZM45.9212 33.1744C45.3564 32.1529 44.6657 31.3271 43.9727 30.75C43.1437 31.3642 42.1401 31.6973 41.1084 31.7006C40.2579 31.7006 39.4659 31.4677 38.7729 31.0819C39.3309 32.3115 39.6763 33.5569 39.7404 34.6706C39.8462 36.3761 39.3129 37.6406 38.2464 38.2312C38.018 38.3572 37.7694 38.4425 37.5118 38.4832C37.4477 38.9242 37.4038 39.3832 37.4038 39.867C37.4038 42.5816 38.4557 44.7742 39.7528 44.7742C40.5336 44.7742 40.9228 43.9755 41.1073 42.7537C41.2907 43.9687 41.6788 44.7742 42.4573 44.7742C43.7454 44.7742 44.8086 42.5805 44.8086 39.8692C44.8086 39.2584 44.7489 38.6767 44.6511 38.1367C45.2046 38.6689 45.7378 38.8882 46.2463 38.5957C47.3792 37.9657 47.2329 35.538 45.9201 33.1732L45.9212 33.1744ZM21.7697 30.7781C22.551 30.7777 23.3147 30.5456 23.9641 30.1112C24.6136 29.6768 25.1196 29.0595 25.4183 28.3375C25.717 27.6156 25.795 26.8212 25.6423 26.0549C25.4895 25.2887 25.1131 24.5849 24.5604 24.0325C24.0078 23.4802 23.3038 23.1041 22.5374 22.9519C21.7711 22.7996 20.9768 22.878 20.2549 23.1771C19.5331 23.4762 18.9162 23.9826 18.4821 24.6323C18.0481 25.282 17.8164 26.0458 17.8164 26.8271C17.8167 27.8755 18.2333 28.8808 18.9747 29.6222C19.716 30.3635 20.7213 30.7801 21.7697 30.7804V30.7781ZM24.6216 38.2279C22.8306 37.2322 22.6663 34.2634 24.1086 31.0796C23.3957 31.4844 22.5906 31.6987 21.7708 31.7017C20.6953 31.7017 19.7098 31.3417 18.9021 30.75C18.2102 31.326 17.5206 32.1517 16.9536 33.1721C15.6407 35.5391 15.4967 37.9669 16.6307 38.5946C17.1369 38.8849 17.6713 38.6677 18.2214 38.1379C18.1213 38.7092 18.0705 39.2881 18.0696 39.8681C18.0696 42.5816 19.1214 44.7731 20.4186 44.7731C21.1993 44.7731 21.5886 43.9744 21.7731 42.7537C21.9587 43.9687 22.3468 44.7742 23.1231 44.7742C24.4134 44.7742 25.4743 42.5805 25.4743 39.8692C25.4743 39.3821 25.4293 38.922 25.3652 38.481C25.1047 38.4404 24.8534 38.3543 24.6227 38.2267L24.6216 38.2279Z" fill="#00613A"/>
</svg>
