<svg width="487" height="497" viewBox="0 0 487 497" fill="none" xmlns="http://www.w3.org/2000/svg">
<g clip-path="url(#clip0_1998_36487)">
<rect width="487" height="497" rx="20" fill="#00613A"/>
<path d="M44.096 73.504C42.392 73.504 40.88 73.228 39.56 72.676C38.24 72.124 37.112 71.32 36.176 70.264C35.264 69.208 34.568 67.924 34.088 66.412C33.608 64.9 33.368 63.172 33.368 61.228C33.368 58.444 33.824 56.128 34.736 54.28C35.672 52.432 36.956 51.052 38.588 50.14C40.244 49.204 42.14 48.736 44.276 48.736C45.908 48.736 47.384 49.012 48.704 49.564C50.024 50.092 51.14 50.884 52.052 51.94C52.988 52.972 53.708 54.268 54.212 55.828C54.716 57.388 54.968 59.164 54.968 61.156C54.968 63.124 54.716 64.876 54.212 66.412C53.732 67.948 53.024 69.244 52.088 70.3C51.152 71.332 50.012 72.124 48.668 72.676C47.324 73.228 45.8 73.504 44.096 73.504ZM44.24 69.688C45.584 69.688 46.7 69.376 47.588 68.752C48.476 68.104 49.148 67.156 49.604 65.908C50.06 64.66 50.288 63.124 50.288 61.3C50.288 59.428 50.048 57.844 49.568 56.548C49.088 55.252 48.392 54.268 47.48 53.596C46.592 52.924 45.476 52.588 44.132 52.588C42.86 52.588 41.768 52.912 40.856 53.56C39.944 54.208 39.248 55.168 38.768 56.44C38.312 57.712 38.084 59.272 38.084 61.12C38.084 62.512 38.216 63.748 38.48 64.828C38.744 65.884 39.128 66.784 39.632 67.528C40.16 68.248 40.808 68.788 41.576 69.148C42.344 69.508 43.232 69.688 44.24 69.688ZM64.2464 73.504C62.1104 73.504 60.5264 72.748 59.4944 71.236C58.4864 69.724 57.9824 67.42 57.9824 64.324V54.208H62.5544V64.144C62.5544 66.04 62.8064 67.408 63.3104 68.248C63.8384 69.088 64.6544 69.508 65.7584 69.508C66.4304 69.508 67.0424 69.34 67.5944 69.004C68.1464 68.668 68.6144 68.164 68.9984 67.492C69.3824 66.82 69.6824 65.98 69.8984 64.972C70.1144 63.964 70.2224 62.776 70.2224 61.408V54.208H74.7944V64.36V73H70.8704L71.0864 65.836H70.6904C70.4744 67.612 70.0904 69.064 69.5384 70.192C69.0104 71.32 68.3144 72.16 67.4504 72.712C66.5864 73.24 65.5184 73.504 64.2464 73.504ZM78.3781 73V63.46L78.3421 54.208H82.3381L82.1221 61.804H82.5541C82.6981 59.908 82.9981 58.372 83.4541 57.196C83.9101 56.02 84.4981 55.156 85.2181 54.604C85.9381 54.052 86.7901 53.776 87.7741 53.776C88.1101 53.776 88.4701 53.812 88.8541 53.884C89.2381 53.956 89.6221 54.088 90.0061 54.28L89.7901 59.212C89.3581 58.996 88.9261 58.84 88.4941 58.744C88.0621 58.624 87.6661 58.564 87.3061 58.564C86.4181 58.564 85.6501 58.84 85.0021 59.392C84.3781 59.944 83.8861 60.748 83.5261 61.804C83.1901 62.836 82.9861 64.096 82.9141 65.584V73H78.3781ZM106.621 73L98.7007 49.24H103.669L109.573 69.148H109.789L115.621 49.24H120.553L112.669 73H106.621ZM125.246 73.504C124.238 73.504 123.314 73.324 122.474 72.964C121.658 72.58 120.998 72.016 120.494 71.272C119.99 70.504 119.738 69.508 119.738 68.284C119.738 67.204 119.942 66.316 120.35 65.62C120.758 64.9 121.334 64.324 122.078 63.892C122.822 63.436 123.686 63.088 124.67 62.848C125.654 62.584 126.71 62.368 127.838 62.2C128.99 61.984 129.866 61.816 130.466 61.696C131.066 61.552 131.474 61.372 131.69 61.156C131.93 60.94 132.05 60.628 132.05 60.22C132.05 59.332 131.738 58.636 131.114 58.132C130.514 57.628 129.698 57.376 128.666 57.376C128.018 57.376 127.382 57.496 126.758 57.736C126.158 57.952 125.642 58.336 125.21 58.888C124.802 59.416 124.562 60.148 124.49 61.084L120.386 60.436C120.482 59.188 120.77 58.132 121.25 57.268C121.754 56.404 122.402 55.72 123.194 55.216C123.986 54.688 124.862 54.304 125.822 54.064C126.782 53.824 127.766 53.704 128.774 53.704C130.454 53.704 131.87 54.004 133.022 54.604C134.174 55.204 135.038 56.116 135.614 57.34C136.214 58.54 136.514 60.04 136.514 61.84V65.296C136.514 66.136 136.526 66.988 136.55 67.852C136.574 68.716 136.586 69.58 136.586 70.444C136.61 71.308 136.634 72.16 136.658 73H132.626C132.626 72.112 132.626 71.224 132.626 70.336C132.626 69.424 132.626 68.464 132.626 67.456H132.302C132.086 68.584 131.666 69.604 131.042 70.516C130.418 71.428 129.614 72.16 128.63 72.712C127.646 73.24 126.518 73.504 125.246 73.504ZM126.938 70.048C127.49 70.048 128.042 69.94 128.594 69.724C129.17 69.508 129.698 69.184 130.178 68.752C130.682 68.32 131.102 67.768 131.438 67.096C131.774 66.424 131.99 65.632 132.086 64.72V63.172L133.022 63.1C132.734 63.436 132.314 63.7 131.762 63.892C131.234 64.084 130.634 64.24 129.962 64.36C129.314 64.456 128.654 64.564 127.982 64.684C127.31 64.804 126.686 64.972 126.11 65.188C125.558 65.404 125.102 65.704 124.742 66.088C124.406 66.472 124.238 66.988 124.238 67.636C124.238 68.38 124.478 68.968 124.958 69.4C125.462 69.832 126.122 70.048 126.938 70.048ZM139.937 73V47.944H144.473V73H139.937ZM154.106 73.504C151.97 73.504 150.386 72.748 149.354 71.236C148.346 69.724 147.842 67.42 147.842 64.324V54.208H152.414V64.144C152.414 66.04 152.666 67.408 153.17 68.248C153.698 69.088 154.514 69.508 155.618 69.508C156.29 69.508 156.902 69.34 157.454 69.004C158.006 68.668 158.474 68.164 158.858 67.492C159.242 66.82 159.542 65.98 159.758 64.972C159.974 63.964 160.082 62.776 160.082 61.408V54.208H164.654V64.36V73H160.73L160.946 65.836H160.55C160.334 67.612 159.95 69.064 159.398 70.192C158.87 71.32 158.174 72.16 157.31 72.712C156.446 73.24 155.378 73.504 154.106 73.504ZM176.878 73.504C175.27 73.504 173.878 73.264 172.702 72.784C171.55 72.304 170.59 71.644 169.822 70.804C169.054 69.94 168.478 68.932 168.094 67.78C167.734 66.604 167.554 65.32 167.554 63.928C167.554 62.512 167.734 61.192 168.094 59.968C168.478 58.72 169.042 57.628 169.786 56.692C170.53 55.756 171.466 55.024 172.594 54.496C173.722 53.968 175.042 53.704 176.554 53.704C177.994 53.704 179.254 53.956 180.334 54.46C181.438 54.94 182.338 55.648 183.034 56.584C183.73 57.496 184.222 58.588 184.51 59.86C184.798 61.132 184.858 62.56 184.69 64.144L170.434 64.324V61.66L181.486 61.48L180.478 63.028C180.598 61.804 180.514 60.784 180.226 59.968C179.962 59.128 179.518 58.492 178.894 58.06C178.27 57.604 177.49 57.376 176.554 57.376C175.546 57.376 174.694 57.64 173.998 58.168C173.326 58.696 172.822 59.44 172.486 60.4C172.15 61.336 171.982 62.452 171.982 63.748C171.982 65.836 172.402 67.408 173.242 68.464C174.106 69.496 175.342 70.012 176.95 70.012C177.694 70.012 178.306 69.904 178.786 69.688C179.29 69.472 179.698 69.196 180.01 68.86C180.322 68.5 180.55 68.104 180.694 67.672C180.838 67.216 180.922 66.76 180.946 66.304L185.086 66.736C185.038 67.624 184.846 68.476 184.51 69.292C184.198 70.108 183.706 70.828 183.034 71.452C182.386 72.076 181.546 72.58 180.514 72.964C179.506 73.324 178.294 73.504 176.878 73.504ZM195.594 73.504C194.346 73.504 193.194 73.372 192.138 73.108C191.106 72.868 190.218 72.484 189.474 71.956C188.73 71.404 188.154 70.708 187.746 69.868C187.338 69.028 187.146 68.032 187.17 66.88L191.058 66.232C191.082 67.096 191.286 67.816 191.67 68.392C192.054 68.968 192.594 69.4 193.29 69.688C193.986 69.952 194.814 70.084 195.774 70.084C196.878 70.084 197.754 69.904 198.402 69.544C199.074 69.16 199.41 68.62 199.41 67.924C199.41 67.42 199.242 67.024 198.906 66.736C198.594 66.448 198.114 66.208 197.466 66.016C196.818 65.8 196.002 65.584 195.018 65.368C193.986 65.152 193.002 64.912 192.066 64.648C191.154 64.36 190.338 64.012 189.618 63.604C188.922 63.196 188.37 62.668 187.962 62.02C187.554 61.372 187.35 60.556 187.35 59.572C187.35 58.372 187.674 57.34 188.322 56.476C188.97 55.588 189.882 54.904 191.058 54.424C192.234 53.944 193.602 53.704 195.162 53.704C196.626 53.704 197.946 53.932 199.122 54.388C200.322 54.844 201.27 55.54 201.966 56.476C202.686 57.412 203.022 58.624 202.974 60.112L199.086 60.76C199.11 59.968 198.954 59.308 198.618 58.78C198.282 58.228 197.802 57.82 197.178 57.556C196.554 57.268 195.822 57.124 194.982 57.124C193.95 57.124 193.134 57.328 192.534 57.736C191.934 58.12 191.634 58.636 191.634 59.284C191.634 59.812 191.814 60.244 192.174 60.58C192.558 60.892 193.086 61.144 193.758 61.336C194.454 61.528 195.282 61.72 196.242 61.912C197.106 62.08 197.97 62.284 198.834 62.524C199.722 62.764 200.538 63.088 201.282 63.496C202.026 63.904 202.614 64.456 203.046 65.152C203.502 65.848 203.73 66.724 203.73 67.78C203.73 68.956 203.406 69.976 202.758 70.84C202.11 71.68 201.174 72.34 199.95 72.82C198.75 73.276 197.298 73.504 195.594 73.504Z" fill="white"/>
<path d="M45.1934 114.052V115.727H34.0872V97.2248H45.0131V98.8998H36.0199V105.342H44.24V107.017H36.0199V114.052H45.1934ZM50.4582 115.727H48.6545V102.147H50.3294V104.698C51.2313 102.945 52.8289 101.889 54.7616 101.889C56.8746 101.889 58.4465 103.048 59.0134 105.033C59.8637 103.126 61.5644 101.889 63.7032 101.889C66.512 101.889 68.2642 103.744 68.2642 106.914V115.727H66.4862V107.506C66.4862 104.93 65.3009 103.461 63.1105 103.461C61.0491 103.461 59.3741 105.265 59.3741 107.764V115.727H57.5703V107.506C57.5703 104.93 56.385 103.461 54.1947 103.461C52.1074 103.461 50.4582 105.265 50.4582 107.764V115.727ZM84.5036 108.924C84.5036 113.124 82.1586 115.984 78.5511 115.984C76.5153 115.984 74.7889 114.876 73.8612 112.944V120.7H72.0574V102.147H73.7324V105.084C74.66 103.074 76.4638 101.889 78.5511 101.889C82.1586 101.889 84.5036 104.775 84.5036 108.924ZM82.674 108.924C82.674 105.496 80.896 103.461 78.2418 103.461C75.7165 103.461 73.8354 105.471 73.8354 108.924C73.8354 112.299 75.665 114.412 78.2418 114.412C80.896 114.412 82.674 112.402 82.674 108.924ZM92.8449 115.984C89.1085 115.984 86.4028 113.021 86.4028 108.924C86.4028 104.852 89.1085 101.915 92.8449 101.915C96.6071 101.915 99.3128 104.852 99.3128 108.924C99.3128 113.021 96.6071 115.984 92.8449 115.984ZM92.8449 114.412C95.499 114.412 97.4832 112.299 97.4832 108.924C97.4832 105.6 95.499 103.487 92.8449 103.487C90.2165 103.487 88.2323 105.6 88.2323 108.924C88.2323 112.299 90.2165 114.412 92.8449 114.412ZM113.265 115.727L109.709 104.543L106.179 115.727H104.349L100.381 102.147H102.159L105.303 113.175L108.833 102.147H110.611L114.115 113.201L117.259 102.147H119.063L115.069 115.727H113.265ZM126.462 115.984C122.648 115.984 120.123 113.124 120.123 108.821C120.123 104.852 122.752 101.889 126.359 101.889C130.224 101.889 132.75 105.007 132.44 109.362H121.927C122.082 112.583 123.782 114.567 126.436 114.567C128.704 114.567 130.276 113.304 130.714 111.14H132.492C131.874 114.155 129.58 115.984 126.462 115.984ZM126.333 103.28C123.885 103.28 122.159 105.162 121.927 108.125H130.559C130.405 105.084 128.833 103.28 126.333 103.28ZM137.225 108.46V115.727H135.422V102.147H137.096V105.239C138.024 103.229 140.034 101.94 142.276 101.94V103.822C139.416 103.718 137.225 105.496 137.225 108.46ZM146.826 99.0029C146.826 99.8017 146.233 100.369 145.357 100.369C144.507 100.369 143.914 99.8017 143.914 99.0029C143.914 98.2298 144.507 97.6629 145.357 97.6629C146.233 97.6629 146.826 98.2298 146.826 99.0029ZM146.285 115.727H144.481V102.147H146.285V115.727ZM151.997 107.816V115.727H150.193V102.147H151.868V104.698C152.744 103.023 154.393 101.889 156.352 101.889C159.186 101.889 161.016 103.693 161.016 106.914V115.727H159.212V107.532C159.212 104.93 158.027 103.461 155.811 103.461C153.698 103.461 151.997 105.29 151.997 107.816ZM169.942 120.983C166.489 120.983 164.324 119.18 164.169 116.139H165.896C166.051 118.355 167.494 119.54 169.916 119.54C172.596 119.54 174.013 118.123 174.013 115.443V112.609C173.188 114.515 171.539 115.623 169.529 115.623C166.102 115.623 163.809 112.866 163.809 108.743C163.809 104.62 166.076 101.889 169.504 101.889C171.539 101.889 173.24 103.048 174.116 105.033V102.147H175.791V115.417C175.791 118.922 173.652 120.983 169.942 120.983ZM165.612 108.743C165.612 112.067 167.184 114.077 169.787 114.077C172.338 114.077 174.039 112.016 174.039 108.872C174.039 105.548 172.364 103.435 169.787 103.435C167.21 103.435 165.612 105.445 165.612 108.743ZM195.79 115.727H185.225V97.2248H187.158V114H195.79V115.727ZM200.879 99.0029C200.879 99.8017 200.286 100.369 199.41 100.369C198.56 100.369 197.967 99.8017 197.967 99.0029C197.967 98.2298 198.56 97.6629 199.41 97.6629C200.286 97.6629 200.879 98.2298 200.879 99.0029ZM200.338 115.727H198.534V102.147H200.338V115.727ZM214.708 102.147L209.477 115.727H207.596L202.417 102.147H204.349L208.601 113.614L212.853 102.147H214.708ZM221.735 115.984C217.921 115.984 215.396 113.124 215.396 108.821C215.396 104.852 218.024 101.889 221.632 101.889C225.497 101.889 228.022 105.007 227.713 109.362H217.2C217.354 112.583 219.055 114.567 221.709 114.567C223.977 114.567 225.549 113.304 225.987 111.14H227.765C227.146 114.155 224.853 115.984 221.735 115.984ZM221.606 103.28C219.158 103.28 217.432 105.162 217.2 108.125H225.832C225.677 105.084 224.106 103.28 221.606 103.28ZM240.847 111.939C240.847 114.438 238.837 115.984 235.487 115.984C232.112 115.984 230.05 114.284 229.792 111.475H231.519C231.648 113.407 233.168 114.619 235.487 114.619C237.703 114.619 239.043 113.768 239.043 112.222C239.043 110.882 238.27 110.264 236.209 109.851L234.25 109.465C231.673 108.975 230.308 107.713 230.308 105.754C230.308 103.487 232.318 101.889 235.281 101.889C238.399 101.889 240.46 103.564 240.667 106.27H238.966C238.786 104.388 237.42 103.28 235.281 103.28C233.374 103.28 232.06 104.182 232.06 105.6C232.06 106.94 232.885 107.584 234.894 107.97L236.93 108.357C239.636 108.872 240.847 110.006 240.847 111.939ZM260.679 115.727L257.123 104.543L253.592 115.727H251.763L247.794 102.147H249.572L252.716 113.175L256.246 102.147H258.024L261.529 113.201L264.673 102.147H266.477L262.482 115.727H260.679ZM271.163 99.0029C271.163 99.8017 270.571 100.369 269.695 100.369C268.844 100.369 268.252 99.8017 268.252 99.0029C268.252 98.2298 268.844 97.6629 269.695 97.6629C270.571 97.6629 271.163 98.2298 271.163 99.0029ZM270.622 115.727H268.818V102.147H270.622V115.727ZM281.514 114V115.598C280.818 115.881 280.226 115.984 279.556 115.984C277.314 115.984 275.587 114.825 275.587 111.887V103.667H272.392V102.147H275.587V98.1267H277.391V102.147H281.643V103.667H277.391V111.501C277.391 113.614 278.422 114.335 279.916 114.335C280.483 114.335 280.947 114.232 281.514 114ZM286.174 107.816V115.727H284.37V97.2248H286.174V104.646C287.024 103.023 288.57 101.889 290.529 101.889C293.363 101.889 295.193 103.693 295.193 106.914V115.727H293.389V107.532C293.389 104.93 292.204 103.461 289.988 103.461C287.875 103.461 286.174 105.29 286.174 107.816ZM36.0199 150.727H34.0872V132.225H36.0199V150.727ZM41.8772 142.816V150.727H40.0734V137.147H41.7483V139.698C42.6244 138.023 44.2736 136.889 46.232 136.889C49.0665 136.889 50.8961 138.693 50.8961 141.914V150.727H49.0923V142.532C49.0923 139.93 47.907 138.461 45.6909 138.461C43.5779 138.461 41.8772 140.29 41.8772 142.816ZM61.652 149V150.598C60.9563 150.881 60.3636 150.984 59.6936 150.984C57.4518 150.984 55.7253 149.825 55.7253 146.887V138.667H52.53V137.147H55.7253V133.127H57.5291V137.147H61.7808V138.667H57.5291V146.501C57.5291 148.614 58.5598 149.335 60.0544 149.335C60.6213 149.335 61.0851 149.232 61.652 149ZM69.4143 150.984C65.6006 150.984 63.0753 148.124 63.0753 143.821C63.0753 139.852 65.7037 136.889 69.3113 136.889C73.1765 136.889 75.7018 140.007 75.3926 144.362H64.8791C65.0337 147.583 66.7344 149.567 69.3886 149.567C71.6562 149.567 73.2281 148.304 73.6661 146.14H75.4441C74.8257 149.155 72.5323 150.984 69.4143 150.984ZM69.2855 138.28C66.8375 138.28 65.111 140.162 64.8791 143.125H73.5115C73.3569 140.084 71.785 138.28 69.2855 138.28ZM83.25 155.983C79.797 155.983 77.6325 154.18 77.4778 151.139H79.2043C79.3589 153.355 80.802 154.54 83.2242 154.54C85.9041 154.54 87.3214 153.123 87.3214 150.443V147.609C86.4968 149.515 84.8476 150.623 82.8377 150.623C79.4105 150.623 77.1171 147.866 77.1171 143.743C77.1171 139.62 79.3847 136.889 82.8119 136.889C84.8476 136.889 86.5483 138.048 87.4244 140.033V137.147H89.0994V150.417C89.0994 153.922 86.9606 155.983 83.25 155.983ZM78.9209 143.743C78.9209 147.067 80.4927 149.077 83.0954 149.077C85.6464 149.077 87.3471 147.016 87.3471 143.872C87.3471 140.548 85.6722 138.435 83.0954 138.435C80.5185 138.435 78.9209 140.445 78.9209 143.743ZM94.8232 143.46V150.727H93.0194V137.147H94.6944V140.239C95.622 138.229 97.632 136.94 99.8738 136.94V138.822C97.0135 138.718 94.8232 140.496 94.8232 143.46ZM104.424 134.003C104.424 134.802 103.831 135.369 102.955 135.369C102.104 135.369 101.512 134.802 101.512 134.003C101.512 133.23 102.104 132.663 102.955 132.663C103.831 132.663 104.424 133.23 104.424 134.003ZM103.882 150.727H102.079V137.147H103.882V150.727ZM114.774 149V150.598C114.078 150.881 113.486 150.984 112.816 150.984C110.574 150.984 108.847 149.825 108.847 146.887V138.667H105.652V137.147H108.847V133.127H110.651V137.147H114.903V138.667H110.651V146.501C110.651 148.614 111.682 149.335 113.177 149.335C113.743 149.335 114.207 149.232 114.774 149ZM128.092 137.147L121.135 155.7H119.202L121.186 150.546L115.801 137.147H117.733L122.114 148.382L126.263 137.147H128.092ZM143.922 150.727V148.253C143.123 149.954 141.474 150.984 139.36 150.984C136.552 150.984 134.722 149.412 134.722 146.964C134.722 144.31 136.835 142.919 140.958 142.919C141.783 142.919 142.401 142.97 143.741 143.073V141.94C143.741 139.672 142.53 138.332 140.469 138.332C138.252 138.332 136.861 139.698 136.835 141.914H135.186C135.263 138.899 137.351 136.889 140.443 136.889C143.612 136.889 145.468 138.744 145.468 141.888V150.727H143.922ZM136.449 146.913C136.449 148.562 137.711 149.67 139.618 149.67C142.143 149.67 143.741 148.021 143.741 145.47V144.259C142.582 144.156 141.783 144.13 141.035 144.13C137.943 144.13 136.449 145.032 136.449 146.913ZM151.066 142.816V150.727H149.262V137.147H150.937V139.698C151.813 138.023 153.462 136.889 155.421 136.889C158.255 136.889 160.085 138.693 160.085 141.914V150.727H158.281V142.532C158.281 139.93 157.096 138.461 154.88 138.461C152.767 138.461 151.066 140.29 151.066 142.816ZM162.878 143.924C162.878 139.749 165.197 136.889 168.856 136.889C170.892 136.889 172.618 138.048 173.52 139.981V132.225H175.324V150.727H173.649V147.866C172.695 149.85 170.943 150.984 168.856 150.984C165.197 150.984 162.878 148.098 162.878 143.924ZM164.707 143.924C164.707 147.377 166.459 149.412 169.114 149.412C171.742 149.412 173.546 147.274 173.546 143.872C173.546 140.445 171.69 138.461 169.114 138.461C166.459 138.461 164.707 140.471 164.707 143.924ZM186.68 150.727H184.747V132.225H186.68V150.727ZM192.537 142.816V150.727H190.733V137.147H192.408V139.698C193.284 138.023 194.933 136.889 196.892 136.889C199.726 136.889 201.556 138.693 201.556 141.914V150.727H199.752V142.532C199.752 139.93 198.567 138.461 196.351 138.461C194.238 138.461 192.537 140.29 192.537 142.816ZM207.157 142.816V150.727H205.354V137.147H207.029V139.698C207.905 138.023 209.554 136.889 211.512 136.889C214.347 136.889 216.176 138.693 216.176 141.914V150.727H214.373V142.532C214.373 139.93 213.187 138.461 210.971 138.461C208.858 138.461 207.157 140.29 207.157 142.816ZM225.411 150.984C221.675 150.984 218.969 148.021 218.969 143.924C218.969 139.852 221.675 136.915 225.411 136.915C229.174 136.915 231.879 139.852 231.879 143.924C231.879 148.021 229.174 150.984 225.411 150.984ZM225.411 149.412C228.065 149.412 230.05 147.299 230.05 143.924C230.05 140.6 228.065 138.487 225.411 138.487C222.783 138.487 220.799 140.6 220.799 143.924C220.799 147.299 222.783 149.412 225.411 149.412ZM244.855 137.147L239.624 150.727H237.743L232.564 137.147H234.496L238.748 148.614L243 137.147H244.855ZM255.023 150.727V148.253C254.224 149.954 252.575 150.984 250.462 150.984C247.653 150.984 245.823 149.412 245.823 146.964C245.823 144.31 247.936 142.919 252.059 142.919C252.884 142.919 253.502 142.97 254.842 143.073V141.94C254.842 139.672 253.631 138.332 251.57 138.332C249.354 138.332 247.962 139.698 247.936 141.914H246.287C246.364 138.899 248.452 136.889 251.544 136.889C254.713 136.889 256.569 138.744 256.569 141.888V150.727H255.023ZM247.55 146.913C247.55 148.562 248.812 149.67 250.719 149.67C253.245 149.67 254.842 148.021 254.842 145.47V144.259C253.683 144.156 252.884 144.13 252.137 144.13C249.044 144.13 247.55 145.032 247.55 146.913ZM267.271 149V150.598C266.575 150.881 265.982 150.984 265.312 150.984C263.071 150.984 261.344 149.825 261.344 146.887V138.667H258.149V137.147H261.344V133.127H263.148V137.147H267.4V138.667H263.148V146.501C263.148 148.614 264.179 149.335 265.673 149.335C266.24 149.335 266.704 149.232 267.271 149ZM272.472 134.003C272.472 134.802 271.879 135.369 271.003 135.369C270.153 135.369 269.56 134.802 269.56 134.003C269.56 133.23 270.153 132.663 271.003 132.663C271.879 132.663 272.472 133.23 272.472 134.003ZM271.931 150.727H270.127V137.147H271.931V150.727ZM281.276 150.984C277.54 150.984 274.834 148.021 274.834 143.924C274.834 139.852 277.54 136.915 281.276 136.915C285.039 136.915 287.744 139.852 287.744 143.924C287.744 148.021 285.039 150.984 281.276 150.984ZM281.276 149.412C283.931 149.412 285.915 147.299 285.915 143.924C285.915 140.6 283.931 138.487 281.276 138.487C278.648 138.487 276.664 140.6 276.664 143.924C276.664 147.299 278.648 149.412 281.276 149.412ZM292.465 142.816V150.727H290.661V137.147H292.336V139.698C293.212 138.023 294.861 136.889 296.82 136.889C299.654 136.889 301.484 138.693 301.484 141.914V150.727H299.68V142.532C299.68 139.93 298.495 138.461 296.279 138.461C294.166 138.461 292.465 140.29 292.465 142.816Z" fill="white"/>
<g clip-path="url(#clip1_1998_36487)">
<path d="M476.4 512.95C476.4 512.95 518.3 434.42 468.98 396.95C441.46 376.04 403.88 413.16 375.98 357.04C359.74 324.37 302.91 314.46 274.5 359.04C246.09 403.62 221.65 403.42 202 395.17C179.52 385.71 169.64 357.24 134.44 363.26C93.76 370.26 99.21 412.41 69.23 405.06C11.47 390.9 -31.36 471.83 8.60002 513.51L476.4 512.95Z" fill="#FAFAFA"/>
</g>
<g clip-path="url(#clip2_1998_36487)">
<path d="M240.614 461.989H219.513V462.217H240.614V461.989Z" fill="#EBEBEB"/>
<path d="M310.509 497.295C407.987 497.295 487.009 492.681 487.009 486.99C487.009 481.299 407.987 476.686 310.509 476.686C213.031 476.686 134.009 481.299 134.009 486.99C134.009 492.681 213.031 497.295 310.509 497.295Z" fill="#F5F5F5"/>
<path d="M278.182 249.791C276.17 254.679 264.327 254.342 251.92 249.236C239.512 244.129 231.074 236 233.085 231.111C233.559 229.983 234.906 225.759 236.253 225.167C240.878 223.219 249.68 227.607 259.211 231.539C268.087 235.18 278.237 237.556 279.812 242.381C280.758 245.303 278.756 248.407 278.182 249.791Z" fill="#00B46B"/>
<path opacity="0.2" d="M279.81 242.375C280.565 246.208 278.9 248.038 278.18 249.785C277.461 251.533 275.358 252.68 272.418 253.09C272.063 253.144 271.699 253.181 271.308 253.208C269.053 253.345 266.79 253.226 264.562 252.853C264.244 252.853 263.925 252.762 263.597 252.698C260.978 252.229 258.398 251.566 255.878 250.714L254.968 250.404C253.957 250.049 252.919 249.658 251.882 249.23C250.844 248.802 249.861 248.32 248.887 247.892L248.049 247.491C245.753 246.36 243.541 245.064 241.431 243.613L240.685 243.095C238.841 241.772 237.152 240.245 235.651 238.543C235.423 238.288 235.214 238.042 235.014 237.787C233.056 235.311 232.283 232.945 233.056 231.069C233.566 229.85 234.659 225.708 236.224 225.116C238.149 224.568 240.189 224.568 242.114 225.116L243.024 225.334C247.576 226.5 253.311 229.094 259.164 231.506C266.064 234.356 274.23 237.314 278.235 240.728C278.481 240.937 278.699 241.146 278.918 241.365C279.242 241.677 279.541 242.015 279.81 242.375Z" fill="black"/>
<g opacity="0.2">
<path d="M243.489 224.615L243.07 225.371L235.678 238.597C235.451 238.342 235.242 238.097 235.041 237.842L242.142 225.152L242.697 224.169L243.489 224.615Z" fill="black"/>
</g>
<g opacity="0.2">
<path d="M249.076 229.992L241.457 243.647L240.711 243.128L248.284 229.573L249.076 229.992Z" fill="black"/>
</g>
<g opacity="0.2">
<path d="M263.089 237.823L255.888 250.722L254.978 250.413L262.26 237.377L263.089 237.823Z" fill="black"/>
</g>
<g opacity="0.2">
<path d="M256.564 234.178L248.908 247.896L248.071 247.495L255.772 233.731L256.564 234.178Z" fill="black"/>
</g>
<g opacity="0.2">
<path d="M271.576 240.312L264.558 252.856C264.239 252.856 263.92 252.765 263.593 252.702L270.775 239.866L271.576 240.312Z" fill="black"/>
</g>
<path d="M279.757 245.496C277.745 250.384 266.047 250.193 253.631 245.077C241.214 239.961 232.785 231.841 234.806 226.962C236.826 222.083 248.515 222.265 260.931 227.381C273.348 232.497 281.768 240.617 279.757 245.496Z" fill="#00B46B"/>
<path opacity="0.2" d="M275.535 243.757C274.097 247.234 264.994 246.725 255.172 242.683C245.35 238.641 238.54 232.542 239.96 229.092C241.381 225.642 250.502 226.133 260.333 230.184C270.165 234.235 276.965 240.307 275.535 243.757Z" fill="white"/>
<path d="M340.919 205.608C344.187 209.787 337.988 219.918 327.364 228.111C316.741 236.304 305.517 239.618 302.285 235.439C301.539 234.465 298.517 231.234 298.699 229.732C299.308 224.743 307.492 219.299 315.649 212.982C323.241 207.101 330.332 199.473 335.293 200.511C338.306 201.13 339.999 204.443 340.919 205.608Z" fill="#00B46B"/>
<path opacity="0.2" d="M335.297 200.505C339.002 201.761 339.767 204.146 340.923 205.612C342.079 207.077 342.034 209.49 340.923 212.248C340.796 212.585 340.641 212.922 340.477 213.267C339.48 215.291 338.258 217.197 336.836 218.948C336.645 219.212 336.435 219.458 336.226 219.703C334.506 221.736 332.635 223.635 330.627 225.384L329.927 225.994C329.116 226.695 328.261 227.405 327.378 228.078C326.495 228.752 325.612 229.407 324.72 230.026L323.964 230.545C321.837 231.975 319.61 233.249 317.301 234.359L316.481 234.742C314.428 235.69 312.275 236.407 310.064 236.881L309.099 237.045C305.976 237.518 303.537 237.045 302.29 235.397C301.488 234.359 298.439 231.346 298.703 229.699C299.177 227.753 300.19 225.98 301.625 224.583C301.825 224.355 302.044 224.118 302.271 223.882C305.558 220.477 310.646 216.836 315.653 212.958C321.561 208.406 328.188 202.762 333.131 200.996C333.429 200.887 333.733 200.793 334.041 200.714C334.454 200.613 334.874 200.543 335.297 200.505Z" fill="black"/>
<g opacity="0.2">
<path d="M301.806 223.179L302.261 223.916L310.054 236.915L309.089 237.079L301.615 224.617L301.032 223.643L301.806 223.179Z" fill="black"/>
</g>
<g opacity="0.2">
<path d="M309.265 221.006L317.294 234.397L316.474 234.779L308.482 221.47L309.265 221.006Z" fill="black"/>
</g>
<g opacity="0.2">
<path d="M323.024 212.753L330.625 225.388L329.924 225.998L322.241 213.181L323.024 212.753Z" fill="black"/>
</g>
<g opacity="0.2">
<path d="M316.634 216.587L324.717 230.06L323.962 230.578L315.842 217.051L316.634 216.587Z" fill="black"/>
</g>
<g opacity="0.2">
<path d="M329.415 206.619L336.806 218.945C336.615 219.209 336.406 219.455 336.197 219.7L328.632 207.083L329.415 206.619Z" fill="black"/>
</g>
<path d="M324.608 224.544C335.225 216.321 341.208 206.269 337.972 202.091C334.737 197.914 323.508 201.194 312.891 209.417C302.275 217.64 296.292 227.692 299.527 231.869C302.763 236.047 313.992 232.767 324.608 224.544Z" fill="#00B46B"/>
<path opacity="0.2" d="M323.29 222.021C331.692 215.512 336.649 207.842 334.362 204.889C332.074 201.936 323.409 204.818 315.006 211.326C306.604 217.834 301.647 225.504 303.934 228.458C306.221 231.411 314.887 228.529 323.29 222.021Z" fill="white"/>
<path d="M296.977 186.032C295.903 192.022 282.504 194.57 267.283 191.858C252.063 189.145 240.584 182.09 241.649 176.1C241.895 174.717 242.322 169.637 243.752 168.627C248.476 165.295 259.454 168.08 271.143 170.156C282.067 172.095 294.019 172.25 296.977 177.293C298.771 180.342 297.278 184.329 296.977 186.032Z" fill="#00B46B"/>
<path opacity="0.2" d="M296.978 177.287C298.799 181.42 297.352 183.887 296.978 186.035C296.605 188.183 294.521 189.986 291.316 191.16C290.925 191.315 290.515 191.442 290.096 191.57C287.591 192.279 285.014 192.703 282.413 192.835C282.04 192.835 281.676 192.835 281.294 192.899C278.231 193.016 275.164 192.903 272.118 192.562C271.763 192.562 271.408 192.471 271.053 192.426C269.824 192.28 268.559 192.098 267.293 191.861C266.028 191.624 264.799 191.379 263.588 191.096L262.551 190.851C259.691 190.144 256.885 189.232 254.157 188.12C253.821 187.992 253.502 187.847 253.183 187.719C250.791 186.699 248.52 185.417 246.411 183.896C246.092 183.668 245.801 183.432 245.5 183.204C242.678 180.892 241.231 178.425 241.641 176.113C241.914 174.62 242.132 169.741 243.734 168.639C245.337 167.538 247.631 167.192 250.361 167.183C250.716 167.183 251.081 167.183 251.454 167.183C256.916 167.356 263.952 168.876 271.135 170.159C279.601 171.661 289.514 172.981 294.848 175.84C295.161 176.006 295.465 176.188 295.759 176.386C296.186 176.657 296.594 176.958 296.978 177.287Z" fill="black"/>
<g opacity="0.2">
<path d="M251.755 166.21L251.464 167.175L246.402 183.87C246.084 183.642 245.792 183.405 245.492 183.178L250.353 167.156L250.735 165.909L251.755 166.21Z" fill="black"/>
</g>
<g opacity="0.2">
<path d="M259.366 170.911L254.15 188.107C253.813 187.98 253.495 187.834 253.176 187.707L258.365 170.593L259.366 170.911Z" fill="black"/>
</g>
<g opacity="0.2">
<path d="M277.051 176.268L272.108 192.553C271.753 192.553 271.398 192.462 271.042 192.416L276.04 175.958L277.051 176.268Z" fill="black"/>
</g>
<g opacity="0.2">
<path d="M268.833 173.772L263.58 191.068L262.542 190.822L267.822 173.444L268.833 173.772Z" fill="black"/>
</g>
<g opacity="0.2">
<path d="M287.227 176.989L282.412 192.829C282.039 192.829 281.675 192.829 281.292 192.892L286.217 176.68L287.227 176.989Z" fill="black"/>
</g>
<path d="M297.684 180.812C298.749 174.822 287.271 167.771 272.045 165.062C256.82 162.352 243.613 165.011 242.547 171C241.482 176.99 252.96 184.041 268.186 186.75C283.411 189.46 296.618 186.801 297.684 180.812Z" fill="#00B46B"/>
<path opacity="0.2" d="M292.5 179.886C293.253 175.654 284.097 170.485 272.049 168.341C260.002 166.198 249.625 167.89 248.872 172.122C248.119 176.354 257.275 181.523 269.322 183.667C281.37 185.811 291.747 184.118 292.5 179.886Z" fill="white"/>
<path d="M376.443 338.951L282.763 344.413C279.452 344.602 276.203 345.395 273.177 346.752L171.423 392.268C169.637 393.054 168.175 394.43 167.28 396.164C166.385 397.899 166.113 399.888 166.507 401.799L183.348 481.305C183.633 482.585 184.207 483.782 185.026 484.806C185.845 485.83 186.888 486.653 188.073 487.213C189.259 487.772 190.557 488.053 191.868 488.034C193.179 488.016 194.468 487.697 195.637 487.104L296.072 436.964L388.787 433.842C389.928 433.811 391.05 433.538 392.077 433.04C393.104 432.542 394.014 431.832 394.745 430.955C395.476 430.078 396.012 429.056 396.318 427.956C396.623 426.855 396.69 425.703 396.515 424.575L384.108 348.455C383.461 344.522 380.476 338.833 376.443 338.951Z" fill="#00B46B"/>
<path opacity="0.1" d="M376.443 338.951L282.763 344.413C279.452 344.602 276.203 345.395 273.177 346.752L171.423 392.268C169.637 393.054 168.175 394.43 167.28 396.164C166.385 397.899 166.113 399.888 166.507 401.799L183.348 481.305C183.633 482.585 184.207 483.782 185.026 484.806C185.845 485.83 186.888 486.653 188.073 487.213C189.259 487.772 190.557 488.053 191.868 488.034C193.179 488.016 194.468 487.697 195.637 487.104L296.072 436.964L388.787 433.842C389.928 433.811 391.05 433.538 392.077 433.04C393.104 432.542 394.014 431.832 394.745 430.955C395.476 430.078 396.012 429.056 396.318 427.956C396.623 426.855 396.69 425.703 396.515 424.575L384.108 348.455C383.461 344.522 380.476 338.833 376.443 338.951Z" fill="black"/>
<path d="M188.404 287.178L139.242 332.495L227.465 428.202L276.627 382.884L188.404 287.178Z" fill="#00B46B"/>
<path opacity="0.5" d="M276.617 382.901L227.451 428.217L139.242 332.507L171.504 302.767L188.408 287.191L191.221 290.241L276.617 382.901Z" fill="#FAFAFA"/>
<path d="M188.72 293.027L145.342 333.014L227.863 422.536L271.242 382.549L188.72 293.027Z" stroke="#00B46B" stroke-width="0.91031" stroke-miterlimit="10"/>
<path d="M218.053 368.377C223.028 363.79 222.399 355.014 216.647 348.774C210.895 342.534 202.199 341.194 197.223 345.78C192.248 350.367 192.877 359.143 198.629 365.383C204.381 371.623 213.077 372.963 218.053 368.377Z" fill="#00B46B"/>
<path opacity="0.1" d="M226.937 389.374L209.468 395.409L171.508 302.767L188.413 287.191L191.225 290.241L226.937 389.374Z" fill="black"/>
<path d="M230.331 249.676L167.473 272.468L211.843 394.837L274.701 372.046L230.331 249.676Z" fill="#00B46B"/>
<path opacity="0.5" d="M230.331 249.676L167.473 272.468L211.843 394.837L274.701 372.046L230.331 249.676Z" fill="#FAFAFA"/>
<path d="M228.363 255.205L172.899 275.315L214.402 389.778L269.866 369.667L228.363 255.205Z" stroke="#00B46B" stroke-width="0.91031" stroke-miterlimit="10"/>
<path d="M226.294 336.033C232.656 333.727 235.468 325.389 232.576 317.411C229.683 309.433 222.181 304.835 215.819 307.142C209.457 309.448 206.645 317.786 209.538 325.764C212.43 333.742 219.933 338.34 226.294 336.033Z" fill="#00B46B"/>
<path d="M377.054 342.182L284.657 347.362C281.382 347.546 278.17 348.333 275.181 349.683L174.919 394.971C173.153 395.771 171.712 397.15 170.834 398.879C169.957 400.609 169.696 402.586 170.095 404.484L186.908 483.99C187.179 485.263 187.738 486.456 188.542 487.479C189.346 488.502 190.374 489.327 191.547 489.89C192.719 490.454 194.006 490.741 195.307 490.73C196.608 490.718 197.889 490.409 199.052 489.825L298.002 439.968L389.47 437.073C390.603 437.037 391.714 436.76 392.731 436.261C393.748 435.761 394.646 435.05 395.367 434.176C396.087 433.301 396.612 432.283 396.908 431.189C397.203 430.096 397.262 428.952 397.08 427.833L384.636 351.704C383.99 347.772 381.041 342.073 377.054 342.182Z" fill="#00B46B"/>
<path opacity="0.2" d="M288.413 361.323L367.692 356.435" stroke="black" stroke-width="1.82062" stroke-linecap="round" stroke-linejoin="round"/>
<path opacity="0.2" d="M278.92 363.374L293.403 429.899" stroke="black" stroke-width="1.82062" stroke-linecap="round" stroke-linejoin="round"/>
<path opacity="0.2" d="M182.352 423.426L192.565 474.603C192.565 474.603 200.394 454.294 182.352 423.426Z" fill="#FAFAFA"/>
<path opacity="0.2" d="M183.69 424.027C184.045 424.937 274.411 386.167 274.411 386.167C274.652 394.955 272.452 403.637 268.055 411.249C263.658 418.861 257.237 425.106 249.505 429.288C222.305 444.563 183.69 424.027 183.69 424.027Z" fill="#FAFAFA"/>
<path d="M243.715 425.539C245.877 425.539 247.629 423.786 247.629 421.624C247.629 419.462 245.877 417.71 243.715 417.71C241.553 417.71 239.801 419.462 239.801 421.624C239.801 423.786 241.553 425.539 243.715 425.539Z" fill="#00B46B"/>
<path opacity="0.2" d="M274.457 386.167C274.457 386.167 285.663 403.026 282.95 431.755L274.457 386.167Z" fill="black"/>
<g opacity="0.2">
<path d="M178.027 403.33L180.111 402.41" stroke="#FAFAFA" stroke-width="0.91031" stroke-linecap="round" stroke-linejoin="round"/>
<path d="M184.436 400.493L268.822 363.197" stroke="#FAFAFA" stroke-width="0.91031" stroke-linecap="round" stroke-linejoin="round" stroke-dasharray="4.73 4.73"/>
<path d="M270.985 362.24L273.06 361.32" stroke="#FAFAFA" stroke-width="0.91031" stroke-linecap="round" stroke-linejoin="round"/>
</g>
<path opacity="0.2" d="M291.073 376.283L370.352 371.395" stroke="black" stroke-width="1.82062" stroke-linecap="round" stroke-linejoin="round"/>
<path opacity="0.2" d="M294.643 394.926L373.922 390.047" stroke="black" stroke-width="1.82062" stroke-linecap="round" stroke-linejoin="round"/>
<path d="M356.542 262.419C356.542 262.419 354.549 283.638 346.657 285.459C341.77 286.515 336.675 286.009 332.092 284.011L325.683 279.087L322.552 290.01C322.552 290.01 325.974 294.662 333.12 291.44C333.12 291.44 345.865 297.056 352.91 291.44C359.956 285.823 362.214 270.448 362.214 270.448L356.542 262.419Z" fill="#B97964"/>
<path d="M362.888 252.134C362.888 252.134 357.38 242.749 359.884 225.735C362.387 208.721 376.652 206.619 382.159 207.838C387.666 209.058 392.172 214.365 395.923 224.424C399.673 234.483 401.057 237.114 407.311 235.348C413.565 233.582 430.205 228.066 434.839 232.972C436.171 234.318 437.151 235.971 437.693 237.786C438.234 239.601 438.32 241.521 437.943 243.377C437.943 243.377 461.092 237.742 459.089 258.388C457.087 279.034 423.678 298.305 391.899 277.905C360.12 257.505 362.888 252.134 362.888 252.134Z" fill="#263238"/>
<path d="M362.633 302.102C362.633 302.102 356.343 356.201 356.552 381.581C356.761 406.96 365.773 466.713 365.773 466.713H376.888C376.888 466.713 375.423 418.903 375.632 402.545C375.841 386.187 378.773 359.142 378.773 359.142C378.773 359.142 382.332 383.465 386.528 392.058C390.725 400.652 414.002 431.065 430.151 440.505L437.697 433.587C437.697 433.587 420.92 412.823 414.63 402.545C408.34 392.268 402.677 389.337 400.365 370.256C398.053 351.176 402.049 320.554 395.34 302.102H362.633Z" fill="#263238"/>
<path opacity="0.2" d="M378.774 359.141L373.94 324.85C373.94 324.85 370.126 345.468 377.636 370.638L378.774 359.141Z" fill="black"/>
<path d="M368.055 469.773L368.429 480.396L375.884 481.015L376.257 480.023V469.026L368.055 469.773Z" fill="#B97964"/>
<path d="M364.518 465.733L365.201 469.711L378 470.02L378.81 465.241L364.518 465.733Z" fill="#00B46B"/>
<path d="M426.651 441.25L438.512 430.189L441.125 434.359L430.938 443.671L426.651 441.25Z" fill="#00B46B"/>
<path d="M432.362 441.256L440.191 447.846L445.216 441.938L438.789 435.293L432.362 441.256Z" fill="#B97964"/>
<path d="M446.736 441.471L451.47 444.384C451.686 444.518 451.87 444.698 452.009 444.91C452.149 445.122 452.241 445.362 452.278 445.614C452.315 445.865 452.297 446.121 452.225 446.365C452.153 446.609 452.029 446.834 451.861 447.024C448.429 450.893 439.663 460.743 438.789 461.444C437.706 462.308 436.395 460.816 436.058 459.45C436.058 459.45 438.543 456.164 438.789 454.052C438.893 452.418 438.893 450.779 438.789 449.145C438.77 448.737 438.907 448.337 439.172 448.026L444.461 441.826C444.732 441.502 445.113 441.286 445.532 441.221C445.95 441.156 446.378 441.245 446.736 441.471Z" fill="#263238"/>
<path d="M377.707 481.286L378.69 486.748C378.736 486.998 378.726 487.255 378.661 487.5C378.596 487.746 378.479 487.974 378.317 488.169C378.154 488.364 377.951 488.522 377.722 488.63C377.492 488.738 377.242 488.795 376.988 488.796C371.808 488.796 358.627 488.851 357.526 488.669C356.151 488.441 356.397 486.475 357.207 485.328C357.207 485.328 361.313 484.982 363.033 483.735C364.315 482.734 365.531 481.651 366.674 480.494C366.968 480.21 367.358 480.048 367.767 480.039L375.914 479.839C376.337 479.824 376.752 479.962 377.081 480.228C377.411 480.494 377.633 480.87 377.707 481.286Z" fill="#263238"/>
<path d="M396.543 272.099L407.904 264.125C407.904 264.125 404.881 252.045 400.403 251.435C395.924 250.825 373.694 246.601 359.557 251.435C359.557 251.435 354.478 252.882 352.912 267.147L358.956 269.086C358.956 269.086 361.123 295.794 362.461 299.9H394.722C394.722 299.9 395.087 276.942 396.543 272.099Z" fill="#00B46B"/>
<path d="M398.989 270.381C398.989 270.381 403.295 282.67 404.06 289.279C404.06 289.279 393.828 285.201 391.188 283.335L389.185 276.143L382.412 272.875L380.437 278.273L386.045 285.319C386.045 285.319 401.456 299.729 409.267 296.434C417.077 293.139 406.181 265.365 406.181 265.365L398.989 270.381Z" fill="#B97964"/>
<path d="M370.089 216.566C370.089 216.566 366.148 224.431 366.448 230.831C366.748 237.23 369.98 239.843 376.125 240.744C376.125 240.744 378.746 248.937 371.864 249.765C371.336 249.829 371.154 251.913 371.191 252.25C371.373 253.579 372.693 254.308 373.922 254.617C375.215 254.908 376.537 255.055 377.863 255.054C379.256 255.104 380.641 254.836 381.914 254.269C383.187 253.703 384.314 252.854 385.209 251.786C385.355 251.622 386.739 249.847 386.739 249.847C386.739 249.847 383.453 248.218 384.609 237.549C386.177 236.528 387.381 235.036 388.05 233.288C388.677 232.956 389.231 232.503 389.681 231.954C390.131 231.406 390.468 230.773 390.671 230.093C391.163 227.963 389.279 225.005 385.838 227.963C385.838 227.963 379.356 224.677 376.898 213.207C375.074 215.064 372.673 216.248 370.089 216.566Z" fill="#B97964"/>
<path d="M371.937 229.085L372.493 224.879L369.516 228.174C369.823 228.501 370.201 228.753 370.621 228.911C371.041 229.069 371.491 229.128 371.937 229.085Z" fill="#A24E3F"/>
<path d="M373.661 232.173C373.661 232.173 376.801 232.647 378.313 230.635" stroke="#222221" stroke-width="0.682733" stroke-linecap="round" stroke-linejoin="round"/>
<path d="M376.81 219.006C377.523 218.804 378.278 218.797 378.994 218.988C379.71 219.179 380.362 219.559 380.879 220.09" stroke="#222221" stroke-width="0.91031" stroke-linecap="round" stroke-linejoin="round"/>
<path d="M371.372 218.097C371.372 218.097 369.551 217.814 368.741 218.852" stroke="#222221" stroke-width="0.91031" stroke-linecap="round" stroke-linejoin="round"/>
<path d="M378.072 224.523C377.99 225.16 377.581 225.624 377.162 225.57C376.743 225.515 376.461 224.96 376.543 224.323C376.625 223.685 377.035 223.221 377.453 223.276C377.872 223.33 378.154 223.886 378.072 224.523Z" fill="#222221"/>
<path d="M370.808 223.12C370.89 222.487 370.613 221.929 370.189 221.874C369.766 221.819 369.355 222.288 369.273 222.921C369.191 223.554 369.468 224.112 369.892 224.167C370.315 224.222 370.726 223.753 370.808 223.12Z" fill="#222221"/>
<path d="M377.463 223.276L376.043 222.647C376.064 222.802 376.124 222.948 376.217 223.073C376.311 223.198 376.435 223.296 376.577 223.359C376.72 223.422 376.876 223.448 377.031 223.433C377.186 223.418 377.335 223.364 377.463 223.276Z" fill="#222221"/>
<path d="M370.322 221.929L368.884 221.301C368.884 221.301 369.184 222.648 370.322 221.929Z" fill="#222221"/>
<path d="M361.332 298.484V302.271L396.288 302.571L395.351 298.047L361.332 298.484Z" fill="#00B46B"/>
<path opacity="0.4" d="M361.332 298.484V302.271L396.288 302.571L395.351 298.047L361.332 298.484Z" fill="white"/>
<path d="M361.76 280.053L342.535 346.933C341.895 349.172 340.599 351.167 338.814 352.662C337.029 354.156 334.837 355.081 332.521 355.317C331.046 355.458 329.558 355.323 328.134 354.917L291.384 344.348C288.414 343.493 285.905 341.494 284.406 338.791C282.908 336.088 282.543 332.901 283.392 329.929L302.627 263.039C303.484 260.071 305.483 257.563 308.186 256.067C310.889 254.57 314.075 254.207 317.046 255.056L353.822 265.625C356.786 266.489 359.286 268.493 360.774 271.198C362.262 273.903 362.616 277.087 361.76 280.053Z" fill="#00B46B"/>
<path opacity="0.2" d="M361.76 280.053L342.535 346.933C341.895 349.172 340.599 351.167 338.814 352.662C337.029 354.156 334.837 355.081 332.521 355.317C331.046 355.458 329.558 355.323 328.134 354.917L291.384 344.348C288.414 343.493 285.905 341.494 284.406 338.791C282.908 336.088 282.543 332.901 283.392 329.929L302.627 263.039C303.484 260.071 305.483 257.563 308.186 256.067C310.889 254.57 314.075 254.207 317.046 255.056L353.822 265.625C356.786 266.489 359.286 268.493 360.774 271.198C362.262 273.903 362.616 277.087 361.76 280.053Z" fill="black"/>
<path d="M358.565 280.843L339.339 347.723C338.853 349.426 337.985 350.995 336.8 352.31C335.615 353.626 334.145 354.654 332.503 355.315C331.028 355.456 329.54 355.32 328.115 354.915L291.384 344.346C288.414 343.491 285.905 341.492 284.406 338.789C282.908 336.086 282.543 332.898 283.392 329.927L302.627 263.037C303.113 261.335 303.981 259.768 305.166 258.453C306.351 257.139 307.821 256.113 309.463 255.454C310.938 255.308 312.427 255.444 313.851 255.855L350.627 266.414C353.589 267.281 356.088 269.285 357.575 271.99C359.063 274.694 359.419 277.877 358.565 280.843Z" fill="#00B46B"/>
<path opacity="0.5" d="M358.565 280.843L339.339 347.723C338.853 349.426 337.985 350.995 336.8 352.31C335.615 353.626 334.145 354.654 332.503 355.315C331.028 355.456 329.54 355.32 328.115 354.915L291.384 344.346C288.414 343.491 285.905 341.492 284.406 338.789C282.908 336.086 282.543 332.898 283.392 329.927L302.627 263.037C303.113 261.335 303.981 259.768 305.166 258.453C306.351 257.139 307.821 256.113 309.463 255.454C310.938 255.308 312.427 255.444 313.851 255.855L350.627 266.414C353.589 267.281 356.088 269.285 357.575 271.99C359.063 274.694 359.419 277.877 358.565 280.843Z" fill="#FAFAFA"/>
<path d="M306.871 286.529L302.937 285.42L288.778 335.66L292.712 336.769L306.871 286.529Z" fill="#FAFAFA"/>
<path d="M298.364 338.369L294.431 337.24L308.578 287.019L312.51 288.147L298.364 338.369Z" fill="#FAFAFA"/>
<path d="M304.083 340.01L300.151 338.881L314.306 288.65L318.239 289.779L304.083 340.01Z" fill="#FAFAFA"/>
<path opacity="0.5" d="M341.132 296.385L337.198 295.276L323.038 345.516L326.972 346.625L341.132 296.385Z" fill="black"/>
<path d="M340.633 282.164L338.721 288.982L336.391 288.327C335.262 288.007 334.306 287.252 333.732 286.228C333.159 285.204 333.015 283.995 333.332 282.865L334.606 278.313L339.313 279.661C339.819 279.818 340.243 280.17 340.49 280.639C340.738 281.109 340.789 281.657 340.633 282.164Z" fill="#FAFAFA"/>
<path d="M339.513 278.822L334.807 277.475L336.218 272.486C336.376 271.927 336.642 271.403 337.002 270.947C337.362 270.49 337.808 270.109 338.315 269.825C338.822 269.541 339.381 269.359 339.958 269.291C340.535 269.223 341.12 269.269 341.68 269.428L344.101 270.11L341.989 277.456C341.919 277.71 341.799 277.948 341.636 278.155C341.473 278.362 341.27 278.534 341.039 278.661C340.808 278.788 340.555 278.868 340.293 278.896C340.031 278.923 339.766 278.898 339.513 278.822Z" fill="#FAFAFA"/>
<path d="M343.974 281.055L348.707 282.412L347.451 286.863C347.296 287.424 347.031 287.948 346.671 288.406C346.312 288.864 345.866 289.247 345.358 289.531C344.85 289.815 344.291 289.996 343.712 290.063C343.134 290.13 342.549 290.082 341.989 289.922L339.531 289.23L341.488 282.421C341.561 282.167 341.682 281.93 341.847 281.724C342.011 281.518 342.215 281.346 342.446 281.219C342.677 281.092 342.931 281.012 343.193 280.984C343.456 280.956 343.721 280.98 343.974 281.055Z" fill="#FAFAFA"/>
<path d="M350.382 276.474L348.953 281.536L344.183 280.179C343.676 280.031 343.248 279.689 342.992 279.227C342.737 278.765 342.674 278.221 342.817 277.712L344.929 270.366L347.287 271.031C347.849 271.183 348.374 271.446 348.834 271.802C349.294 272.159 349.679 272.603 349.967 273.109C350.254 273.615 350.439 274.173 350.51 274.75C350.582 275.328 350.538 275.914 350.382 276.474Z" fill="#FAFAFA"/>
</g>
</g>
<defs>
<clipPath id="clip0_1998_36487">
<rect width="487" height="497" rx="20" fill="white"/>
</clipPath>
<clipPath id="clip1_1998_36487">
<rect width="500" height="184.51" fill="white" transform="translate(-7 329)"/>
</clipPath>
<clipPath id="clip2_1998_36487">
<rect width="353" height="333.292" fill="white" transform="translate(134 164)"/>
</clipPath>
</defs>
</svg>
