<svg width="280" height="281" viewBox="0 0 280 281" fill="none" xmlns="http://www.w3.org/2000/svg">
<path d="M129.016 54.7866C129.016 54.7866 120.31 99.6374 70.2483 101.409C20.1868 103.181 6.48769 175.39 57.3081 188.802C108.129 202.214 83.0925 236.925 116.543 243.956C154.562 251.946 155.034 195.7 181.471 194.795C239.82 192.8 270.014 166.077 248.913 144.403C211.872 106.356 192.789 112.489 194.084 82.0836C195.38 51.6786 140.567 18.1466 129.016 54.7866Z" fill="#FCEADD"/>
<path d="M186.424 87.0868L67.587 111.612C63.8008 112.394 61.3649 116.097 62.1463 119.883L77.4528 194.049C78.2342 197.835 81.9369 200.271 85.7231 199.49L204.56 174.964C208.347 174.183 210.783 170.48 210.001 166.694L194.695 92.5275C193.913 88.7413 190.21 86.3054 186.424 87.0868Z" fill="#A04A0E"/>
<path d="M182.937 95.9905L169.25 98.8152C166.978 99.284 165.517 101.506 165.986 103.777L168.81 117.464C169.279 119.736 171.501 121.197 173.773 120.728L187.459 117.904C189.731 117.435 191.192 115.213 190.724 112.942L187.899 99.2549C187.43 96.9832 185.208 95.5217 182.937 95.9905Z" fill="white"/>
<path d="M128.155 153.764L81.9744 163.295C81.823 163.326 81.7255 163.474 81.7568 163.626L83.1539 170.396C83.1852 170.547 83.3333 170.644 83.4848 170.613L129.665 161.083C129.817 161.051 129.914 160.903 129.883 160.752L128.486 153.982C128.454 153.83 128.306 153.733 128.155 153.764Z" fill="white"/>
<path d="M150.828 163.816L84.8914 177.424C84.74 177.455 84.6425 177.603 84.6738 177.755L86.0709 184.524C86.1022 184.676 86.2503 184.773 86.4018 184.742L152.338 171.134C152.49 171.103 152.587 170.955 152.556 170.803L151.159 164.034C151.128 163.882 150.98 163.785 150.828 163.816Z" fill="white"/>
<path d="M208.29 194.2C219.303 194.2 228.23 185.273 228.23 174.26C228.23 163.248 219.303 154.32 208.29 154.32C197.278 154.32 188.351 163.248 188.351 174.26C188.351 185.273 197.278 194.2 208.29 194.2Z" fill="#5C2B08" stroke="white" stroke-width="15" stroke-miterlimit="10"/>
<path d="M215.972 172.588H210.294C210.25 172.588 210.207 172.579 210.166 172.563C210.126 172.546 210.089 172.521 210.058 172.49C210.027 172.459 210.002 172.422 209.985 172.382C209.969 172.341 209.96 172.298 209.96 172.254V166.576C209.96 166.133 209.784 165.709 209.471 165.395C209.158 165.082 208.733 164.906 208.29 164.906C207.847 164.906 207.422 165.082 207.109 165.395C206.796 165.709 206.62 166.133 206.62 166.576V172.254C206.62 172.298 206.612 172.341 206.595 172.382C206.578 172.422 206.553 172.459 206.522 172.49C206.491 172.521 206.454 172.546 206.414 172.563C206.373 172.579 206.33 172.588 206.286 172.588H200.609C200.169 172.592 199.748 172.77 199.438 173.082C199.128 173.395 198.954 173.818 198.954 174.258C198.954 174.698 199.128 175.121 199.438 175.433C199.748 175.746 200.169 175.924 200.609 175.928H206.287C206.375 175.928 206.46 175.963 206.523 176.026C206.586 176.088 206.621 176.173 206.621 176.262V181.94C206.621 182.383 206.797 182.807 207.11 183.121C207.423 183.434 207.848 183.61 208.291 183.61C208.734 183.61 209.158 183.434 209.471 183.121C209.785 182.807 209.961 182.383 209.961 181.94V176.262C209.961 176.173 209.996 176.088 210.058 176.026C210.121 175.963 210.206 175.928 210.295 175.928H215.972C216.413 175.924 216.834 175.746 217.143 175.433C217.453 175.121 217.627 174.698 217.627 174.258C217.627 173.818 217.453 173.395 217.143 173.082C216.834 172.77 216.413 172.592 215.972 172.588Z" fill="white"/>
</svg>
