<svg width="180" height="121" viewBox="0 0 180 121" fill="none" xmlns="http://www.w3.org/2000/svg">
<rect x="1.28663" y="0.737805" width="177.25" height="119.293" rx="16.9695" fill="#F6F6F6"/>
<rect x="1.28663" y="0.737805" width="177.25" height="119.293" rx="16.9695" stroke="#EBEBEB" stroke-width="1.47561"/>
<path d="M13.5488 13.1641L14.2866 107.603" stroke="#F6F6F6" stroke-width="1.47561"/>
<rect x="15.0244" y="8.7378" width="150.512" height="103.293" rx="8.11585" fill="#FEFEFE" stroke="#E2E2E2" stroke-width="1.47561"/>
<path d="M56.4622 45.8906H54.3002V39.5104H56.5059C57.1393 39.5104 57.6835 39.6381 58.1383 39.8936C58.5952 40.147 58.9462 40.5115 59.1913 40.9871C59.4364 41.4627 59.5589 42.0318 59.5589 42.6943C59.5589 43.3589 59.4353 43.93 59.1882 44.4077C58.9431 44.8854 58.589 45.252 58.1258 45.5074C57.6648 45.7629 57.1102 45.8906 56.4622 45.8906ZM55.456 44.8906H56.4062C56.8506 44.8906 57.2213 44.8096 57.5183 44.6476C57.8153 44.4835 58.0386 44.2395 58.1881 43.9155C58.3377 43.5894 58.4124 43.1824 58.4124 42.6943C58.4124 42.2062 58.3377 41.8012 58.1881 41.4793C58.0386 41.1553 57.8174 40.9133 57.5246 40.7534C57.2338 40.5914 56.8724 40.5104 56.4404 40.5104H55.456V44.8906ZM61.9842 45.9872C61.681 45.9872 61.4079 45.9332 61.1649 45.8252C60.9239 45.7151 60.7329 45.5531 60.5916 45.3392C60.4525 45.1253 60.3829 44.8615 60.3829 44.5479C60.3829 44.2779 60.4327 44.0547 60.5324 43.8781C60.6321 43.7016 60.7682 43.5603 60.9405 43.4544C61.1129 43.3485 61.3071 43.2685 61.5231 43.2145C61.7412 43.1585 61.9665 43.118 62.1991 43.093C62.4795 43.064 62.7069 43.038 62.8814 43.0152C63.0559 42.9902 63.1826 42.9529 63.2615 42.903C63.3425 42.8511 63.383 42.7711 63.383 42.6631V42.6444C63.383 42.4097 63.3134 42.228 63.1742 42.0993C63.0351 41.9705 62.8347 41.9061 62.573 41.9061C62.2968 41.9061 62.0776 41.9663 61.9157 42.0868C61.7557 42.2073 61.6477 42.3495 61.5917 42.5136L60.5387 42.3641C60.6217 42.0733 60.7588 41.8303 60.9499 41.6351C61.141 41.4378 61.3746 41.2903 61.6508 41.1927C61.9271 41.093 62.2324 41.0432 62.5668 41.0432C62.7973 41.0432 63.0268 41.0702 63.2552 41.1242C63.4837 41.1782 63.6924 41.2675 63.8814 41.3921C64.0704 41.5146 64.222 41.6818 64.3363 41.8936C64.4526 42.1055 64.5107 42.3703 64.5107 42.6881V45.8906H63.4266V45.2333H63.3892C63.3207 45.3662 63.2241 45.4908 63.0995 45.6071C62.9769 45.7214 62.8222 45.8138 62.6353 45.8844C62.4505 45.9529 62.2334 45.9872 61.9842 45.9872ZM62.277 45.1585C62.5034 45.1585 62.6997 45.1139 62.8658 45.0246C63.032 44.9332 63.1597 44.8127 63.249 44.6632C63.3404 44.5136 63.3861 44.3506 63.3861 44.1741V43.6102C63.3508 43.6393 63.2906 43.6663 63.2054 43.6912C63.1223 43.7161 63.0289 43.7379 62.925 43.7566C62.8212 43.7753 62.7184 43.7919 62.6166 43.8065C62.5148 43.821 62.4266 43.8335 62.3518 43.8438C62.1836 43.8667 62.033 43.9041 61.9001 43.956C61.7672 44.0079 61.6623 44.0806 61.5854 44.1741C61.5086 44.2655 61.4702 44.3838 61.4702 44.5292C61.4702 44.7369 61.546 44.8937 61.6976 44.9996C61.8492 45.1056 62.0423 45.1585 62.277 45.1585ZM69.4267 42.3703L68.3987 42.4824C68.3696 42.3786 68.3187 42.281 68.246 42.1896C68.1754 42.0982 68.0799 42.0245 67.9594 41.9684C67.839 41.9123 67.6915 41.8843 67.517 41.8843C67.2823 41.8843 67.085 41.9352 66.9251 42.0369C66.7673 42.1387 66.6894 42.2706 66.6915 42.4326C66.6894 42.5717 66.7403 42.6849 66.8441 42.7722C66.95 42.8594 67.1245 42.931 67.3675 42.9871L68.1837 43.1616C68.6365 43.2592 68.9729 43.4139 69.1931 43.6258C69.4153 43.8376 69.5275 44.1149 69.5295 44.4576C69.5275 44.7587 69.4392 45.0246 69.2647 45.2551C69.0924 45.4836 68.8525 45.6622 68.5451 45.7909C68.2377 45.9197 67.8846 45.9841 67.4859 45.9841C66.9002 45.9841 66.4287 45.8615 66.0715 45.6165C65.7143 45.3693 65.5014 45.0256 65.4329 44.5853L66.5326 44.4794C66.5824 44.6954 66.6884 44.8584 66.8504 44.9685C67.0124 45.0786 67.2232 45.1336 67.4828 45.1336C67.7507 45.1336 67.9656 45.0786 68.1276 44.9685C68.2917 44.8584 68.3738 44.7224 68.3738 44.5604C68.3738 44.4233 68.3208 44.3101 68.2149 44.2208C68.111 44.1315 67.949 44.063 67.7289 44.0152L66.9127 43.8438C66.4537 43.7483 66.1141 43.5873 65.8939 43.361C65.6738 43.1325 65.5648 42.8438 65.5668 42.4949C65.5648 42.2 65.6447 41.9445 65.8067 41.7285C65.9708 41.5105 66.1982 41.3422 66.489 41.2238C66.7818 41.1034 67.1193 41.0432 67.5015 41.0432C68.0622 41.0432 68.5036 41.1626 68.8255 41.4014C69.1495 41.6403 69.3499 41.9632 69.4267 42.3703ZM71.5872 43.0868V45.8906H70.4595V39.5104H71.5623V41.9186H71.6184C71.7305 41.6486 71.904 41.4357 72.1386 41.2799C72.3754 41.1221 72.6766 41.0432 73.0421 41.0432C73.3744 41.0432 73.6641 41.1127 73.9113 41.2519C74.1584 41.391 74.3495 41.5946 74.4845 41.8625C74.6216 42.1304 74.6901 42.4575 74.6901 42.8438V45.8906H73.5624V43.0183C73.5624 42.6964 73.4793 42.4461 73.3131 42.2675C73.1491 42.0868 72.9185 41.9964 72.6215 41.9964C72.4221 41.9964 72.2435 42.0401 72.0857 42.1273C71.9299 42.2124 71.8074 42.336 71.7181 42.498C71.6308 42.66 71.5872 42.8563 71.5872 43.0868ZM75.8895 45.8906V39.5104H77.0173V41.8968H77.064C77.1222 41.7805 77.2042 41.6569 77.3101 41.526C77.416 41.3931 77.5593 41.2799 77.74 41.1865C77.9207 41.0909 78.1513 41.0432 78.4316 41.0432C78.8013 41.0432 79.1347 41.1377 79.4317 41.3266C79.7307 41.5136 79.9675 41.7908 80.142 42.1584C80.3185 42.524 80.4068 42.9726 80.4068 43.5043C80.4068 44.0297 80.3206 44.4763 80.1482 44.8439C79.9758 45.2115 79.7411 45.4919 79.4441 45.685C79.1471 45.8782 78.8107 45.9747 78.4348 45.9747C78.1606 45.9747 77.9332 45.929 77.7525 45.8377C77.5718 45.7463 77.4264 45.6362 77.3163 45.5074C77.2083 45.3766 77.1242 45.253 77.064 45.1367H76.9986V45.8906H75.8895ZM76.9955 43.498C76.9955 43.8075 77.0391 44.0785 77.1263 44.3111C77.2156 44.5438 77.3433 44.7255 77.5095 44.8563C77.6777 44.9851 77.8813 45.0495 78.1201 45.0495C78.3693 45.0495 78.5781 44.983 78.7463 44.8501C78.9145 44.7151 79.0412 44.5313 79.1264 44.2987C79.2136 44.064 79.2572 43.7971 79.2572 43.498C79.2572 43.201 79.2146 42.9373 79.1295 42.7067C79.0443 42.4762 78.9176 42.2955 78.7494 42.1647C78.5812 42.0338 78.3714 41.9684 78.1201 41.9684C77.8792 41.9684 77.6746 42.0318 77.5064 42.1584C77.3382 42.2851 77.2104 42.4627 77.1232 42.6912C77.038 42.9196 76.9955 43.1886 76.9955 43.498ZM83.4528 45.9841C82.9855 45.9841 82.5805 45.8813 82.2378 45.6757C81.8951 45.4701 81.6293 45.1824 81.4403 44.8127C81.2534 44.443 81.1599 44.011 81.1599 43.5167C81.1599 43.0224 81.2534 42.5894 81.4403 42.2176C81.6293 41.8459 81.8951 41.5572 82.2378 41.3516C82.5805 41.146 82.9855 41.0432 83.4528 41.0432C83.9201 41.0432 84.3251 41.146 84.6678 41.3516C85.0105 41.5572 85.2753 41.8459 85.4622 42.2176C85.6512 42.5894 85.7457 43.0224 85.7457 43.5167C85.7457 44.011 85.6512 44.443 85.4622 44.8127C85.2753 45.1824 85.0105 45.4701 84.6678 45.6757C84.3251 45.8813 83.9201 45.9841 83.4528 45.9841ZM83.459 45.0806C83.7124 45.0806 83.9242 45.0111 84.0945 44.8719C84.2649 44.7307 84.3915 44.5417 84.4746 44.3049C84.5598 44.0681 84.6024 43.8044 84.6024 43.5136C84.6024 43.2208 84.5598 42.956 84.4746 42.7192C84.3915 42.4804 84.2649 42.2903 84.0945 42.1491C83.9242 42.0079 83.7124 41.9373 83.459 41.9373C83.1994 41.9373 82.9834 42.0079 82.811 42.1491C82.6407 42.2903 82.513 42.4804 82.4278 42.7192C82.3448 42.956 82.3032 43.2208 82.3032 43.5136C82.3032 43.8044 82.3448 44.0681 82.4278 44.3049C82.513 44.5417 82.6407 44.7307 82.811 44.8719C82.9834 45.0111 83.1994 45.0806 83.459 45.0806ZM88.0799 45.9872C87.7766 45.9872 87.5035 45.9332 87.2605 45.8252C87.0196 45.7151 86.8285 45.5531 86.6873 45.3392C86.5481 45.1253 86.4786 44.8615 86.4786 44.5479C86.4786 44.2779 86.5284 44.0547 86.6281 43.8781C86.7278 43.7016 86.8638 43.5603 87.0362 43.4544C87.2086 43.3485 87.4028 43.2685 87.6188 43.2145C87.8369 43.1585 88.0622 43.118 88.2948 43.093C88.5752 43.064 88.8026 43.038 88.9771 43.0152C89.1515 42.9902 89.2782 42.9529 89.3571 42.903C89.4381 42.8511 89.4786 42.7711 89.4786 42.6631V42.6444C89.4786 42.4097 89.4091 42.228 89.2699 42.0993C89.1308 41.9705 88.9303 41.9061 88.6687 41.9061C88.3924 41.9061 88.1733 41.9663 88.0113 42.0868C87.8514 42.2073 87.7434 42.3495 87.6873 42.5136L86.6343 42.3641C86.7174 42.0733 86.8545 41.8303 87.0456 41.6351C87.2366 41.4378 87.4703 41.2903 87.7465 41.1927C88.0227 41.093 88.328 41.0432 88.6624 41.0432C88.893 41.0432 89.1225 41.0702 89.3509 41.1242C89.5794 41.1782 89.7881 41.2675 89.9771 41.3921C90.1661 41.5146 90.3177 41.6818 90.4319 41.8936C90.5482 42.1055 90.6064 42.3703 90.6064 42.6881V45.8906H89.5223V45.2333H89.4849C89.4163 45.3662 89.3198 45.4908 89.1951 45.6071C89.0726 45.7214 88.9179 45.8138 88.731 45.8844C88.5461 45.9529 88.3291 45.9872 88.0799 45.9872ZM88.3727 45.1585C88.5991 45.1585 88.7953 45.1139 88.9615 45.0246C89.1276 44.9332 89.2554 44.8127 89.3447 44.6632C89.4361 44.5136 89.4818 44.3506 89.4818 44.1741V43.6102C89.4464 43.6393 89.3862 43.6663 89.3011 43.6912C89.218 43.7161 89.1245 43.7379 89.0207 43.7566C88.9168 43.7753 88.814 43.7919 88.7123 43.8065C88.6105 43.821 88.5222 43.8335 88.4475 43.8438C88.2792 43.8667 88.1287 43.9041 87.9957 43.956C87.8628 44.0079 87.7579 44.0806 87.6811 44.1741C87.6042 44.2655 87.5658 44.3838 87.5658 44.5292C87.5658 44.7369 87.6416 44.8937 87.7932 44.9996C87.9449 45.1056 88.138 45.1585 88.3727 45.1585ZM91.7404 45.8906V41.1055H92.8339V41.903H92.8837C92.9709 41.6268 93.1205 41.4139 93.3323 41.2643C93.5462 41.1127 93.7903 41.0369 94.0644 41.0369C94.1267 41.0369 94.1963 41.04 94.2731 41.0463C94.3521 41.0504 94.4175 41.0577 94.4694 41.0681V42.1055C94.4216 42.0889 94.3458 42.0743 94.242 42.0619C94.1402 42.0473 94.0416 42.0401 93.946 42.0401C93.7404 42.0401 93.5556 42.0847 93.3915 42.174C93.2295 42.2613 93.1018 42.3827 93.0083 42.5385C92.9149 42.6943 92.8681 42.8739 92.8681 43.0775V45.8906H91.7404ZM96.7974 45.9747C96.4214 45.9747 96.085 45.8782 95.788 45.685C95.491 45.4919 95.2563 45.2115 95.0839 44.8439C94.9115 44.4763 94.8253 44.0297 94.8253 43.5043C94.8253 42.9726 94.9126 42.524 95.087 42.1584C95.2636 41.7908 95.5014 41.5136 95.8004 41.3266C96.0995 41.1377 96.4329 41.0432 96.8005 41.0432C97.0809 41.0432 97.3114 41.0909 97.4921 41.1865C97.6728 41.2799 97.8161 41.3931 97.922 41.526C98.0279 41.6569 98.11 41.7805 98.1681 41.8968H98.2148V39.5104H99.3457V45.8906H98.2366V45.1367H98.1681C98.11 45.253 98.0258 45.3766 97.9158 45.5074C97.8057 45.6362 97.6603 45.7463 97.4796 45.8377C97.2989 45.929 97.0715 45.9747 96.7974 45.9747ZM97.112 45.0495C97.3508 45.0495 97.5544 44.9851 97.7226 44.8563C97.8908 44.7255 98.0186 44.5438 98.1058 44.3111C98.193 44.0785 98.2366 43.8075 98.2366 43.498C98.2366 43.1886 98.193 42.9196 98.1058 42.6912C98.0206 42.4627 97.894 42.2851 97.7257 42.1584C97.5596 42.0318 97.355 41.9684 97.112 41.9684C96.8607 41.9684 96.6509 42.0338 96.4827 42.1647C96.3145 42.2955 96.1878 42.4762 96.1026 42.7067C96.0175 42.9373 95.9749 43.201 95.9749 43.498C95.9749 43.7971 96.0175 44.064 96.1026 44.2987C96.1899 44.5313 96.3176 44.7151 96.4858 44.8501C96.6561 44.983 96.8649 45.0495 97.112 45.0495Z" fill="#313131"/>
<rect x="55.1465" y="51.6445" width="51.6463" height="2.95122" fill="#F6F6F6"/>
<rect x="18.2559" y="42.793" width="17.7073" height="2.95122" fill="#F6F6F6"/>
<rect x="18.2559" y="48.6953" width="17.7073" height="2.95122" fill="#F6F6F6"/>
<rect x="18.2559" y="54.5977" width="17.7073" height="2.95122" fill="#F6F6F6"/>
<rect x="18.2559" y="60.5" width="17.7073" height="2.95122" fill="#F6F6F6"/>
<rect x="18.2559" y="66.4023" width="17.7073" height="2.95122" fill="#F6F6F6"/>
<rect x="18.2559" y="72.3047" width="17.7073" height="2.95122" fill="#F6F6F6"/>
<rect x="18.2559" y="78.207" width="17.7073" height="2.95122" fill="#F6F6F6"/>
<rect x="18.2559" y="84.1094" width="17.7073" height="2.95122" fill="#F6F6F6"/>
<rect x="18.2559" y="90.0117" width="17.7073" height="2.95122" fill="#F6F6F6"/>
<rect x="18.2559" y="95.9141" width="17.7073" height="2.95122" fill="#F6F6F6"/>
<path d="M54 65.4268C54 62.982 55.982 61 58.4268 61H154.573C157.018 61 159 62.982 159 65.4268V111H54V65.4268Z" fill="#F6F6F6"/>
<rect x="121.549" y="39.8398" width="17.7073" height="7.37805" fill="#F6F6F6"/>
<rect x="142.207" y="39.8398" width="17.7073" height="7.37805" fill="#EBEBEB"/>
</svg>
